<svg width="1677" height="1043" viewBox="0 0 1677 1043" fill="none" xmlns="http://www.w3.org/2000/svg">
<path d="M144.337 74.7611C117.461 79.5655 97.0195 110.995 93.1395 144.626C84.0545 155.636 74.0231 165.645 62.383 153.934C44.3076 149.53 24.6234 162.843 17.1472 184.463C-4.90286 175.154 -30.7383 206.583 -20.707 235.31C-13.9879 256.83 8.63009 265.337 23.8664 253.627C38.3456 278.45 70.6162 281.152 86.7042 257.53C101.467 266.539 120.489 277.649 135.158 262.235C149.069 250.824 166.577 260.633 180.393 249.723C191.939 236.911 203.958 231.506 218.342 237.612C234.714 237.111 250.613 223.499 256.67 203.78C270.486 223.198 298.214 216.492 306.258 192.47C316.479 196.073 327.078 210.787 339.665 201.378C363.134 188.867 364.649 141.022 342.882 125.008C330.107 113.697 310.706 119.402 304.176 138.12C296.89 144.325 291.117 123.106 280.612 127.61C266.985 124.307 279.098 99.0837 267.458 89.3747C258.278 72.2589 238.026 67.5545 225.724 81.8677C216.071 90.9762 217.964 131.414 202.349 108.692C192.791 90.876 178.784 77.9641 161.939 74.9613C155.977 73.6601 150.11 73.56 144.337 74.7611Z" fill="url(#paint0_linear)"/>
<path d="M155.315 133.115C137.523 136.318 123.896 157.237 121.246 179.458C115.189 186.765 108.565 193.471 100.805 185.664C88.7861 182.761 75.7265 191.569 70.7108 205.982C56.0423 199.877 38.9132 220.696 45.5377 239.714C49.9856 254.027 65.0326 259.632 75.1586 251.925C84.7168 268.44 106.199 270.242 116.893 254.527C126.735 260.533 139.321 267.84 149.069 257.63C158.248 250.023 169.983 256.629 179.068 249.323C186.734 240.815 194.683 237.211 204.336 241.315C215.219 241.015 225.818 232.006 229.793 218.794C238.972 231.706 257.426 227.202 262.726 211.287C269.54 213.69 276.543 223.499 284.871 217.193C300.485 208.885 301.432 177.156 287.047 166.446C278.53 158.939 265.66 162.742 261.306 175.154C256.48 179.358 252.6 165.145 245.597 168.147C236.512 165.945 244.651 149.23 236.89 142.724C230.834 131.313 217.396 128.21 209.162 137.719C202.822 143.825 204.052 170.55 193.642 155.536C187.301 143.725 177.933 135.117 166.766 133.115C163.075 132.414 159.1 132.314 155.315 133.115Z" fill="url(#paint1_linear)"/>
<path d="M1375.19 0.00591434C1344.05 -0.494549 1316.61 30.8344 1307.62 68.0689C1295.79 78.5786 1283.11 87.7872 1271.37 71.8724C1251.41 62.8641 1227.27 73.6741 1215.82 96.5953C1191.97 81.181 1158.38 111.109 1165.95 146.041C1170.68 171.965 1195.38 186.679 1214.21 176.769C1227.37 208.198 1263.71 218.408 1285.1 195.086C1300.71 208.599 1320.87 225.414 1339.61 211.201C1356.92 201.192 1375.57 216.406 1392.7 206.897C1407.46 194.886 1421.94 191.383 1437.46 201.492C1456.2 204.595 1476.07 192.584 1485.53 171.465C1498.69 196.588 1531.15 195.086 1543.45 169.563C1554.62 175.969 1564.65 194.986 1580.17 187.079C1608.56 177.971 1616.6 124.021 1593.99 100.899C1580.93 85.2848 1558.12 87.4868 1548.18 107.205C1539 112.71 1535.31 87.1866 1522.72 89.9892C1507.68 83.283 1524.81 57.2589 1512.88 43.6463C1504.74 22.1264 1482.32 12.3173 1466.42 25.9299C1454.3 34.2376 1451.09 80.4803 1436.23 51.2533C1427.71 28.9326 1413.52 11.1162 1394.68 4.00962C1388.53 1.30712 1381.81 -0.0941783 1375.19 0.00591434Z" fill="url(#paint2_linear)"/>
<path d="M1379.73 68.6694C1359.01 68.3691 1340.84 89.0884 1334.87 113.911C1327.02 120.918 1318.6 127.023 1310.84 116.414C1297.59 110.408 1281.5 117.615 1273.93 132.829C1258.12 122.619 1235.79 142.538 1240.81 165.659C1243.93 182.875 1260.3 192.684 1272.79 186.078C1281.5 206.997 1305.73 213.704 1319.92 198.189C1330.33 207.198 1343.67 218.308 1356.07 208.899C1367.52 202.293 1380.01 212.302 1391.37 206.097C1401.21 198.089 1410.77 195.787 1421.09 202.493C1433.48 204.595 1446.73 196.588 1453.07 182.575C1461.78 199.29 1483.36 198.289 1491.49 181.374C1498.88 185.578 1505.6 198.289 1515.91 192.984C1534.74 186.979 1540.14 151.046 1525.09 135.731C1516.48 125.322 1501.24 126.823 1494.71 139.935C1488.66 143.539 1486.19 126.623 1477.77 128.525C1467.74 124.021 1479.19 106.805 1471.24 97.6963C1465.85 83.383 1450.99 76.8771 1440.39 85.8854C1432.35 91.3905 1430.17 122.119 1420.33 102.701C1414.65 87.8872 1405.19 76.0762 1392.79 71.2718C1388.63 69.5702 1384.18 68.6694 1379.73 68.6694Z" fill="url(#paint3_linear)"/>
<path d="M-15.6459 132.505V213.279H-46.9703V803.125H-84.5405V455.704H-235.011V641.576H-256.966V209.276H-394.85V512.256H-435.638V641.576H-438.761V803.225H-507.75V484.03H-510.873V629.464L-507.75 956.667V952.664H755.349V944.556H758.472V471.919H676.991V160.831H623.711V471.919H598.632V795.118H573.554V467.915H482.704V324.282L325.988 257.721V378.933H194.35V653.687H122.238V213.279H97.1595V132.505H-15.6459Z" fill="url(#paint4_linear)"/>
<path d="M192.383 585.153H420.346V976.696H192.383V585.153Z" fill="#359CA4"/>
<path d="M194.873 600.931V628.33H207.304V600.931C207.408 600.931 194.873 600.931 194.873 600.931ZM211.137 600.931V628.33H223.568V600.931H211.137ZM227.298 600.931V628.33H239.729V600.931H227.298ZM243.458 600.931V628.33H255.889V600.931C255.993 600.931 243.458 600.931 243.458 600.931ZM259.722 600.931V628.33H272.153V600.931H259.722ZM275.883 600.931V628.33H288.314V600.931H275.883ZM292.043 600.931V628.33H304.474V600.931H292.043ZM308.307 600.931V628.33H320.738V600.931H308.307ZM324.468 600.931V628.33H336.899V600.931H324.468ZM340.628 600.931V628.33H353.059V600.931H340.628ZM356.892 600.931V628.33H369.323V600.931H356.892ZM373.053 600.931V628.33H385.484V600.931H373.053ZM389.213 600.931V628.33H401.644V600.931H389.213ZM405.477 600.931V628.33H417.908V600.931H405.477Z" fill="#74CCCF"/>
<path d="M194.863 600.936V628.335H207.306V600.936H194.863ZM211.07 600.936V628.335H223.514V600.936H211.07ZM227.233 600.936V628.335H239.721V600.936H227.233ZM243.44 600.936V628.335H255.884V600.936H243.44ZM259.648 600.936V628.335H272.091V600.936H259.648ZM275.855 600.936V628.335H288.342V600.936H275.855ZM292.018 600.936V628.335H304.461V600.936H292.018ZM308.225 600.936V628.335H320.668V600.936H308.225ZM324.432 600.936V628.335H336.919V600.936H324.432ZM340.595 600.936V628.335H353.038V600.936H340.595ZM356.802 600.936V628.335H369.245V600.936H356.802ZM373.009 600.936V628.335H385.497V600.936H373.009ZM389.216 600.936V628.335H401.659V600.936H389.216ZM405.379 600.936V628.335H417.822V600.936H405.379ZM194.863 635.173V662.571H207.306V635.173H194.863ZM211.07 635.173V662.571H223.514V635.173H211.07ZM227.278 635.173V662.571H239.765V635.173C239.721 635.173 227.278 635.173 227.278 635.173ZM243.44 635.173V662.571H255.884V635.173H243.44ZM259.648 635.173V662.571H272.091V635.173H259.648ZM275.855 635.173V662.571H288.342V635.173H275.855ZM292.018 635.173V662.571H304.461V635.173H292.018ZM308.225 635.173V662.571H320.668V635.173H308.225ZM324.432 635.173V662.571H336.919V635.173H324.432ZM340.639 635.173V662.571H353.082V635.173H340.639ZM356.802 635.173V662.571H369.245V635.173H356.802ZM373.009 635.173V662.571H385.497V635.173H373.009ZM389.216 635.173V662.571H401.659V635.173H389.216ZM405.379 635.173V662.571H417.822V635.173H405.379ZM194.863 669.456V696.855H207.306V669.456H194.863ZM211.07 669.456V696.855H223.514V669.456H211.07ZM227.278 669.456V696.855H239.765V669.456C239.721 669.456 227.278 669.456 227.278 669.456ZM243.44 669.456V696.855H255.884V669.456H243.44ZM259.648 669.456V696.855H272.091V669.456H259.648ZM275.855 669.456V696.855H288.342V669.456H275.855ZM292.062 669.456V696.855H304.505V669.456H292.062ZM308.225 669.456V696.855H320.668V669.456H308.225ZM324.432 669.456V696.855H336.919V669.456H324.432ZM340.639 669.456V696.855H353.082V669.456H340.639ZM356.802 669.456V696.855H369.245V669.456H356.802ZM373.009 669.456V696.855H385.497V669.456H373.009ZM389.216 669.456V696.855H401.659V669.456H389.216ZM405.423 669.456V696.855H417.867V669.456H405.423ZM194.863 703.693V731.138H207.306V703.74H194.863V703.693ZM211.07 703.693V731.138H223.514V703.74H211.07V703.693ZM227.278 703.693V731.138H239.765V703.74C239.721 703.693 227.278 703.693 227.278 703.693ZM243.485 703.693V731.138H255.928V703.74H243.485V703.693ZM259.648 703.693V731.138H272.091V703.74H259.648V703.693ZM275.855 703.693V731.138H288.342V703.74H275.855V703.693ZM292.062 703.693V731.138H304.505V703.74H292.062V703.693ZM308.225 703.693V731.138H320.668V703.74H308.225V703.693ZM324.432 703.693V731.138H336.919V703.74H324.432V703.693ZM340.639 703.693V731.138H353.082V703.74H340.639V703.693ZM356.846 703.693V731.138H369.289V703.74H356.846V703.693ZM373.009 703.693V731.138H385.497V703.74H373.009V703.693ZM389.216 703.693V731.138H401.659V703.74C401.659 703.693 389.216 703.693 389.216 703.693ZM405.423 703.693V731.138H417.867V703.74H405.423V703.693ZM194.908 737.976V765.375H207.351V737.976H194.908ZM211.07 737.976V765.375H223.514V737.976H211.07ZM227.278 737.976V765.375H239.765V737.976C239.721 737.976 227.278 737.976 227.278 737.976ZM243.485 737.976V765.375H255.928V737.976H243.485ZM259.648 737.976V765.375H272.091V737.976H259.648ZM275.855 737.976V765.375H288.342V737.976H275.855ZM292.062 737.976V765.375H304.505V737.976H292.062ZM308.269 737.976V765.375H320.712V737.976H308.269ZM324.432 737.976V765.375H336.919V737.976H324.432ZM340.639 737.976V765.375H353.082V737.976H340.639ZM356.846 737.976V765.375H369.289V737.976H356.846ZM373.009 737.976V765.375H385.497V737.976H373.009ZM389.216 737.976V765.375H401.659V737.976H389.216ZM405.423 737.976V765.375H417.867V737.976H405.423ZM194.908 772.26V799.658H207.351V772.26H194.908ZM211.07 772.26V799.658H223.514V772.26H211.07ZM227.278 772.26V799.658H239.765V772.26C239.721 772.26 227.278 772.26 227.278 772.26ZM243.485 772.26V799.658H255.928V772.26H243.485ZM259.692 772.26V799.658H272.135V772.26H259.692ZM275.855 772.26V799.658H288.342V772.26H275.855ZM292.062 772.26V799.658H304.505V772.26H292.062ZM308.269 772.26V799.658H320.712V772.26H308.269ZM324.432 772.26V799.658H336.919V772.26H324.432ZM340.639 772.26V799.658H353.082V772.26H340.639ZM356.846 772.26V799.658H369.289V772.26H356.846ZM373.009 772.26V799.658H385.497V772.26H373.009ZM389.216 772.26V799.658H401.659V772.26H389.216ZM405.423 772.26V799.658H417.867V772.26H405.423ZM194.908 806.496V833.895H207.351V806.496H194.908ZM211.115 806.496V833.895H223.558V806.496H211.115ZM227.278 806.496V833.895H239.765V806.496C239.721 806.496 227.278 806.496 227.278 806.496ZM243.485 806.496V833.895H255.928V806.496H243.485ZM259.692 806.496V833.895H272.135V806.496H259.692ZM275.855 806.496V833.895H288.342V806.496H275.855ZM292.062 806.496V833.895H304.505V806.496H292.062ZM308.269 806.496V833.895H320.712V806.496H308.269ZM324.432 806.496V833.895H336.919V806.496H324.432ZM340.639 806.496V833.895H353.082V806.496H340.639ZM356.846 806.496V833.895H369.289V806.496H356.846ZM373.009 806.496V833.895H385.497V806.496H373.009ZM389.216 806.496V833.895H401.659V806.496H389.216ZM405.423 806.496V833.895H417.867V806.496H405.423ZM194.908 840.78V868.178H207.351V840.78H194.908ZM211.115 840.78V868.178H223.558V840.78H211.115ZM227.278 840.78V868.178H239.765V840.78C239.721 840.78 227.278 840.78 227.278 840.78ZM243.485 840.78V868.178H255.928V840.78H243.485ZM259.692 840.78V868.178H272.135V840.78H259.692ZM275.855 840.78V868.178H288.342V840.78H275.855ZM292.062 840.78V868.178H304.505V840.78H292.062ZM308.269 840.78V868.178H320.712V840.78H308.269ZM324.432 840.78V868.178H336.919V840.78H324.432ZM340.639 840.78V868.178H353.082V840.78H340.639ZM356.846 840.78V868.178H369.289V840.78H356.846ZM373.009 840.78V868.178H385.497V840.78H373.009ZM389.216 840.78V868.178H401.659V840.78H389.216ZM405.423 840.78V868.178H417.867V840.78H405.423ZM194.908 875.016V902.415H207.351V875.016H194.908ZM211.115 875.016V902.415H223.558V875.016H211.115ZM227.278 875.016V902.415H239.765V875.016C239.721 875.016 227.278 875.016 227.278 875.016ZM243.485 875.016V902.415H255.928V875.016H243.485ZM259.692 875.016V902.415H272.135V875.016H259.692ZM275.855 875.016V902.415H288.342V875.016H275.855ZM292.062 875.016V902.415H304.505V875.016H292.062ZM308.269 875.016V902.415H320.712V875.016H308.269ZM324.432 875.016V902.415H336.919V875.016H324.432ZM340.639 875.016V902.415H353.082V875.016H340.639ZM356.846 875.016V902.415H369.289V875.016H356.846ZM373.009 875.016V902.415H385.497V875.016H373.009ZM389.216 875.016V902.415H401.659V875.016H389.216ZM405.423 875.016V902.415H417.867V875.016H405.423ZM194.908 909.3V976.836H207.351V909.3H194.908ZM211.115 909.3V976.836H223.558V909.3H211.115ZM227.278 909.3V976.836H239.765V909.3H227.278ZM243.485 909.3V976.836H255.928V909.3H243.485ZM259.692 909.3V976.836H272.135V909.3H259.692ZM275.855 909.3V976.836H288.342V909.3H275.855ZM292.062 909.3V976.836H304.505V909.3H292.062ZM308.269 909.3V976.836H320.712V909.3H308.269ZM324.432 909.3V976.836H336.919V909.3H324.432ZM340.639 909.3V976.836H353.082V909.3H340.639ZM356.846 909.3V976.836H369.289V909.3H356.846ZM373.009 909.3V976.836H385.497V909.3H373.009ZM389.216 909.3V976.836H401.659V909.3H389.216ZM405.423 909.3V976.836H417.867V909.3H405.423Z" fill="url(#paint5_linear)"/>
<path d="M-161.271 553.011H48.5893V780.383H-161.271V553.011Z" fill="url(#paint6_linear)"/>
<path d="M85.4194 635.766H0.560295V975.38H85.4194V635.766Z" fill="url(#paint7_linear)"/>
<path d="M73.1162 647.247H61.9174V676.021H73.1162V647.247Z" fill="#6C7058"/>
<path d="M73.1162 683.259H61.9174V712.032H73.1162V683.259Z" fill="#6C7058"/>
<path d="M73.1162 719.234H61.9174V748.008H73.1162V719.234Z" fill="#6C7058"/>
<path d="M73.1162 755.211H61.9174V783.984H73.1162V755.211Z" fill="#6C7058"/>
<path d="M73.1162 791.186H61.9174V819.96H73.1162V791.186Z" fill="#6C7058"/>
<path d="M73.1162 827.162H61.9174V855.936H73.1162V827.162Z" fill="#6C7058"/>
<path d="M73.1162 863.138H61.9174V891.912H73.1162V863.138Z" fill="#6C7058"/>
<path d="M39.2114 562.353H28.0126V591.126H39.2114V562.353Z" fill="#6C7058"/>
<path d="M39.2114 598.329H28.0126V627.102H39.2114V598.329Z" fill="#6C7058"/>
<path d="M22.2554 562.353H11.0565V591.126H22.2554V562.353Z" fill="#6C7058"/>
<path d="M22.2554 598.329H11.0565V627.102H22.2554V598.329Z" fill="#6C7058"/>
<path d="M56.1602 647.247H44.9612V676.021H56.1602V647.247Z" fill="#6C7058"/>
<path d="M56.1602 683.259H44.9612V712.032H56.1602V683.259Z" fill="#6C7058"/>
<path d="M56.1602 719.234H44.9612V748.008H56.1602V719.234Z" fill="#6C7058"/>
<path d="M56.1602 755.211H44.9612V783.984H56.1602V755.211Z" fill="#6C7058"/>
<path d="M56.1602 791.186H44.9612V819.96H56.1602V791.186Z" fill="#6C7058"/>
<path d="M56.1602 827.162H44.9612V855.936H56.1602V827.162Z" fill="#6C7058"/>
<path d="M56.1602 863.138H44.9612V891.912H56.1602V863.138Z" fill="#6C7058"/>
<path d="M39.2041 647.247H28.0052V676.021H39.2041V647.247Z" fill="#6C7058"/>
<path d="M39.2041 683.259H28.0052V712.032H39.2041V683.259Z" fill="#6C7058"/>
<path d="M39.2041 719.234H28.0052V748.008H39.2041V719.234Z" fill="#6C7058"/>
<path d="M39.2041 755.211H28.0052V783.984H39.2041V755.211Z" fill="#6C7058"/>
<path d="M39.2041 791.186H28.0052V819.96H39.2041V791.186Z" fill="#6C7058"/>
<path d="M39.2041 827.162H28.0052V855.936H39.2041V827.162Z" fill="#6C7058"/>
<path d="M39.2041 863.138H28.0052V891.912H39.2041V863.138Z" fill="#6C7058"/>
<path d="M22.248 647.247H11.0492V676.021H22.248V647.247Z" fill="#6C7058"/>
<path d="M22.248 683.259H11.0492V712.032H22.248V683.259Z" fill="#6C7058"/>
<path d="M22.248 719.234H11.0492V748.008H22.248V719.234Z" fill="#6C7058"/>
<path d="M22.248 755.211H11.0492V783.984H22.248V755.211Z" fill="#6C7058"/>
<path d="M22.248 791.186H11.0492V819.96H22.248V791.186Z" fill="#6C7058"/>
<path d="M22.248 827.162H11.0492V855.936H22.248V827.162Z" fill="#6C7058"/>
<path d="M22.248 863.138H11.0492V891.912H22.248V863.138Z" fill="#6C7058"/>
<path d="M-116.712 437.132H1.66454V976.806H-116.712V437.132Z" fill="#BBC0B1"/>
<path d="M546.848 211.711H651.239V273.875H546.848V211.711Z" fill="url(#paint8_linear)"/>
<path d="M528.312 268.796H669.678V976.97H528.312V268.796Z" fill="#8A9DA5"/>
<path d="M623.057 375.042H629.395V975.548H623.057V375.042Z" fill="#565854"/>
<path d="M641.208 375.042H647.546V975.548H641.208V375.042Z" fill="#565854"/>
<path d="M604.905 375.042H611.244V975.548H604.905V375.042Z" fill="#565854"/>
<path d="M586.755 375.042H593.093V975.548H586.755V375.042Z" fill="#565854"/>
<path d="M568.604 375.042H574.943V975.548H568.604V375.042Z" fill="#565854"/>
<path d="M550.453 375.042H556.792V975.548H550.453V375.042Z" fill="#565854"/>
<path d="M588.431 166.206H592.945V214.048H588.431V166.206Z" fill="#010101"/>
<path d="M608.311 83.6267H612.824V212.626H608.311V83.6267Z" fill="#010101"/>
<path d="M697.1 357.9H838.323V408.46H697.1V357.9Z" fill="url(#paint9_linear)"/>
<path d="M682.337 399.289H854.179V975.277H682.337V399.289Z" fill="url(#paint10_linear)"/>
<path d="M692.647 423.413H839.026V438.779H692.647V423.413Z" fill="#565854"/>
<path d="M692.647 458.607H839.026V473.973H692.647V458.607Z" fill="#565854"/>
<path d="M692.647 669.934H839.026V685.3H692.647V669.934Z" fill="#565854"/>
<path d="M692.647 705.128H839.026V720.494H692.647V705.128Z" fill="#565854"/>
<path d="M692.647 740.322H839.026V755.688H692.647V740.322Z" fill="#565854"/>
<path d="M692.647 775.515H839.026V790.882H692.647V775.515Z" fill="#565854"/>
<path d="M692.647 810.792H839.026V826.158H692.647V810.792Z" fill="#565854"/>
<path d="M692.647 845.986H839.026V861.352H692.647V845.986Z" fill="#565854"/>
<path d="M692.647 881.179H839.026V896.546H692.647V881.179Z" fill="#565854"/>
<path d="M692.647 916.373H839.026V931.739H692.647V916.373Z" fill="#565854"/>
<path d="M694.522 951.649H840.823V967.016H694.444V951.649H694.522Z" fill="#565854"/>
<path d="M692.647 493.883H839.026V509.249H692.647V493.883Z" fill="#565854"/>
<path d="M692.647 529.077H839.026V544.443H692.647V529.077Z" fill="#565854"/>
<path d="M692.647 564.27H839.026V579.637H692.647V564.27Z" fill="#565854"/>
<path d="M692.647 599.464H839.026V614.83H692.647V599.464Z" fill="#565854"/>
<path d="M692.647 634.74H839.026V650.107H692.647V634.74Z" fill="#565854"/>
<path d="M386.873 998.765L763.275 960L1179.23 967.574V976.044L1407.8 972.257L1690.25 979.333L1709.57 968.271L1791.52 979.532V1046H391.652L386.873 998.765Z" fill="#4E7436"/>
<path d="M876.757 864.538C900.542 864.538 917.081 879.743 917.081 892.665C917.081 905.586 893.05 909.245 869.306 909.245C853.258 904.076 850.024 922.301 834.386 923.476C821.286 923.476 810.642 917.099 810.642 909.245C809.291 895.92 831.193 899.075 830.988 892.665C830.988 879.743 852.972 864.538 876.757 864.538Z" fill="#D7E0B1"/>
<path d="M872.417 876.051C890.716 876.051 903.489 887.764 903.489 897.699C903.489 907.634 884.985 910.487 866.686 910.487C854.322 906.526 851.825 920.522 839.789 921.428C829.678 921.428 821.531 916.528 821.531 910.487C820.507 900.216 837.374 902.633 837.21 897.699C837.21 887.764 854.118 876.051 872.417 876.051Z" fill="#BFCD82"/>
<path d="M877.084 881.488L867.586 984.46H877.739L877.084 881.488Z" fill="#8E5B24"/>
<path d="M842.532 905.754L874.341 924.348L875.938 917.132L842.532 905.754Z" fill="#8E5B24"/>
<path d="M895.342 898.236L876.797 921.495L874.792 915.42L895.342 898.236Z" fill="#8E5B24"/>
<path d="M1025.64 895.229C1049.42 895.229 1065.96 910.433 1065.96 923.355C1065.96 936.277 1041.93 939.936 1018.19 939.936C1002.14 934.767 998.905 952.992 983.267 954.167C970.167 954.167 959.523 947.79 959.523 939.936C958.172 926.611 980.074 929.766 979.869 923.355C979.869 910.433 1001.85 895.229 1025.64 895.229Z" fill="#D7E0B1"/>
<path d="M1021.3 906.742C1039.6 906.742 1052.37 918.455 1052.37 928.39C1052.37 938.325 1033.87 941.178 1015.57 941.178C1003.2 937.217 1000.71 951.213 988.671 952.119C978.559 952.119 970.412 947.219 970.412 941.178C969.389 930.907 986.255 933.324 986.091 928.39C986.091 918.455 1003 906.742 1021.3 906.742Z" fill="#BFCD82"/>
<path d="M1025.97 912.179L1016.47 1015.15H1026.62L1025.97 912.179Z" fill="#8E5B24"/>
<path d="M991.413 936.445L1023.22 955.039L1024.82 947.823L991.413 936.445Z" fill="#8E5B24"/>
<path d="M1044.22 928.927L1025.68 952.186L1023.67 946.111L1044.22 928.927Z" fill="#8E5B24"/>
<path d="M1179.17 877C1202.96 877 1219.5 892.204 1219.5 905.126C1219.5 918.048 1195.47 921.707 1171.72 921.707C1155.68 916.538 1152.44 934.763 1136.8 935.937C1123.7 935.937 1113.06 929.56 1113.06 921.707C1111.71 908.382 1133.61 911.537 1133.41 905.126C1133.41 892.204 1155.39 877 1179.17 877Z" fill="#D7E0B1"/>
<path d="M1174.84 888.512C1193.13 888.512 1205.91 900.226 1205.91 910.161C1205.91 920.095 1187.4 922.948 1169.1 922.948C1156.74 918.988 1154.24 932.984 1142.21 933.89C1132.1 933.89 1123.95 928.99 1123.95 922.948C1122.93 912.678 1139.79 915.095 1139.63 910.161C1139.63 900.226 1156.54 888.512 1174.84 888.512Z" fill="#BFCD82"/>
<path d="M1179.5 893.95L1170 996.922H1180.16L1179.5 893.95Z" fill="#8E5B24"/>
<path d="M1144.95 918.216L1176.76 936.81L1178.36 929.594L1144.95 918.216Z" fill="#8E5B24"/>
<path d="M1197.76 910.698L1179.22 933.957L1177.21 927.882L1197.76 910.698Z" fill="#8E5B24"/>
<path d="M681.536 1040.7L654.944 1037.8C625.891 1033.99 605.45 1031.69 593.526 1030.89C583.021 1030.09 570.056 1029.79 554.441 1029.89C536.934 1030.09 523.874 1030.19 515.167 1030.19L369.618 1029.39C371.038 981.943 372.268 946.511 373.404 923.089L374.823 890.759C534.852 898.566 663.082 910.077 759.516 925.491C858.505 941.406 907.999 958.822 907.999 977.84C907.999 989.651 887.841 1001.06 847.621 1012.07C808.916 1022.58 753.459 1032.19 681.536 1040.7Z" fill="url(#paint11_radial)"/>
<path d="M140.506 963.326C154.039 950.715 160.853 944.209 161.042 943.808C174.575 936.702 191.609 927.893 212.24 917.384C253.879 896.264 292.68 877.347 328.641 860.631C444.096 806.681 511.666 783.56 531.066 791.367C550.561 799.174 567.879 811.085 583.116 827.1C590.876 835.208 596.554 842.514 600.245 848.92L609.708 853.825C617.184 858.029 623.809 862.533 629.582 867.538C634.219 871.441 639.045 875.745 644.061 880.45C648.32 883.853 655.039 887.456 664.124 891.26C682.956 899.067 698.95 908.676 712.198 920.186C718.728 926.092 723.46 931.096 726.394 935.3L742.103 952.416C753.365 965.128 760.841 974.737 764.437 981.043C770.21 991.152 773.617 1000.26 774.847 1008.17L773.333 1009.67C771.346 1012.17 767.844 1017.28 762.828 1025.08C757.718 1032.89 749.012 1036.89 736.709 1037.09L719.58 1035.19C718.066 1038.9 711.157 1041.4 698.855 1042.6C691.947 1043.3 681.537 1043.6 667.72 1043.6C661.379 1043.6 657.026 1043.9 654.755 1044.4C652.484 1045 649.834 1045.2 646.995 1045.2C644.345 1045.2 632.137 1047.5 610.371 1052.11C587.564 1056.91 570.908 1059.72 560.593 1060.42C546.208 1061.52 536.366 1062.22 531.161 1062.32C523.685 1062.52 513.843 1061.92 501.729 1060.42C490.562 1059.11 481.288 1058.91 474.096 1060.12C468.323 1061.52 464.254 1062.12 461.982 1062.12C460.279 1062.12 450.721 1063.22 433.497 1065.52C416.179 1067.82 405.012 1068.92 399.807 1068.92C391.479 1068.92 385.233 1068.72 380.974 1068.22C374.539 1067.52 366.968 1066.12 358.357 1063.82C345.676 1060.42 335.833 1058.71 328.925 1058.71C323.152 1058.71 312.175 1059.32 296.087 1060.42C283.784 1061.92 275.267 1062.82 270.63 1063.12C263.153 1063.82 253.785 1063.42 242.428 1062.12C231.261 1060.82 219.905 1058.81 208.36 1056.21C196.53 1053.41 187.634 1051.41 181.862 1050.31L167.382 1047.1C163.881 1047.2 161.231 1047.5 159.433 1047.9L157.73 1048.61L48.8042 1043.5L61.58 1039.1C69.3401 1035.89 71.4221 1033.99 67.8259 1033.29C64.3244 1032.59 72.6523 1023.78 92.715 1006.67C115.049 987.448 126.405 977.74 126.594 977.339C127.919 975.738 132.557 970.933 140.506 963.326Z" fill="#643C22"/>
<path d="M565.703 996.357C565.703 994.055 564.757 988.049 562.959 978.24C558.132 973.936 552.833 970.133 547.249 966.93C542.707 964.327 539.962 960.924 538.921 956.82C537.407 950.915 536.366 947.612 535.609 946.711C534.568 945.209 533.622 942.107 532.865 937.402C532.013 933.599 529.931 929.895 526.429 926.392C522.265 922.288 518.101 919.786 513.937 918.785C510.909 917.984 507.029 917.984 502.203 918.585C500.499 918.785 497.66 921.588 493.686 926.893C489.616 932.398 483.654 936.001 475.705 937.703C468.796 939.304 465.768 940.405 466.525 941.106C468.796 943.408 468.039 946.711 464.065 951.215C460.279 955.719 458.197 957.621 458.008 956.82C457.44 954.718 454.79 954.318 450.248 955.819C445.611 957.321 443.339 958.322 443.339 958.822C443.339 960.524 441.068 963.226 436.431 966.93C431.794 970.733 429.807 972.134 430.374 971.033C432.078 967.63 431.794 965.528 429.523 964.727C425.264 962.425 421.952 960.824 419.681 959.623C415.517 957.621 411.163 957.02 406.526 957.921C401.321 958.922 396.779 964.127 392.899 973.536C389.681 981.343 388.072 988.149 388.072 994.055C388.072 997.258 387.126 1000.86 385.328 1005.06C384.855 1006.07 382.678 1010.57 378.798 1018.48C380.596 1019.88 383.341 1022.78 386.747 1027.29C387.315 1028.09 390.817 1032.79 397.252 1041.5C401.132 1046.8 402.741 1049.11 401.889 1048.3C399.618 1046 398.861 1046 399.618 1048.3C400.564 1051.11 403.498 1052.01 408.419 1050.81C410.974 1050.21 413.34 1049.41 415.706 1048.3L441.163 1052.91C445.8 1053.71 447.882 1053.91 447.598 1053.41C446.462 1052.41 447.409 1051.51 450.342 1050.71C454.98 1049.61 457.913 1048.71 459.144 1048.2C460.563 1047.6 462.929 1046.2 466.431 1044C468.702 1042.5 469.932 1039.8 469.932 1035.69C469.932 1029.89 471.068 1024.38 473.434 1019.08C475.705 1013.87 477.03 1011.87 477.219 1013.17C477.787 1017.08 479.679 1019.08 482.708 1019.08C485.925 1019.08 487.723 1021.38 488.102 1025.88C488.575 1030.39 489.805 1032.69 491.887 1032.69C496.525 1032.69 501.824 1030.39 507.975 1025.88L536.839 1014.57C556.145 1006.07 565.703 1000.06 565.703 996.357ZM627.784 926.792C625.607 927.994 621.822 927.093 616.333 924.09L608.573 919.686C609.141 919.686 607.153 918.184 602.516 915.082C596.743 911.278 593.904 905.172 593.904 896.965L595.608 885.654L577.059 890.259L572.517 908.075C569.394 920.487 567.88 928.094 567.88 930.896V945.61C574.693 951.415 579.331 956.22 581.696 960.123C585.387 966.129 587.375 969.732 587.753 971.133C588.321 973.235 588.605 978.64 588.605 987.248C588.605 994.555 589.362 998.759 590.876 999.76C592.012 1000.56 595.135 1002.36 600.245 1005.37C603.557 1008.67 608.1 1010.37 613.778 1010.57C621.538 1011.07 627.689 1012.27 632.421 1014.27C635.923 1015.77 640.465 1018.48 646.238 1022.58C649.361 1024.58 653.998 1025.58 660.055 1025.58C668.572 1025.58 673.966 1025.48 676.332 1025.28C679.076 1025.08 682.199 1024.48 685.512 1023.38C690.149 1021.78 696.3 1017.98 703.965 1012.07C702.357 1003.06 699.234 993.254 694.596 982.744C692.325 977.439 690.811 975.337 690.243 976.438C688.54 979.841 685.322 981.143 680.78 980.342C676.143 979.641 673.587 979.341 673.02 979.541C671.316 980.142 666.963 980.342 660.055 980.342C653.146 980.342 650.213 980.142 651.443 979.842C654.944 978.74 655.512 977.439 653.146 975.938C651.348 974.737 649.55 970.032 647.941 962.025C646.427 954.118 643.588 948.913 639.329 946.411C635.544 944.108 633.841 942.707 634.124 942.207C635.26 940.505 634.692 937.402 632.421 932.898C630.15 928.594 628.541 926.492 627.784 926.792ZM140.506 963.326C154.039 950.715 160.853 944.209 161.042 943.808C174.575 936.702 191.609 927.893 212.24 917.384C253.879 896.264 292.68 877.347 328.641 860.631C444.097 806.681 511.666 783.56 531.066 791.367C550.561 799.174 567.88 811.085 583.116 827.1C590.876 835.208 596.554 842.514 600.245 848.92L609.708 853.825C617.185 858.029 623.809 862.533 629.582 867.538C634.219 871.441 639.045 875.745 644.061 880.45C648.32 883.853 655.039 887.456 664.124 891.26C682.956 899.067 698.95 908.676 712.199 920.186C718.729 926.092 723.46 931.096 726.394 935.3L742.104 952.416C753.365 965.128 760.841 974.737 764.437 981.043C770.21 991.152 773.617 1000.26 774.847 1008.17L773.333 1009.67C771.346 1012.17 767.844 1017.28 762.829 1025.08C757.718 1032.89 749.012 1036.89 736.709 1037.09L719.58 1035.19C718.066 1038.9 711.158 1041.4 698.855 1042.6C691.947 1043.3 681.537 1043.6 667.72 1043.6C661.379 1043.6 657.026 1043.9 654.755 1044.4C652.484 1045 649.834 1045.2 646.995 1045.2C644.345 1045.2 632.137 1047.5 610.371 1052.11C587.564 1056.91 570.908 1059.72 560.593 1060.42C546.208 1061.52 536.366 1062.22 531.161 1062.32C523.685 1062.52 513.843 1061.92 501.73 1060.42C490.563 1059.11 481.288 1058.91 474.096 1060.12C468.323 1061.52 464.254 1062.12 461.983 1062.12C460.279 1062.12 450.721 1063.22 433.497 1065.52C416.179 1067.82 405.012 1068.92 399.807 1068.92C387.315 1068.92 377 1068.12 368.861 1066.42C374.066 1064.62 376.621 1063.02 376.621 1061.52C376.621 1059.21 375.864 1055.91 374.35 1051.41C372.836 1046.9 372.079 1043.5 372.079 1041.3L372.268 1031.79C370.092 1034.99 368.199 1034.49 366.779 1030.49L365.265 1023.38L360.628 1016.58C358.641 1013.77 356.086 1012.17 353.057 1011.87L349.083 1012.07L314.541 996.357C301.197 990.151 293.437 989.15 291.166 993.454C290.503 994.655 289.462 997.158 288.232 1000.76C286.623 1003.76 283.879 1006.07 279.904 1007.57C273.753 1009.87 271.008 1010.77 271.576 1010.47C273.28 1009.37 272.239 1009.17 268.453 1009.97C263.816 1010.87 259.274 1011.17 254.636 1010.77C246.592 1010.17 241.955 1009.97 240.82 1009.97C236.466 1009.97 232.586 1011.27 229.274 1013.87C224.448 1017.58 220.568 1019.98 217.729 1021.18C213.943 1022.68 208.928 1025.68 202.871 1030.29C196.72 1034.69 191.704 1037.7 187.824 1039.3L167.572 1047.4C164.07 1047.5 161.421 1047.8 159.622 1048.2L157.919 1048.91L48.9937 1043.8L61.7694 1039.4C69.5295 1036.19 71.6115 1034.29 68.0154 1033.59C64.5139 1032.89 72.8418 1024.08 92.9045 1006.97C115.238 987.749 126.595 978.04 126.784 977.639C127.92 975.738 132.557 970.933 140.506 963.326Z" fill="#57361E"/>
<path d="M249.81 1027.89H275.267L280.945 1027.09C285.582 1026.78 289.746 1026.99 293.532 1027.89C297.317 1028.89 299.399 1031.09 299.588 1034.49C299.777 1036.49 300.061 1040.4 300.44 1046C301.102 1048.81 302.333 1051.31 304.036 1053.41C305.077 1054.61 306.875 1056.71 309.62 1059.72L295.992 1060.72C283.689 1062.22 275.172 1063.12 270.535 1063.42C263.059 1064.12 253.69 1063.72 242.334 1062.42C229.842 1060.82 212.902 1057.51 191.325 1052.61C196.436 1051.51 203.628 1047 212.902 1039.2L219.81 1034.59C222.65 1032.79 228.612 1031.09 237.413 1029.49C241.955 1028.89 246.025 1028.29 249.81 1027.89Z" fill="#57361E"/>
<path d="M140.506 963.326C154.039 950.715 160.853 944.209 161.042 943.808C174.575 936.702 191.609 927.893 212.24 917.384C253.879 896.264 292.68 877.347 328.641 860.631C444.096 806.681 511.666 783.56 531.066 791.367C550.561 799.174 567.88 811.085 583.116 827.1C590.876 835.208 596.554 842.514 600.245 848.92L609.708 853.825C617.185 858.029 623.809 862.533 629.582 867.538C632.894 870.34 636.585 873.643 640.654 877.547C643.777 880.35 647.089 882.752 650.496 884.854L648.604 885.554C642.831 887.456 635.733 886.555 627.311 882.852L616.238 876.546C613.588 875.445 610.56 873.843 607.059 871.842C600.245 867.638 595.04 863.234 591.538 858.429C588.037 854.025 584.535 851.823 580.845 851.823C572.422 851.823 568.069 851.723 567.88 851.623C563.053 850.722 558.321 851.423 553.684 853.625L548.29 857.328L550.561 862.733C551.697 867.438 551.318 872.442 549.331 877.647C547.817 881.951 547.912 889.358 549.71 899.968C551.792 912.379 552.454 921.888 551.792 928.394C550.183 941.906 549.331 947.912 549.331 946.311L540.151 928.394C538.164 924.59 537.596 919.686 538.448 913.68L540.151 905.773L522.833 897.966C523.022 894.362 522.644 890.359 521.414 886.155C519.142 877.447 514.6 871.241 507.786 867.538C500.499 862.533 495.2 859.43 491.698 858.229C486.966 856.427 477.03 855.026 461.793 854.025C448.26 853.124 441.636 859.73 441.731 873.843C441.731 877.447 442.109 882.652 442.772 889.458C442.961 894.563 442.014 897.465 439.838 898.066C432.929 900.368 429.428 914.982 429.428 942.107C429.428 944.909 427.535 945.81 423.75 944.609L400.564 934.099C394.129 931.197 391.479 930.696 392.804 932.698C394.507 935.901 394.508 937.402 392.615 937.402C390.06 937.402 387.031 939.004 383.435 942.107C379.177 945.81 376.054 948.012 374.066 948.713C371.038 949.714 368.672 953.317 366.969 959.423C365.549 964.127 364.887 968.831 364.887 973.436C364.887 977.94 362.615 982.444 357.978 986.948C350.218 985.447 343.31 983.245 337.253 980.142C333.941 978.54 329.966 977.139 325.329 975.738C319.84 974.036 315.298 972.535 311.891 971.133C292.774 963.526 272.049 959.823 249.621 959.823C237.791 959.823 229.842 961.725 225.773 965.528C222.271 968.931 212.997 979.841 197.76 998.158C182.524 1014.67 164.827 1026.38 144.67 1033.59C127.352 1039.7 113.914 1041 104.355 1037.69C98.6772 1035.69 86.4693 1033.09 67.7314 1030.09C70.7598 1025.78 81.075 1016.18 98.8665 1001.16C116.658 986.247 125.743 978.34 126.405 977.439C127.92 975.738 132.557 970.933 140.506 963.326Z" fill="#482C1C"/>
<path d="M713.145 968.932C715.416 968.031 717.782 967.33 720.053 966.93L717.782 949.013C716.173 942.907 713.902 936.902 710.874 930.896C708.886 927.193 705.669 923.49 701.032 919.686L694.596 915.082V907.275C703.965 913.38 712.104 919.886 719.012 926.793C722.514 930.296 724.974 933.199 726.488 935.401L742.198 952.516C753.46 965.228 760.936 974.837 764.532 981.143C770.305 991.252 773.712 1000.36 774.942 1008.27L773.428 1009.77C771.44 1012.27 767.939 1017.38 762.923 1025.18C757.813 1032.99 749.106 1036.99 736.804 1037.19L719.675 1035.29C718.161 1039 711.252 1041.5 698.95 1042.7C692.041 1043.4 681.631 1043.7 667.815 1043.7C661.474 1043.7 657.121 1044 654.849 1044.5C652.578 1045.1 649.928 1045.3 647.089 1045.3C644.44 1045.3 632.232 1047.6 610.465 1052.21C587.658 1057.01 571.003 1059.82 560.687 1060.52C546.303 1061.62 536.461 1062.32 531.256 1062.42C523.779 1062.62 513.937 1062.02 501.824 1060.52C490.657 1059.22 481.383 1059.01 474.19 1060.22C468.418 1061.62 464.348 1062.22 462.077 1062.22C466.809 1060.52 470.878 1057.61 474.38 1053.61L478.165 1048L480.436 1041.2C481.477 1038.4 483.749 1036.09 487.156 1034.29L491.982 1032.29L494.064 1035.99C496.714 1039.4 501.351 1043.4 508.07 1048C513.464 1051.81 516.114 1053.21 515.83 1052.21C515.262 1049.41 517.25 1048 521.887 1048H540.435C547.344 1048 551.981 1047.7 554.252 1047C556.523 1046.2 558.889 1045.8 561.16 1045.8C564.946 1045.8 569.204 1043.9 573.747 1040.2L579.614 1034.49L584.157 1027.69C586.144 1024.88 588.983 1025.88 592.769 1030.89C594.756 1033.29 596.459 1035.99 597.974 1039H607.342C612.737 1039 616.617 1038.8 618.888 1038.5C622.39 1037.9 626.175 1036.59 630.339 1034.39C633.935 1032.69 638.099 1032.09 642.831 1032.69C651.443 1033.79 657.31 1034.39 660.338 1034.39C666.3 1034.39 671.505 1035.19 675.764 1036.79C680.022 1038.3 683.335 1039 685.795 1039C691.947 1039 700.369 1038.3 711.252 1036.79C715.889 1029.19 718.918 1022.48 720.432 1016.48C721.284 1013.07 719.202 1006.07 714.375 995.356C709.17 984.046 706.615 977.54 706.615 975.838C706.237 973.236 708.602 970.833 713.145 968.932Z" fill="#482C1C"/>
<path d="M360.817 1052.21C362.615 1050.41 363.372 1047.6 362.899 1043.9L361.669 1038.7L372.93 1031.09L372.079 1037.9C370.943 1046.9 370.375 1053.11 370.375 1056.51C370.375 1059.92 368.388 1061.62 364.318 1061.62C362.52 1061.62 359.397 1061.02 354.95 1059.92L348.704 1058.21C353.909 1057.01 357.978 1055.01 360.817 1052.21Z" fill="#57361E"/>
<path d="M456.777 998.959L458.197 1003.86C459.238 1007.67 459.9 1010.87 460.279 1013.37C460.658 1015.77 459.995 1018.58 458.386 1021.98C456.21 1026.28 455.074 1028.49 455.074 1028.59C454.506 1030.89 453.087 1034.19 450.721 1038.7C450.058 1040.2 449.68 1042 449.68 1044.3C449.68 1045 449.869 1047.1 450.342 1050.61C450.532 1052.31 449.207 1053.11 446.178 1053.01C442.298 1052.51 439.459 1052.31 437.661 1052.31C435.484 1052.31 432.361 1052.01 428.292 1051.51L422.898 1050.71L429.806 1048.2L446.273 1032.09C447.314 1031.09 447.976 1029.79 448.166 1028.39L448.828 1024.48C450.91 1016.88 452.33 1012.37 453.181 1010.97C454.695 1008.17 454.601 1003.96 452.803 998.259L449.68 990.651L456.777 998.959Z" fill="#57361E"/>
<path d="M415.8 1048.2L417.882 1043.8C419.018 1043.1 420.343 1042.3 421.857 1041.4C424.885 1039.7 427.251 1038.5 429.144 1037.8C430.942 1037.09 432.172 1036.29 432.74 1035.39C433.592 1034.19 434.349 1032.99 435.201 1031.79C437.283 1028.99 438.986 1025.28 440.405 1020.78L449.017 1013.17L448.355 1017.28C447.503 1020.68 446.084 1024.08 443.812 1027.59C441.352 1031.49 438.607 1034.89 435.295 1037.59C432.551 1040.1 430.185 1041.5 428.197 1042C426.778 1042.3 424.317 1043.5 420.721 1045.4C419.018 1046.4 417.314 1047.3 415.8 1048.2Z" fill="#57361E"/>
<path d="M495.673 981.944L494.159 986.348C492.739 989.751 491.603 992.453 490.562 994.655C489.616 996.457 489.143 997.858 489.048 998.759C488.859 999.56 488.48 1000.46 488.007 1001.46C487.818 1002.06 487.345 1003.16 486.588 1004.86C486.209 1005.77 485.547 1006.87 484.506 1008.27C483.37 1009.77 482.329 1010.07 481.572 1009.27C480.626 1007.77 479.869 1006.67 479.301 1005.67C478.354 1004.36 478.354 1002.36 479.112 999.76C480.058 996.958 481.856 994.355 484.506 992.153L495.673 981.944Z" fill="#57361E"/>
<path d="M509.3 971.534C508.259 974.437 506.272 975.738 503.433 975.237C500.688 974.937 500.026 973.636 501.54 971.334C502.96 969.232 504.663 967.931 506.934 967.63C509.679 967.13 510.436 968.431 509.3 971.534Z" fill="#57361E"/>
<path d="M538.069 964.227C544.315 964.527 547.817 966.029 548.574 968.631C549.237 970.933 548.101 972.835 544.978 974.336C543.274 975.237 542.423 975.437 542.517 974.837C542.707 973.335 542.139 972.034 540.625 970.933C538.827 969.632 535.798 968.131 531.634 966.729L525.956 965.028L527.47 964.327C529.458 963.927 532.959 963.827 538.069 964.227Z" fill="#57361E"/>
<path d="M693.65 997.258L694.123 1003.66C694.218 1008.27 693.745 1011.47 692.704 1013.27C691.473 1015.27 690.338 1016.58 689.391 1017.18C688.54 1017.48 686.836 1017.88 683.997 1018.38C681.821 1018.68 677.562 1018.68 671.221 1018.18L662.42 1017.48C671.6 1015.17 677.373 1013.57 679.739 1012.37C685.511 1009.57 688.634 1007.27 689.202 1005.57C690.243 1002.86 691.663 1000.06 693.65 997.258Z" fill="#57361E"/>
<path d="M653.903 1012.47C657.689 1013.27 658.919 1014.77 657.499 1017.08C656.364 1019.08 654.566 1020.38 652.105 1020.98C650.686 1021.28 649.171 1020.88 647.468 1019.68L645.197 1017.68C645.859 1016.68 646.711 1015.67 647.752 1014.77C649.929 1012.77 651.916 1012.07 653.903 1012.47Z" fill="#57361E"/>
<path d="M300.25 1010.77C302.049 1008.67 304.225 1008.67 306.686 1010.97C307.916 1012.07 308.957 1013.47 309.809 1015.07L307.916 1017.08C306.402 1018.68 304.698 1019.98 302.9 1020.98C301.102 1021.98 299.777 1022.08 299.115 1021.18L298.642 1019.28C297.885 1015.77 298.452 1012.87 300.25 1010.77Z" fill="#57361E"/>
<path d="M617.563 944.709C618.415 938.604 619.74 935.601 621.727 935.601C623.525 935.601 624.755 937.202 625.323 940.505C625.891 943.908 626.175 947.312 626.175 950.615V959.923C626.175 961.625 626.08 963.226 625.796 964.628C625.418 966.029 625.323 967.53 625.323 969.232C625.323 971.634 625.229 973.135 625.134 973.936C625.039 974.236 624.472 975.838 623.62 978.54C623.052 980.342 622.2 981.743 621.065 982.644C619.929 983.645 619.077 984.846 618.51 986.248C617.469 988.85 616.806 990.351 616.428 990.652C615.576 991.452 613.399 992.253 609.898 993.054C606.68 993.754 603.936 993.955 601.759 993.755L599.488 993.054L604.693 988.85C608.194 985.447 611.317 982.044 614.156 978.741C615.86 976.739 616.806 975.137 616.901 974.036C617.09 971.334 617.374 969.532 617.563 968.631C618.131 966.629 618.226 962.926 617.942 957.621C617.374 951.616 617.185 947.312 617.563 944.709Z" fill="#57361E"/>
<path d="M629.487 926.592L627.216 925.792C628.446 924.39 629.866 923.089 631.38 921.688C634.408 918.885 636.49 917.184 637.626 916.783C638.761 916.383 639.897 915.082 641.127 913.08C642.736 910.277 643.682 908.676 644.061 908.375C645.102 907.074 645.764 905.773 645.954 904.672C646.143 903.871 646.332 902.47 646.332 900.468C646.332 898.967 646.143 897.866 645.859 897.065C645.196 895.864 644.439 894.563 643.588 893.161L649.077 897.065C652.767 899.868 654.755 901.769 654.944 902.67C655.133 903.271 655.322 904.172 655.322 905.573C655.417 906.574 655.701 907.575 656.174 908.476C656.363 909.076 657.026 909.877 657.878 910.978C658.54 911.879 659.108 912.88 659.581 913.981C660.054 915.082 660.243 916.483 660.054 918.184C659.676 921.087 659.581 922.689 659.581 922.889C659.581 924.19 659.202 925.191 658.351 925.591C657.121 926.292 656.363 926.692 656.079 926.893C655.512 927.693 654.66 928.194 653.619 928.394C652.767 928.494 651.159 928.594 648.603 928.594C644.723 928.594 640.654 928.394 636.49 927.893C633.935 927.793 631.569 927.293 629.487 926.592Z" fill="#482C1C"/>
<path d="M701.126 941.506C702.262 942.607 703.587 945.71 705.101 950.615C706.047 952.616 706.331 954.018 705.952 954.818C705.385 956.42 705.101 957.421 705.101 957.821C705.101 959.223 704.722 960.424 703.87 961.525C702.167 964.227 701.221 965.628 701.126 965.729C700.18 967.33 698.949 967.931 697.53 967.63C695.826 966.93 694.502 966.529 693.744 966.229L685.606 965.028C683.618 964.828 681.442 964.227 679.076 963.326C676.805 962.426 675.29 961.725 674.723 961.124C676.994 960.324 679.36 959.423 681.631 958.222C683.051 957.521 683.902 956.62 684.186 955.319C684.754 953.517 685.227 952.416 685.606 952.116C686.268 951.215 686.552 949.113 686.458 945.81C686.458 942.207 686.552 940.105 686.836 939.504C687.782 937.703 687.025 935.801 684.754 933.899C681.915 931.897 680.022 930.296 679.171 929.295C677.94 927.693 676.805 925.491 675.858 922.689C674.817 919.786 675.007 918.385 676.331 918.585C678.13 918.885 679.549 919.085 680.306 919.085C683.808 917.284 686.647 915.382 688.918 913.48C690.054 912.479 690.811 911.578 691.189 910.678L690.716 925.792L695.353 935.401L701.126 941.506Z" fill="#482C1C"/>
<path d="M602.043 882.952C597.406 881.25 595.513 879.248 596.175 876.846L598.636 873.844L604.882 876.746C606.869 877.847 609.14 879.148 611.79 880.65L617.373 883.653C620.213 885.254 622.294 886.655 623.43 888.057C624.471 889.158 624.471 889.558 623.43 889.258C620.591 888.157 617.657 887.356 614.818 886.855C611.506 886.455 609.33 885.955 608.383 885.454C605.355 884.253 603.273 883.352 602.043 882.952Z" fill="#482C1C"/>
<path d="M502.581 944.709C502.581 945.009 505.894 946.611 512.613 949.313C518.48 951.816 520.089 953.918 517.25 955.719C512.613 958.622 505.704 962.425 496.525 966.93L489.616 971.534C486.777 973.436 483.181 978.941 478.922 987.949C476.84 992.453 475.042 996.757 473.339 1000.86C470.311 988.85 469.553 979.842 471.068 973.736C472.203 969.232 473.15 966.329 473.812 965.128C474.664 963.827 476.746 961.424 480.247 958.021C483.086 955.219 487.723 952.116 494.064 948.913L502.581 944.709Z" fill="#714325"/>
<path d="M540.246 985.046C538.542 987.549 535.419 989.451 530.877 990.852C523.779 992.854 518.385 994.755 514.789 996.457C510.152 998.759 508.164 999.86 508.732 999.86C510.436 999.86 510.152 1000.96 507.88 1003.26C501.918 1009.17 498.511 1012.37 497.849 1012.87C493.685 1016.08 488.669 1018.08 482.613 1018.98C476.84 1019.88 476.651 1019.08 482.14 1016.48L491.792 1012.27C492.171 1010.37 493.023 1007.97 494.348 1004.96C496.997 998.859 500.783 992.954 505.609 987.349C502.959 984.146 505.988 980.442 514.789 976.138C519.521 973.836 525.483 973.936 532.77 976.338C540.151 978.741 542.612 981.643 540.246 985.046Z" fill="#714325"/>
<path d="M397.252 1041.4L401.889 1021.08V996.357L413.435 982.844L422.614 980.442C426.4 979.241 431.321 980.142 437.283 983.345C443.15 986.348 442.866 988.449 436.431 989.651C430.564 990.551 426.778 992.553 425.169 995.756C424.223 997.658 423.371 1000.86 422.614 1005.37C421.195 1009.87 412.772 1021.88 397.252 1041.4Z" fill="#714325"/>
<path d="M332.805 1018.88C337.442 1021.88 345.108 1024.88 355.801 1027.89C348.23 1027.89 338.956 1029.39 328.168 1032.49C321.449 1034.39 314.824 1037.19 308.294 1041C305.077 1042.9 302.427 1044.6 300.534 1046.1C305.171 1037.09 311.323 1028.79 319.083 1021.18C323.341 1015.87 325.613 1013.17 325.991 1013.07C326.275 1012.87 328.546 1014.87 332.805 1018.88Z" fill="#714325"/>
<path d="M639.329 946.611C643.209 944.809 649.834 947.312 659.013 954.018C663.65 957.421 667.814 960.924 671.6 964.728L655.512 969.332C650.118 970.833 647.941 971.634 649.077 971.834C652.578 972.435 653.903 973.836 653.051 976.038C651.537 980.542 644.629 993.354 632.326 1014.27C630.15 1009.87 628.257 1005.16 626.837 1000.06C625.134 993.855 624.661 988.85 625.418 984.946C626.27 981.243 626.837 979.141 627.121 978.641C628.257 977.64 629.96 974.437 632.326 969.132C634.408 964.227 634.692 959.323 633.178 954.418C632.326 951.616 634.408 949.013 639.329 946.611Z" fill="#714325"/>
<path d="M590.971 935.401C597.501 931.097 603.557 929.495 609.141 930.496C614.535 931.597 615.387 933.999 611.696 937.603C609.425 939.905 607.816 939.805 607.059 937.402C606.491 935.801 604.977 937.402 602.516 942.107C599.677 947.712 595.324 952.416 589.551 956.12C586.712 958.021 584.062 959.323 581.791 960.023C584.914 952.616 587.185 946.611 588.699 942.107C589.551 939.805 588.415 939.004 585.387 939.604C584.441 939.905 586.334 938.503 590.971 935.401Z" fill="#714325"/>
<path d="M224.353 1050.51C223.69 1053.81 219.621 1055.51 212.24 1055.71L201.356 1054.91C202.208 1050.01 204.101 1045.1 207.224 1040C213.375 1029.89 222.176 1024.28 233.722 1023.38C243.375 1022.58 252.649 1021.48 261.355 1020.18C267.696 1019.28 272.333 1018.78 275.172 1018.78H282.08C273.942 1018.98 265.519 1020.28 257.002 1022.68C238.17 1028.09 227.287 1037.39 224.353 1050.51Z" fill="#714325"/>
<path d="M586.428 901.569C589.646 900.868 591.538 901.969 591.917 904.772C592.106 906.173 592.012 907.575 591.538 909.176L585.482 912.579C582.927 914.081 580.277 917.184 577.532 921.888C576.302 924.29 575.167 926.492 574.22 928.694L575.072 919.386C575.545 914.982 576.965 910.978 579.425 907.374C581.886 903.971 584.157 901.969 586.428 901.569Z" fill="#714325"/>
<path d="M516.587 784.561C525.01 774.852 533.338 771.849 541.476 775.553C552.454 780.757 564 789.365 576.208 801.477C586.807 811.986 593.715 820.494 596.743 827C600.245 834.107 603.652 841.614 607.153 849.521L588.699 837.71L595.608 846.718C597.595 849.721 598.542 854.626 598.542 861.432C596.554 860.331 594.283 859.33 591.633 858.529C589.93 858.029 587.185 856.628 583.495 854.325L578.29 850.722V860.831C578.29 865.336 579.993 870.04 583.495 874.844L570.908 871.441C568.447 870.741 566.082 869.54 563.621 867.838L563.243 896.765L557.564 889.958C555.104 887.156 553.022 884.253 551.318 881.35L549.426 877.647L540.246 905.773C537.123 904.272 534.379 902.07 532.107 898.967L522.928 886.655V897.966C522.928 902.47 522.549 906.974 521.698 911.478L517.155 908.075C515.168 906.774 513.086 903.271 510.72 897.766L507.786 889.958V906.874C507.786 910.577 506.84 913.58 505.042 915.882C504.001 917.083 503.054 917.884 502.108 918.285L499.837 908.175C498.796 903.971 496.241 898.967 492.077 893.061L486.02 885.454V900.168C486.02 906.974 485.168 912.98 483.56 918.285L480.058 911.478C478.639 908.676 476.367 905.573 473.15 902.17L468.607 897.966L468.418 900.969C468.229 903.571 467.85 906.274 467.377 909.076L465.106 920.387L459.238 914.781C456.778 912.379 452.803 908.876 447.314 904.071L439.743 897.766V908.976C439.743 913.48 441.257 918.385 444.38 923.69L430.564 920.286C424.791 918.885 419.775 915.682 415.517 910.678L410.88 903.371L410.501 906.974C410.122 910.277 409.555 913.981 408.608 918.184C407.094 924.991 404.444 930.196 400.47 933.899L399.429 925.992C398.956 922.689 397.441 919.286 394.886 915.882L391.29 911.478L388.735 916.883C386.748 920.987 385.328 924.39 384.382 927.193C382.868 931.697 381.732 934.7 380.88 936.201L376.243 930.596C374.445 928.194 372.458 924.891 370.565 920.587L368.294 914.781L365.833 930.496C364.887 937.002 363.278 942.207 361.007 945.91C359.871 947.812 358.83 949.113 357.884 949.614V941.806C357.884 938.503 356.937 934.9 354.95 930.796L352.016 925.892L349.745 937.202C348.231 944.809 348.231 950.414 349.745 954.118L341.606 950.715C338.294 949.313 335.361 946.511 332.995 942.107L330.25 936.001L328.547 939.905C327.411 942.907 326.843 945.41 326.843 947.311C326.843 950.314 326.465 956.42 325.613 965.428L318.705 959.723C315.866 957.321 312.837 953.817 309.904 949.213L306.118 942.807L305.929 949.413C305.74 954.618 305.361 958.822 304.888 962.125L302.617 975.638L299.115 968.831C297.696 966.029 295.898 961.625 293.721 955.619L290.977 947.311V962.025C290.977 968.131 289.841 973.836 287.475 979.341C286.339 982.144 285.204 984.346 283.973 985.747L281.702 979.942C280.661 977.539 277.822 975.037 273.185 972.335L266.655 968.731V985.647L259.747 982.244C257.665 981.243 255.583 979.141 253.501 975.938C252.933 981.143 252.271 984.646 251.419 986.448L248.864 992.353C246.025 990.051 244.51 986.748 244.51 982.244V975.437L235.047 992.353C233.911 987.248 231.829 982.444 228.99 977.94L226.435 974.336L225.205 978.741C224.353 982.444 225.11 988.85 227.476 997.858L220.568 993.254C217.729 991.452 215.079 988.249 212.808 983.745L210.253 977.439L209.212 988.75C208.738 993.354 206.656 996.857 202.966 999.059C201.073 1000.16 199.369 1000.86 197.571 1001.06V997.658C197.571 996.257 196.625 994.255 194.827 991.352L191.893 987.449L186.026 998.759L188.486 1003.16C190.001 1006.17 190.284 1010.37 189.527 1015.67L179.117 1009.97C174.859 1007.57 170.695 1006.17 166.626 1005.77L161.799 1005.57L163.029 1008.97C163.881 1011.27 164.544 1015.77 165.301 1022.48L159.623 1019.08C157.162 1017.78 153.661 1016.38 148.929 1014.97L142.399 1013.27L141.926 1016.48C141.453 1019.38 141.263 1022.48 141.263 1025.78C141.263 1030.99 140.128 1033.99 137.762 1034.79L132.084 1031.39C129.623 1029.99 127.825 1028.29 126.595 1026.18L125.175 1023.48L122.904 1031.39C121.295 1036.69 120.16 1041.6 119.403 1046.1L114.765 1043.7C112.778 1042.8 111.075 1040.5 109.56 1036.79L107.857 1031.39L104.355 1036.99C102.084 1040.8 100.191 1045 98.6773 1049.51L91.769 1044.9C88.9299 1043 85.9016 1041.9 82.7786 1041.5H78.9932V1047.1C75.2078 1046.4 69.435 1046.1 61.6749 1046.1C57.0377 1046.1 53.5362 1046.4 50.9811 1047.1C47.101 1048.2 42.5585 1049.41 37.4482 1050.51C31.2023 1052.01 19.5621 1052.61 2.33848 1052.51C-15.6422 1052.21 -26.8092 1052.01 -31.0678 1052.01C-36.3674 1052.01 -39.9636 1050.51 -41.9509 1047.4L-43.1812 1042.7C-20.0901 1026.38 4.5151 1009.37 30.8237 991.953C83.2518 956.92 117.415 936.602 133.219 930.996L278.295 880.55C383.53 844.616 457.724 820.995 500.783 809.484C505.894 799.575 511.098 790.867 516.587 784.561Z" fill="#4E7436"/>
<path d="M466.43 740.42C506.083 753.632 534.568 767.845 551.886 783.06C568.731 797.873 576.586 811.085 575.356 822.796C574.409 833.606 565.419 845.217 548.385 857.528C542.612 861.632 531.066 864.735 513.843 867.037C489.616 870.04 470.026 873.743 455.074 877.847C408.513 890.959 371.984 901.869 345.486 910.678C302.333 924.991 268.642 938.904 244.132 952.316C203.817 974.437 161.799 995.056 118.267 1014.27C61.8639 1039.1 22.0224 1052.31 -1.35252 1053.91C-49.5219 1057.11 -93.0542 1052.81 -131.855 1041C-164.693 1031.09 -191.286 1016.88 -211.538 998.459C-229.518 982.044 -238.887 966.229 -239.739 950.715C-240.591 935.1 -232.547 925.491 -215.702 921.788C-139.426 904.472 -71.4774 880.95 -12.0463 851.223C7.92175 841.213 27.7005 829.903 47.4793 817.491C66.3118 805.18 78.8037 797.073 85.1443 793.069C128.582 765.744 178.549 746.025 234.857 733.814C276.686 724.806 320.124 720.302 365.265 720.302C392.993 720.402 426.778 727.108 466.43 740.42Z" fill="url(#paint12_linear)"/>
<path d="M521.981 1032.09L527.565 1038.9C531.256 1043.3 533.432 1049.71 534 1058.01L545.451 1048.91V1056.71C545.546 1060.02 549.426 1061.02 556.997 1059.92C560.782 1059.52 564.567 1058.61 568.448 1057.41C565.703 1059.42 562.485 1061.32 558.795 1063.22C551.318 1066.92 544.978 1068.42 539.962 1067.82C534.852 1067.22 531.918 1067.12 531.161 1067.32C529.458 1067.62 527.565 1067.82 525.483 1067.82L522.171 1062.22L523.212 1055.61C523.685 1052.91 523.685 1048.2 523.212 1041.4L521.981 1032.09Z" fill="#3D2718"/>
<path d="M295.613 1051.21L294.194 1048L300.251 1050.51C304.32 1052.21 306.307 1053.61 306.307 1054.71L307.159 1049.61C307.537 1047.5 306.875 1045 305.266 1042.2L302.806 1038.6L305.929 1040.1C308.2 1041.5 310.093 1043.2 311.418 1045.3C313.689 1048.71 316.055 1052.31 318.326 1056.31L320.029 1052.11C320.692 1050.31 322.111 1049.11 324.193 1048.4C325.234 1048.1 326.181 1047.9 326.938 1047.9L326.086 1053.01C325.518 1056.41 325.234 1058.91 325.234 1060.62C317.758 1060.02 311.701 1059.82 307.064 1059.82C304.225 1059.82 301.575 1059.72 299.304 1059.52L296.749 1059.01V1056.51C296.844 1055.51 296.465 1053.71 295.613 1051.21Z" fill="#3D2718"/>
<path d="M213.848 1042.1V1047.2C213.848 1050.61 213.565 1053.71 212.997 1056.51C208.17 1056.21 203.817 1055.71 200.032 1055.21C192.272 1054.01 190.852 1052.81 195.678 1051.81C198.328 1051.21 198.991 1048.51 197.571 1043.5L194.827 1036.19L197.95 1036.89C200.41 1037.9 202.492 1039.7 204.385 1042.1C207.224 1046 208.454 1048.3 207.886 1048.91L213.848 1042.1Z" fill="#3D2718"/>
<path d="M758.759 1024.98C756.866 1026.99 754.973 1028.99 753.27 1031.09V1029.39C753.27 1027.59 753.838 1025.38 754.973 1022.78L756.677 1019.18C757.434 1023.18 758.096 1025.08 758.759 1024.98ZM774.942 1001.46V1003.96C774.942 1006.27 775.226 1008.47 775.793 1010.77C769.642 1015.07 764.153 1019.68 759.327 1024.38C759.611 1023.88 759.895 1022.98 760.178 1021.78C760.841 1018.58 761.503 1013.87 762.071 1007.57L762.734 998.959L764.437 1002.36C765.573 1004.66 766.424 1009.17 766.992 1015.87L774.942 1001.46Z" fill="#3D2718"/>
<path d="M518.669 1042.1L517.628 1032.99L523.211 1039.8C526.902 1044.2 529.079 1050.61 529.647 1058.91L541.097 1049.81V1057.61C541.192 1060.92 542.517 1063.52 545.072 1065.52C546.302 1066.52 547.627 1067.22 548.858 1067.52L535.514 1068.52C530.404 1068.92 527.47 1069.12 526.524 1069.02C524.915 1068.72 523.022 1068.52 520.94 1068.52L517.628 1062.92L518.669 1056.31C519.142 1053.61 519.142 1048.91 518.669 1042.1Z" fill="#5E863B"/>
<path d="M291.45 1052.11L289.936 1048.91L295.992 1051.41C300.062 1053.11 302.049 1054.51 302.049 1055.61L302.901 1050.51C303.279 1048.4 302.617 1045.9 301.008 1043.1L298.547 1039.5L301.67 1041C303.942 1042.4 305.834 1044.1 307.159 1046.2C309.43 1049.61 311.796 1053.21 314.068 1057.21L315.771 1053.01C316.433 1051.21 317.853 1050.01 319.935 1049.31C320.976 1049.01 321.922 1048.81 322.679 1048.81L321.828 1053.91C321.26 1057.31 320.976 1059.82 320.976 1061.52C312.932 1062.12 306.591 1062.32 301.954 1062.32C299.115 1062.32 296.655 1061.92 294.667 1061.12L292.396 1059.72C290.693 1063.12 290.693 1062.22 292.396 1057.21C292.869 1056.31 292.491 1054.51 291.45 1052.11Z" fill="#5E863B"/>
<path d="M209.495 1042.9V1048C209.495 1051.41 209.211 1054.51 208.644 1057.31C203.817 1057.01 199.464 1056.51 195.679 1056.01C187.918 1054.81 186.499 1053.61 191.325 1052.61C193.975 1052.01 194.638 1049.31 193.218 1044.3L190.474 1036.99L193.597 1037.69C196.057 1038.7 198.139 1040.5 200.032 1042.9C202.871 1046.8 204.101 1049.11 203.533 1049.71L209.495 1042.9Z" fill="#5E863B"/>
<path d="M772.292 1013.27L769.737 1017.48C768.033 1020.28 765.384 1025.08 761.977 1031.89C760.273 1034.69 756.204 1036.99 749.863 1038.7C749.296 1035.89 749.012 1033.09 749.012 1030.19C749.012 1028.39 749.58 1026.18 750.715 1023.58L752.419 1019.98C753.554 1026.78 754.69 1027.59 755.92 1022.48C756.583 1019.28 757.245 1014.57 757.813 1008.27L758.475 999.66L760.179 1003.06C761.314 1005.37 762.166 1009.87 762.734 1016.58L770.494 1002.16V1004.66C770.589 1006.57 771.156 1009.37 772.292 1013.27Z" fill="#45642F"/>
<path d="M214.227 938.003C214.889 939.504 213.47 941.606 209.874 944.409C206.183 947.311 201.356 950.114 195.489 952.716C189.716 955.319 184.511 957.02 179.969 957.921C175.426 958.822 172.682 958.622 172.019 957.221C171.452 955.719 172.966 953.617 176.562 950.815C180.253 947.912 184.985 945.009 190.757 942.307C196.53 939.704 201.735 938.003 206.277 937.102C210.82 936.201 213.47 936.501 214.227 938.003Z" fill="url(#paint13_linear)"/>
<path d="M271.292 813.388C271.765 814.989 270.062 816.991 266.087 819.293C262.018 821.795 257.002 823.997 250.851 825.899C244.7 827.801 239.4 828.902 234.763 829.302C230.126 829.603 227.571 829.002 227.003 827.401C226.53 825.899 228.233 823.997 232.208 821.595C236.277 819.093 241.293 816.891 247.444 814.989C253.406 813.087 258.8 811.986 263.532 811.586C268.169 811.386 270.819 811.886 271.292 813.388Z" fill="url(#paint14_linear)"/>
<path d="M330.723 893.262C331.291 894.863 329.588 896.865 325.518 899.167C321.449 901.669 316.433 903.771 310.282 905.573C304.131 907.475 298.831 908.576 294.194 908.976C289.557 909.276 287.002 908.776 286.434 907.275C285.961 905.773 287.664 903.871 291.639 901.369C295.519 898.967 300.629 896.865 306.875 894.963C312.837 893.061 318.231 891.96 322.963 891.56C327.695 891.26 330.25 891.86 330.723 893.262Z" fill="url(#paint15_linear)"/>
<path d="M105.396 903.471C105.964 904.972 104.261 906.874 100.191 909.376C96.1219 911.879 91.1062 914.081 84.9549 915.982C78.9929 917.884 73.5987 918.985 68.8669 919.386C64.2298 919.686 61.6746 919.085 61.1068 917.484C60.6336 915.982 62.3371 914.081 66.3118 911.678C70.3811 909.176 75.3968 906.974 81.5481 905.072C87.5101 903.17 92.9043 902.069 97.6361 901.669C102.368 901.369 105.018 901.969 105.396 903.471Z" fill="url(#paint16_linear)"/>
<path d="M458.198 864.335C458.765 865.836 457.062 867.738 452.993 870.24C448.923 872.742 443.908 874.944 437.756 876.846C431.794 878.748 426.4 879.849 421.668 880.249C417.031 880.55 414.476 879.949 413.908 878.348C413.435 876.846 415.138 874.945 419.113 872.542C423.182 870.04 428.198 867.838 434.349 865.936C440.311 864.034 445.706 862.933 450.437 862.533C455.075 862.333 457.724 862.833 458.198 864.335Z" fill="url(#paint17_linear)"/>
<path d="M365.17 739.219C365.36 740.82 363.467 742.522 359.303 744.424C355.044 746.225 349.745 747.727 343.404 749.028C337.064 750.229 331.575 750.73 326.938 750.429C322.206 750.229 319.745 749.328 319.461 747.727C319.083 746.125 321.07 744.424 325.329 742.622C329.587 740.72 334.887 739.219 341.228 738.018C347.568 736.917 353.057 736.416 357.694 736.617C362.426 736.917 364.886 737.718 365.17 739.219Z" fill="url(#paint18_linear)"/>
<path d="M471.257 763.942C471.446 765.543 469.364 767.045 464.822 768.546C460.469 770.148 454.98 771.149 448.545 771.549C442.109 772.149 436.621 771.949 432.078 771.249C427.441 770.448 425.075 769.247 424.791 767.645C424.697 766.044 426.779 764.643 431.226 763.241C435.769 761.74 441.163 760.739 447.504 760.238C453.844 759.838 459.333 759.938 464.065 760.539C468.797 761.339 471.162 762.44 471.257 763.942Z" fill="url(#paint19_linear)"/>
<path d="M78.1411 995.056C78.7089 996.557 77.0055 998.459 72.9362 1000.86C69.0561 1003.36 64.0404 1005.57 57.8891 1007.47C51.7378 1009.37 46.3436 1010.47 41.6119 1010.87C36.9747 1011.17 34.4196 1010.57 33.8518 1008.97C33.3786 1007.47 35.1767 1005.57 39.246 1003.16C43.126 1000.66 48.1417 998.459 54.293 996.557C60.4443 994.655 65.8385 993.554 70.5703 993.154C75.1128 992.954 77.6679 993.554 78.1411 995.056Z" fill="url(#paint20_linear)"/>
<path d="M120.822 815.89C121.295 817.491 119.592 819.493 115.617 821.795C111.548 824.298 106.532 826.5 100.381 828.401C94.1348 830.303 88.7406 831.404 84.1034 831.805C79.4663 832.005 77.0058 831.404 76.5326 829.903C76.0594 828.401 77.7629 826.5 81.7375 824.097C85.6176 821.595 90.6333 819.393 96.7846 817.491C102.936 815.59 108.33 814.489 113.062 814.088C117.794 813.888 120.349 814.489 120.822 815.89Z" fill="url(#paint21_linear)"/>
<path d="M206.751 758.036C207.318 759.538 205.615 761.439 201.546 763.842C197.476 766.344 192.461 768.546 186.309 770.448C180.347 772.35 174.953 773.451 170.221 773.851C165.584 774.151 163.029 773.651 162.461 772.149C161.988 770.648 163.692 768.746 167.666 766.244C171.736 763.742 176.751 761.54 182.903 759.638C189.054 757.736 194.353 756.635 198.991 756.435C203.722 755.934 206.278 756.535 206.751 758.036Z" fill="url(#paint22_linear)"/>
<path d="M379.65 822.696C380.218 824.198 378.419 826.1 374.256 828.502C370.186 830.804 365.171 832.806 359.019 834.607C352.868 836.409 347.474 837.41 342.742 837.61C338.105 837.71 335.644 837.01 335.171 835.608C334.698 834.107 336.496 832.205 340.565 829.903C344.445 827.601 349.556 825.599 355.802 823.797C361.953 821.996 367.347 820.995 372.079 820.795C376.621 820.494 379.177 821.195 379.65 822.696Z" fill="url(#paint23_linear)"/>
<path d="M537.691 814.589C538.069 816.19 536.177 817.992 532.013 819.994C527.849 822.096 522.644 823.897 516.492 825.399C510.246 826.9 504.758 827.601 500.026 827.601C495.389 827.501 492.928 826.7 492.455 825.199C492.076 823.597 493.969 821.795 498.133 819.794C502.297 817.692 507.502 815.89 513.653 814.389C519.994 812.887 525.483 812.187 530.12 812.187C534.852 812.287 537.312 813.087 537.691 814.589Z" fill="url(#paint24_linear)"/>
<path opacity="0.1" d="M379.745 845.718C429.92 845.718 470.595 835.59 470.595 823.097C470.595 810.604 429.92 800.476 379.745 800.476C329.569 800.476 288.895 810.604 288.895 823.097C288.895 835.59 329.569 845.718 379.745 845.718Z" fill="#010101"/>
<path d="M447.788 827.701L443.718 830.203L443.529 830.403L435.296 830.603L417.41 823.397L398.956 818.092L393.562 797.773L395.833 794.67L396.022 794.57L396.117 791.467L416.274 792.368L416.085 798.274L435.958 813.087L445.138 818.993L447.788 827.701Z" fill="#534E5D"/>
<path opacity="0.2" d="M447.788 827.701L443.718 830.203L442.488 820.894L435.864 822.696L405.486 802.377V796.272L395.833 794.67L396.022 794.57L396.117 791.467L416.274 792.368L416.085 798.274L435.958 813.087L445.138 818.993L447.788 827.701Z" fill="#010101"/>
<path opacity="0.2" d="M424.318 803.879L414.287 806.381L415.423 807.682L425.643 804.98L424.318 803.879ZM420.344 800.776L419.303 799.975L407.946 802.277L409.271 803.679L420.722 801.176L420.344 800.776ZM428.766 807.382L419.965 810.084L421.006 811.286L430.091 808.383L428.766 807.382ZM436.81 813.588L429.713 816.39L430.564 817.391L438.041 814.288L436.81 813.588ZM432.93 810.585L425.075 813.287L426.022 814.388L434.066 811.486L432.93 810.585Z" fill="#010101"/>
<path d="M437.945 812.787L430.091 815.89L430.942 816.891L438.608 813.788L437.945 812.787ZM434.065 809.884L425.453 812.887L426.4 813.988L434.822 810.985L434.065 809.884ZM429.807 806.681L420.343 809.484L421.384 810.685L430.658 807.782L429.807 806.681ZM425.17 803.278L414.76 805.881L415.895 807.182L426.116 804.479L425.17 803.278ZM408.514 801.677L409.839 803.078L421.195 800.676L420.154 799.375L408.514 801.677Z" fill="#231F20"/>
<path opacity="0.1" d="M399.24 818.192L417.41 823.397L435.296 830.603V824.197L419.87 814.188L407.378 813.688L399.24 818.192Z" fill="#010101"/>
<path d="M368.578 797.773L363.183 818.092L344.729 823.397L326.843 830.603L318.61 830.403L318.421 830.203L314.257 827.701L317.001 818.993L326.086 813.087L346.054 798.274L345.865 792.969L345.77 792.368L353.436 792.068L365.833 791.467H366.022V791.567L366.117 794.57L366.212 794.67L368.578 797.773Z" fill="#534E5D"/>
<path opacity="0.2" d="M336.402 804.98L346.622 807.682L347.758 806.381L337.727 803.879L336.402 804.98ZM341.417 801.176L352.868 803.679L354.193 802.277L342.837 799.975L341.796 800.776L341.417 801.176ZM332.048 808.383L341.133 811.286L342.174 810.085L333.373 807.382L332.048 808.383ZM324.099 814.388L331.575 817.491L332.427 816.49L325.329 813.688L324.099 814.388ZM328.074 811.586L336.118 814.489L337.064 813.388L329.209 810.685L328.074 811.586Z" fill="#010101"/>
<path d="M323.437 813.788L331.102 816.891L331.954 815.89L324.099 812.787L323.437 813.788ZM327.222 810.985L335.645 813.988L336.591 812.887L327.979 809.884L327.222 810.985ZM331.386 807.882L340.66 810.785L341.701 809.584L332.238 806.781L331.386 807.882ZM335.928 804.479L346.149 807.182L347.285 805.881L336.875 803.278L335.928 804.479ZM341.985 799.375L340.944 800.676L352.3 803.078L353.625 801.677L341.985 799.375Z" fill="#231F20"/>
<path opacity="0.1" d="M362.899 818.192L344.729 823.397L326.843 830.603V824.198L342.269 814.188L354.761 813.688L362.899 818.192Z" fill="#010101"/>
<path opacity="0.2" d="M368.578 797.773L363.183 818.092L344.729 823.397L326.843 830.604L318.61 830.403L318.421 830.203L314.257 827.701L317.001 818.993L318.799 823.097H327.033L344.446 811.586L357.411 806.481L359.493 800.275L346.054 798.274L345.865 792.969L353.436 792.068L364.319 790.767L365.833 791.467L366.022 791.567L366.117 794.57L366.212 794.67L368.578 797.773Z" fill="#010101"/>
<path d="M356.18 704.987H411.542L394.129 559.152L364.508 565.058L356.18 704.987Z" fill="#534E5D"/>
<path opacity="0.5" d="M356.18 704.987H411.542L394.129 559.152L364.508 565.058L356.18 704.987Z" fill="#010101"/>
<path d="M416.653 784.361L415.233 796.573L393.372 795.972V794.971L393.751 780.758L396.211 781.358L395.265 720.202L394.508 673.058L383.719 571.965L380.313 571.765H379.839L376.338 571.965L366.59 663.449L365.644 673.058L365.36 690.675L364.887 716.298L364.792 724.005L363.846 779.056V781.358L366.307 780.758L366.685 795.972L344.824 796.573L343.405 784.361L347.001 783.16V782.96L348.326 716.999V714.497L349.178 674.159L351.543 552.347L351.638 550.245L351.733 543.639L370.944 541.537L379.082 540.636V540.436L380.029 540.536L380.975 540.436V540.636L408.325 543.639L411.353 696.68L413.056 781.459V782.96V783.16L416.653 784.361Z" fill="#76A8DA"/>
<path opacity="0.2" d="M396.211 781.359L405.769 777.955L402.079 720.903L395.265 720.202H395.17L394.508 673.058L383.719 571.965L380.313 571.765H379.839L376.338 571.965L366.59 663.449L365.644 673.058L365.36 690.675L364.887 716.298L364.792 724.005L363.846 781.359L347.001 783.16L355.991 776.654L358.073 718.801L348.326 716.999V714.497L349.178 674.159L351.543 552.347L351.638 550.245L351.733 543.639L370.944 541.537L379.082 540.636V540.436L380.029 540.536L380.975 540.436V540.636L408.325 543.639L411.258 696.88L411.353 696.68L413.056 782.96L396.211 781.359Z" fill="#010101"/>
<path opacity="0.2" d="M366.685 795.972L344.824 796.572L359.682 792.468L357.979 782.059L347.001 783.16L345.676 783.26L347.001 782.96L363.846 779.056V781.358L366.306 780.757L366.685 795.972Z" fill="#010101"/>
<path opacity="0.2" d="M416.653 784.361L415.233 796.572L393.373 795.972V794.971L409.082 792.168L409.839 782.959L396.212 781.358L413.057 781.458V782.959V783.16L416.653 784.361Z" fill="#010101"/>
<path opacity="0.2" d="M349.272 720.702L348.231 780.557L355.14 777.454L354.572 720.702H349.272Z" fill="white"/>
<path opacity="0.2" d="M396.4 725.306L397.82 776.453L403.971 776.754L402.079 725.306H396.4Z" fill="white"/>
<path opacity="0.2" d="M408.609 558.952L408.325 543.538L380.975 540.535V540.335L380.029 540.435L379.082 540.335V540.535L373.499 541.136L370.944 541.536L351.733 543.638L351.638 550.344V552.446L351.543 559.052L349.272 674.159L348.515 714.496L348.42 716.998H359.398C359.682 713.895 359.871 710.693 360.061 707.59C361.196 692.275 362.048 676.961 362.805 661.647C363.657 646.233 364.508 630.819 365.644 615.404C366.874 600.09 368.483 584.876 370.187 569.662C370.565 566.059 370.944 562.556 371.322 558.952L377.095 572.265L383.719 571.864L390.628 581.673C390.628 581.673 397.725 642.129 400.848 672.357C402.363 687.171 403.877 701.984 405.012 716.898H411.732L408.609 558.952Z" fill="#010101"/>
<path d="M390.628 408.913L386.937 421.525L381.826 426.73L378.42 426.93L376.243 424.628L373.215 421.525L372.836 420.224L372.741 420.024L370.754 413.117L369.618 409.514L369.429 408.913L369.902 408.813L371.7 408.613H388.356L390.628 408.913Z" fill="#F0A88F"/>
<path opacity="0.2" d="M390.628 408.913L386.937 421.525L381.827 426.73L378.42 426.93H377.947L376.244 424.628L372.837 420.224L372.553 419.924L372.742 420.024L380.029 422.526L385.612 419.824L386.937 414.519L379.84 416.921L370.755 413.117L369.619 409.514L369.903 408.813L369.998 408.613H388.357L390.628 408.913Z" fill="#7C1315"/>
<path d="M380.501 446.148L390.722 435.738L383.246 424.728H380.028H376.811L369.334 435.738L379.555 446.148V447.149L380.028 446.648L380.501 447.149V446.148Z" fill="#F1F7E6"/>
<path opacity="0.3" d="M390.722 435.738L383.246 424.728H381.637H380.028H378.42H376.811L369.334 435.738L372.931 439.341C374.445 437.139 375.959 435.038 377.473 432.936C378.325 431.734 379.177 430.533 380.028 429.332L386.085 437.64L390.722 435.738Z" fill="#010101"/>
<path d="M434.255 438.241L421.857 479.379L421.479 480.68L408.798 529.425L409.081 541.336L409.176 544.439H350.881L350.975 541.336L351.259 530.125V529.425L341.417 491.49L338.578 480.68L338.2 479.379L335.928 471.772L325.802 438.241L332.427 435.738L361.48 424.828L365.076 423.527L367.537 422.626L376.811 437.34L380.028 442.545L384.003 436.139L392.52 422.626L398.577 424.828L427.63 435.738L434.255 438.241Z" fill="#EBB81F"/>
<path opacity="0.2" d="M350.975 541.336L350.881 544.439L368.483 545.039L365.36 426.33L367.536 422.626L365.076 423.527L361.48 424.828L332.427 435.738L325.802 438.241L335.928 471.772L338.199 479.379L338.578 480.68L341.417 491.49L351.259 529.425V530.125L350.975 541.336Z" fill="#752F20"/>
<path d="M332.427 435.738L325.802 438.241L338.294 479.379L338.578 480.68L340.755 469.569L336.307 442.945L332.427 435.738ZM427.63 435.738L423.75 442.845L419.302 469.469L421.479 480.58L421.763 479.278L434.255 438.14L427.63 435.738ZM380.028 452.253L395.17 434.037L398.577 424.928L392.615 422.626L380.123 442.545L367.631 422.626L361.669 424.928L365.076 434.037L380.028 452.253ZM380.218 543.638H379.934L351.07 541.336L350.597 552.246L380.123 553.147L409.649 552.246L409.176 541.336L380.218 543.638Z" fill="#B32550"/>
<path opacity="0.2" d="M434.255 438.241L421.857 479.379L421.479 480.68L408.798 529.425L409.082 541.336L409.176 544.439H389.019L379.839 543.638V511.608L380.218 476.776L380.029 442.545L384.003 436.139L392.52 422.626L398.577 424.828L427.63 435.738L434.255 438.241Z" fill="#752F20"/>
<path opacity="0.2" d="M373.593 441.443L365.076 423.527L367.536 422.626L376.811 437.34L373.593 441.443Z" fill="#010101"/>
<path opacity="0.2" d="M434.255 438.241L421.857 479.379L421.479 480.68L408.798 529.425L409.081 541.336L409.176 544.439H350.881L350.975 541.336L351.259 530.125L380.123 539.634L399.996 528.124L408.135 486.485L380.218 478.378L350.975 484.683L341.417 491.49L338.578 480.68L338.199 479.379L335.928 471.772L350.691 482.181L380.218 476.776L411.353 480.78L417.409 445.948L393.467 433.136L388.546 439.642L384.003 436.139L392.52 422.626L398.577 424.828L427.63 435.738L434.255 438.241Z" fill="#752F20"/>
<path d="M393.845 422.626L387.504 419.924L380.028 424.728L372.552 419.924L366.211 422.626L372.836 436.339L380.028 424.928L387.22 436.339L393.845 422.626Z" fill="#F1F7E6"/>
<path opacity="0.1" d="M393.845 422.626L387.504 419.924L380.028 424.728L372.552 419.924L377.662 425.329L372.836 436.339L380.028 424.928L387.22 436.339L393.845 422.626Z" fill="#010101"/>
<path opacity="0.5" d="M371.7 421.025L376.148 425.429L373.025 434.337L373.214 425.529L371.7 421.025Z" fill="white"/>
<path d="M431.889 507.204L421.384 523.62L419.208 527.023L434.728 554.448L466.525 510.307L438.419 441.544L430.753 434.237L413.813 428.932L407.567 427.03L396.4 423.527L393.94 552.947L407.094 714.096L414.381 714.196H417.22L428.198 714.296L411.637 551.746L422.141 482.281L436.81 502.2L437.567 503.201L437.283 503.401L431.889 507.204ZM363.089 423.527L351.922 427.03L345.676 428.932L328.736 434.237L321.071 441.544L292.964 510.307L324.761 554.348L324.856 554.448L340.376 527.023L327.695 507.204L322.017 503.201L337.443 482.281L345.013 532.127L348.042 551.846L345.96 571.964L331.197 714.196L342.174 714.096H345.013L352.3 713.996L365.455 552.847L363.089 423.527Z" fill="#534E5D"/>
<path opacity="0.2" d="M437.283 503.401L437.567 503.201L436.904 502.2L422.141 482.281L411.637 551.746L428.293 714.196L417.315 714.096H414.476L407.189 713.996L394.035 552.947L396.401 423.527L407.568 426.93L413.813 428.932L430.753 434.237L438.419 441.544L466.525 510.207L434.728 554.448L419.208 527.023L421.384 523.62L431.889 507.204L437.283 503.401Z" fill="#010101"/>
<path opacity="0.2" d="M358.262 536.431L352.016 426.93L345.77 428.832L353.436 534.83L345.013 532.027L348.041 551.746L345.959 571.864L353.341 577.57L342.363 714.096H345.202L359.398 556.55L358.262 536.431ZM404.633 556.55L413.813 428.932L407.567 427.03L400.186 556.55L414.475 714.096H417.315L404.633 556.55Z" fill="#010101"/>
<path opacity="0.2" d="M466.525 510.207L434.728 554.448L419.208 527.023L421.384 523.619L430.942 529.625L454.317 512.309L453.939 500.999L437.283 503.401L437.567 503.201L436.904 502.2L450.059 493.492L435.674 455.356L428.86 459.26L422.141 482.281L422.898 457.458L430.753 434.237L438.418 441.544L466.525 510.207Z" fill="#010101"/>
<path opacity="0.2" d="M340.281 527.023L324.761 554.448V554.348L331.48 528.224L322.111 508.406L305.55 507.004L330.629 475.475L332.332 449.351L337.348 482.281L321.922 503.201L327.6 507.204L340.281 527.023Z" fill="#010101"/>
<path opacity="0.1" d="M434.065 463.964L447.882 490.689L443.056 494.993L428.198 475.175L434.065 463.964Z" fill="white"/>
<path opacity="0.1" d="M321.354 444.747L324.477 455.757L299.02 509.406H305.077L323.626 550.544L294.383 510.007L321.354 444.747Z" fill="white"/>
<path opacity="0.1" d="M359.682 425.128L352.679 427.631L359.776 550.444L359.682 425.128Z" fill="white"/>
<path opacity="0.1" d="M397.157 425.128L404.066 427.33L396.116 518.615L397.157 425.128Z" fill="white"/>
<path opacity="0.1" d="M450.437 503.301L438.513 504.602L433.687 507.304L423.845 523.119L440.217 507.104L450.437 503.301Z" fill="white"/>
<path opacity="0.1" d="M345.581 595.886L339.998 712.394H333.089L345.581 595.886Z" fill="white"/>
<path d="M350.503 536.232V567.461L338.957 566.66L330.251 561.555L326.749 560.254L327.411 557.551L334.131 557.251L343.405 558.853V556.45L338.578 549.544L339.241 538.634L335.266 535.931L338.105 531.027L339.43 528.324L340.093 529.025L343.783 533.329L350.503 536.232Z" fill="#FBC7B4"/>
<path opacity="0.1" d="M343.783 533.329L341.985 531.127L340.093 528.925L339.809 528.625L339.525 528.324L338.011 530.927L338.105 531.027L335.361 535.931L337.916 537.633C338.862 536.332 339.809 535.031 340.755 533.629L343.31 536.332L347.474 539.034L344.162 550.645L346.812 563.056L343.405 558.753L334.131 557.151L327.411 557.551L326.749 560.254L330.251 561.555L338.862 566.66L350.408 567.461V536.332L343.783 533.329Z" fill="#7C1315"/>
<path opacity="0.2" d="M346.717 563.156L336.307 558.952L327.411 557.551L334.13 557.351L343.405 558.952V558.552L346.717 563.156Z" fill="#010101"/>
<path d="M408.987 536.232V567.461L420.533 566.66L429.145 561.555L432.741 560.254L432.078 557.551L425.359 557.251L416.085 558.853V556.45L420.817 549.544L420.249 538.634L424.318 535.831L421.479 530.927L419.965 528.324L419.397 529.025L415.706 533.329L408.987 536.232Z" fill="#FBC7B4"/>
<path opacity="0.1" d="M432.078 557.551L425.359 557.251L416.085 558.852L412.678 563.156L415.328 550.745L412.016 539.134L416.18 536.431L419.397 533.028C420.249 534.53 421.006 536.031 421.858 537.432L424.224 535.731L421.384 530.826L419.87 528.224L419.302 528.924L417.978 530.526L415.612 533.328L408.893 536.231V567.36L420.438 566.559L429.05 561.454L432.551 560.153L432.078 557.551Z" fill="#7C1315"/>
<path opacity="0.2" d="M412.678 563.156L423.088 558.952L432.078 557.551L425.359 557.351L416.085 558.952V558.552L412.678 563.156Z" fill="#010101"/>
<path d="M432.552 317.229V291.305L429.902 290.504V317.229H432.552Z" fill="#FFDE11"/>
<path d="M432.552 317.329V291.305L429.902 290.504V317.329H432.552Z" fill="#FFDE11"/>
<path opacity="0.3" d="M429.902 310.723V317.329H432.552V310.122C431.7 310.322 430.754 310.522 429.902 310.723Z" fill="#DF5E26"/>
<path opacity="0.3" d="M432.552 296.71V291.305L429.902 290.504V297.811C430.754 297.41 431.7 297.01 432.552 296.71Z" fill="#DF5E26"/>
<path opacity="0.3" d="M432.552 314.127V291.306L430.943 290.806V314.127H432.552Z" fill="#DF5E26"/>
<path d="M431.416 320.332L436.716 318.53L436.432 312.925L431.322 311.323L426.306 312.925L425.927 318.53L431.227 320.332L431.322 320.432L431.416 320.332Z" fill="#FFDE11"/>
<path opacity="0.3" d="M436.716 318.53V318.43L436.432 312.925L431.322 311.323L431.038 316.828L425.927 318.53L430.943 320.231L431.227 320.332L431.322 320.432L431.416 320.332L436.716 318.53Z" fill="#DF5E26"/>
<path opacity="0.3" d="M436.716 318.53V318.43L431.038 316.828L425.927 318.53L430.943 320.231L431.227 320.332L431.322 320.432L431.416 320.332L436.716 318.53Z" fill="#DF5E26"/>
<path d="M438.04 336.346L435.391 337.447L431.132 337.347L426.873 337.447L424.224 336.346L425.927 324.535L427.82 319.03L431.132 318.33L434.444 319.03L436.337 324.535L438.04 336.346Z" fill="#FFDE11"/>
<path opacity="0.3" d="M436.337 324.535L434.444 319.03L431.227 318.33V337.347L435.39 337.447L438.04 336.346L436.337 324.535Z" fill="#DF5E26"/>
<path opacity="0.2" d="M438.04 336.346L435.391 337.447L431.132 337.347L426.873 337.447L424.224 336.346L431.321 334.745L438.04 336.346Z" fill="#DF5E26"/>
<path d="M415.896 293.507L414.949 302.115L411.259 334.745L349.272 333.944L345.108 314.026L343.594 307.019L415.896 293.507Z" fill="#534E5D"/>
<path opacity="0.2" d="M415.896 293.507L343.594 307.019L345.108 314.026L380.218 308.02V334.344L411.259 334.745L411.921 328.539L414.949 302.115L415.896 293.507Z" fill="#010101"/>
<path opacity="0.2" d="M407.852 298.912L415.423 297.31L415.896 293.507L380.407 300.113L343.5 307.319L344.635 312.024L380.029 304.317L380.407 334.344L408.514 334.645L407.852 298.912Z" fill="#010101"/>
<path d="M327.033 310.422L433.876 292.105V287.701L326.654 306.819L327.033 310.422Z" fill="#534E5D"/>
<path opacity="0.2" d="M327.034 310.422L433.878 292.105V287.701L327.034 310.422Z" fill="#010101"/>
<path opacity="0.2" d="M346.528 315.227L358.168 313.225L350.124 332.142L346.528 315.227Z" fill="white"/>
<path d="M421.573 368.576L416.369 365.373L411.353 366.574L409.271 371.479L411.258 380.087L415.611 381.488L419.681 379.586L422.047 368.776L421.573 368.576ZM348.704 366.574L343.688 365.373L338.105 368.776L340.471 379.486V379.586L344.54 381.488L348.61 380.187L348.893 380.087L348.988 379.486L350.786 371.479L348.704 366.574Z" fill="#F0A88F"/>
<path opacity="0.2" d="M343.689 365.473L338.105 368.876L344.067 367.275L347.852 370.278L347.19 373.18L342.931 372.079L346.433 375.082L344.919 379.486L340.471 379.386V379.486L344.54 381.388L348.61 380.087L348.988 379.386L350.786 371.379L348.704 366.474L343.689 365.473ZM412.205 374.281L417.126 371.379L412.772 371.178L415.044 367.175L421.668 368.576L416.463 365.373L411.448 366.574L409.366 371.479L411.353 380.087L415.706 381.488L419.775 379.586L415.328 379.786L412.205 374.281Z" fill="#7C1315"/>
<path d="M422.804 340.951L409.555 372.68L406.905 370.878L380.218 352.962H379.839L353.72 370.378L350.408 372.68L337.253 340.951L356.748 329.44L357.6 328.939L365.833 321.132L366.685 320.331L379.745 302.215L380.029 301.914L380.313 302.215L393.372 320.331L402.457 328.939L422.804 340.951Z" fill="#DF5E26"/>
<path opacity="0.2" d="M422.804 340.952L409.555 372.681L406.905 370.88L398.483 348.159L368.862 340.552L353.72 370.379L350.408 372.681L337.253 340.952L350.786 346.757L359.114 337.449L365.833 321.134L371.228 330.943L379.65 332.444L387.221 329.441L380.313 302.216L393.372 320.333L402.457 328.941L422.804 340.952Z" fill="#231F20"/>
<path d="M412.867 384.991L400.47 407.812L379.934 412.917L379.65 413.017L379.366 412.917L358.925 407.812L346.433 384.991L360.25 338.448L379.555 341.151L379.65 341.251L399.05 338.448L412.867 384.991Z" fill="#FBC7B4"/>
<path opacity="0.05" d="M362.521 357.366L355.991 370.578L361.291 374.882L375.865 373.38L377.852 366.975L371.795 355.964L362.521 357.366ZM399.05 338.448L379.745 334.845L379.271 368.476L381.637 373.38L384.855 384.591H374.256L380.596 389.996L391.101 393.799C388.924 395.101 385.328 396.702 379.839 397.403L380.029 412.817L400.564 407.612L413.056 384.791L399.05 338.448ZM388.546 373.581L400.564 374.882L405.391 370.878L409.744 385.191L401.038 388.695L388.546 373.581Z" fill="#7C1315"/>
<path opacity="0.05" d="M405.391 370.878L400.564 374.882L388.546 373.581L400.943 388.795L409.649 385.292L405.391 370.878ZM399.05 338.448L379.745 341.151H379.65L379.271 368.476L381.637 373.381L384.855 384.591L379.745 385.992L380.502 389.896L391.006 393.699C388.83 395.001 385.234 396.602 379.745 397.303L379.934 412.717L400.47 407.512L412.962 384.691L399.05 338.448Z" fill="#7C1315"/>
<path opacity="0.1" d="M371.795 356.065L362.521 357.366L355.991 370.578L362.71 367.775L369.713 366.874L377.852 367.075L371.795 356.065ZM396.779 357.366L387.505 356.065L381.448 367.075L389.587 366.874L396.59 367.775L403.309 370.578L396.779 357.366ZM379.839 401.306L382.773 399.004H376.716L379.839 401.306Z" fill="#7C1315"/>
<path d="M384.855 384.691L381.449 386.092L380.786 386.393H378.231L374.162 384.691L375.108 374.381L377.568 366.474H381.449L383.814 374.381L384.761 384.591L384.855 384.691Z" fill="#E88876"/>
<path opacity="0.1" d="M384.76 384.591L381.448 386.092L380.785 386.393H380.028H379.555V366.474H381.448L383.814 374.381L384.76 384.591Z" fill="#231F20"/>
<path opacity="0.2" d="M379.272 371.379L379.177 386.092H378.42L374.729 384.491L377.663 384.291L379.272 371.379Z" fill="white"/>
<path opacity="0.2" d="M370.187 353.262L362.805 356.265L366.117 347.056L370.187 353.262Z" fill="white"/>
<path opacity="0.2" d="M360.723 342.452L352.017 386.393L364.982 405.21L379.083 411.916L360.061 407.112L347.758 385.392L360.723 342.452Z" fill="white"/>
<path d="M365.928 391.797C365.928 391.697 365.928 391.697 365.928 391.797C365.928 391.697 365.928 391.697 365.928 391.797ZM388.925 394.8C383.247 396.802 376.717 396.802 371.039 394.8C367.348 393.499 366.117 392.098 365.928 391.797C369.051 396.302 379.083 397.403 379.934 397.503C380.881 397.403 390.817 396.302 393.94 391.797C393.94 391.998 392.71 393.399 388.925 394.8ZM394.13 391.797C394.13 391.697 394.13 391.697 394.13 391.797C394.13 391.697 394.13 391.697 394.13 391.797Z" fill="#C0543F"/>
<path d="M362.899 357.366L363.846 358.467L372.174 356.064L371.795 353.662L362.899 357.366ZM388.356 353.562L387.978 355.964L396.306 358.367L397.252 357.266L388.356 353.562Z" fill="#692D12"/>
<path d="M366.117 364.172C364.698 364.172 363.562 365.073 363.562 366.274C363.562 367.475 364.698 368.376 366.117 368.376C367.537 368.376 368.672 367.475 368.672 366.274C368.672 365.173 367.537 364.172 366.117 364.172ZM393.94 364.172C392.52 364.172 391.385 365.073 391.385 366.274C391.385 367.475 392.52 368.376 393.94 368.376C395.359 368.376 396.495 367.475 396.495 366.274C396.495 365.173 395.359 364.172 393.94 364.172Z" fill="#424143"/>
<path d="M364.035 366.874C364.61 366.874 365.076 366.471 365.076 365.974C365.076 365.476 364.61 365.073 364.035 365.073C363.46 365.073 362.994 365.476 362.994 365.974C362.994 366.471 363.46 366.874 364.035 366.874Z" fill="white"/>
<path d="M391.953 366.874C392.528 366.874 392.994 366.471 392.994 365.974C392.994 365.476 392.528 365.073 391.953 365.073C391.378 365.073 390.912 365.476 390.912 365.974C390.912 366.471 391.378 366.874 391.953 366.874Z" fill="white"/>
<path opacity="0.2" d="M380.407 303.015L380.123 331.942L372.079 330.241L380.407 303.015Z" fill="white"/>
<path d="M331.734 1017.94L329.194 1022.15C327.501 1024.96 324.868 1029.77 321.485 1036.59C319.792 1039.4 315.73 1041.72 309.396 1043.44C308.818 1040.64 308.524 1037.84 308.514 1034.94C308.508 1033.13 309.068 1030.93 310.194 1028.32L311.885 1024.71C313.044 1031.52 314.183 1032.31 315.395 1027.2C316.046 1024 316.692 1019.29 317.237 1012.98L317.869 1004.37L319.585 1007.77C320.729 1010.07 321.596 1014.57 322.188 1021.27L329.897 1006.83L329.906 1009.34C330.007 1011.24 330.585 1014.04 331.734 1017.94Z" fill="#45642F"/>
<path d="M432 912.605C320 897.408 99.3333 993.869 3 1044H760C697.333 1006.53 544 927.803 432 912.605Z" fill="#4E7436"/>
<path d="M418.328 959.613L415.788 963.825C414.095 966.634 411.462 971.448 408.079 978.266C406.386 981.075 402.325 983.391 395.99 985.115C395.412 982.315 395.119 979.513 395.108 976.611C395.102 974.809 395.662 972.605 396.788 969.998L398.479 966.389C399.639 973.191 400.777 973.988 401.989 968.879C402.64 965.674 403.286 960.967 403.832 954.659L404.464 946.049L406.179 949.446C407.323 951.744 408.19 956.245 408.782 962.949L416.491 948.509L416.5 951.011C416.601 952.912 417.179 955.713 418.328 959.613Z" fill="#45642F"/>
<path d="M654.891 951.859L651.078 948.751C648.536 946.678 644.141 943.394 637.867 939.084C635.325 937.012 633.604 932.665 632.789 926.151C635.643 925.973 638.458 926.077 641.333 926.476C643.118 926.723 645.221 927.588 647.643 929.071L650.978 931.253C644.08 931.443 643.131 932.458 648.018 934.377C651.1 935.474 655.669 936.776 661.837 938.205L670.272 940.043L666.667 941.263C664.231 942.072 659.653 942.297 652.932 941.938L666.143 951.604L663.664 951.261C661.767 951.093 658.913 951.271 654.891 951.859Z" fill="#45642F"/>
<path d="M579.183 893.552L575.37 890.444C572.828 888.371 568.433 885.087 562.159 880.777C559.617 878.705 557.896 874.358 557.081 867.844C559.935 867.666 562.75 867.77 565.625 868.169C567.41 868.416 569.513 869.281 571.935 870.764L575.27 872.946C568.372 873.136 567.423 874.151 572.31 876.07C575.392 877.167 579.961 878.469 586.129 879.898L594.564 881.736L590.959 882.956C588.523 883.765 583.945 883.99 577.224 883.631L590.435 893.297L587.956 892.954C586.059 892.786 583.205 892.964 579.183 893.552Z" fill="#45642F"/>
<path d="M763.611 1082.62C769.413 1089.42 775.15 1091.52 780.757 1088.93C788.319 1085.28 796.272 1079.25 804.682 1070.77C811.984 1063.42 816.743 1057.46 818.829 1052.9C821.241 1047.93 823.588 1042.67 826 1037.13L813.288 1045.4L818.047 1039.1C819.416 1036.99 820.068 1033.56 820.068 1028.8C818.698 1029.57 817.134 1030.27 815.308 1030.83C814.135 1031.18 812.244 1032.16 809.702 1033.77L806.116 1036.29V1029.22C806.116 1026.06 807.29 1022.77 809.702 1019.4L801.031 1021.79C799.336 1022.28 797.707 1023.12 796.012 1024.31L795.751 1004.06L791.839 1008.82C790.144 1010.78 788.71 1012.82 787.537 1014.85L786.233 1017.44L779.909 997.749C777.758 998.8 775.867 1000.34 774.303 1002.51L767.979 1011.13V1003.22C767.979 1000.06 767.718 996.908 767.132 993.754L764.002 996.137C762.633 997.048 761.199 999.501 759.569 1003.36L757.548 1008.82V996.978C757.548 994.385 756.896 992.282 755.658 990.67C754.941 989.829 754.289 989.269 753.637 988.988L752.072 996.067C751.355 999.01 749.595 1002.51 746.726 1006.65L742.554 1011.98V1001.67C742.554 996.908 741.967 992.703 740.859 988.988L738.447 993.754C737.469 995.716 735.905 997.889 733.688 1000.27L730.559 1003.22L730.428 1001.11C730.298 999.29 730.037 997.398 729.711 995.436L728.147 987.517L724.105 991.441C722.41 993.123 719.672 995.576 715.891 998.94L710.675 1003.36V995.506C710.675 992.352 711.718 988.918 713.87 985.204L704.352 987.587C700.375 988.568 696.92 990.81 693.986 994.315L690.792 999.431L690.531 996.908C690.27 994.595 689.879 992.002 689.227 989.058C688.184 984.293 686.359 980.648 683.621 978.055L682.903 983.592C682.577 985.905 681.534 988.287 679.774 990.67L677.297 993.754L675.537 989.969C674.168 987.096 673.19 984.713 672.538 982.751C671.495 979.597 670.712 977.495 670.126 976.443L666.931 980.368C665.693 982.05 664.324 984.363 663.02 987.376L661.455 991.441L659.76 980.438C659.108 975.883 658 972.238 656.435 969.645C655.653 968.314 654.936 967.403 654.284 967.052V972.519C654.284 974.832 653.632 977.355 652.263 980.228L650.242 983.662L648.678 975.743C647.634 970.416 647.634 966.492 648.678 963.899L643.071 966.281C640.789 967.263 638.768 969.225 637.139 972.309L635.248 976.584L634.075 973.85C633.292 971.748 632.901 969.996 632.901 968.664C632.901 966.562 632.64 962.287 632.054 955.979L627.295 959.974C625.339 961.656 623.253 964.109 621.232 967.333L618.624 971.818L618.494 967.193C618.363 963.548 618.102 960.605 617.776 958.292L616.212 948.831L613.8 953.597C612.822 955.559 611.583 958.642 610.084 962.847L608.193 968.664V958.362C608.193 954.087 607.411 950.092 605.781 946.238C604.999 944.276 604.217 942.734 603.369 941.753L601.804 945.817C601.087 947.499 599.132 949.251 595.937 951.144L591.439 953.667V941.823L586.68 944.205C585.246 944.906 583.811 946.378 582.377 948.621C581.986 944.976 581.53 942.523 580.943 941.262L579.183 937.127C577.227 938.739 576.184 941.052 576.184 944.205V948.971L569.665 937.127C568.882 940.701 567.448 944.065 565.492 947.219L563.732 949.742L562.885 946.658C562.298 944.065 562.82 939.58 564.449 933.273L559.69 936.496C557.735 937.758 555.909 940.001 554.345 943.154L552.584 947.569L551.867 939.65C551.541 936.426 550.107 933.973 547.565 932.432C546.261 931.661 545.087 931.17 543.849 931.03V933.413C543.849 934.394 543.197 935.796 541.958 937.828L539.937 940.561L535.895 932.642L537.59 929.558C538.633 927.456 538.829 924.512 538.307 920.798L531.136 924.793C528.203 926.475 525.334 927.456 522.531 927.736L519.206 927.876L520.054 925.493C520.64 923.882 521.097 920.728 521.618 916.032L517.707 918.415C516.012 919.326 513.6 920.307 510.34 921.288L505.842 922.48L505.516 920.237C505.19 918.205 505.059 916.032 505.059 913.719C505.059 910.075 504.277 907.973 502.647 907.412L498.736 909.795C497.041 910.776 495.802 911.968 494.955 913.439L493.977 915.331L492.412 909.795C491.304 906.081 490.522 902.646 490 899.493L486.806 901.175C485.437 901.806 484.263 903.417 483.22 906.01L482.047 909.795L479.634 905.87C478.07 903.207 476.766 900.264 475.723 897.11L470.964 900.334C469.008 901.665 466.922 902.436 464.771 902.717H462.163V898.792C459.555 899.283 455.579 899.493 450.233 899.493C447.038 899.493 444.626 899.283 442.866 898.792C440.193 898.021 437.064 897.18 433.544 896.409C429.241 895.358 421.222 894.937 409.357 895.007C396.971 895.218 389.278 895.358 386.345 895.358C382.694 895.358 380.217 896.409 378.847 898.582L378 901.876C393.907 913.299 410.857 925.213 428.98 937.407C465.097 961.936 488.631 976.163 499.518 980.088L599.458 1015.41C671.951 1040.57 723.062 1057.11 752.724 1065.17C756.244 1072.11 759.83 1078.2 763.611 1082.62Z" fill="#4E7436"/>
<defs>
<linearGradient id="paint0_linear" x1="98.5047" y1="26.21" x2="238.508" y2="323.548" gradientUnits="userSpaceOnUse">
<stop stop-color="white"/>
<stop offset="1" stop-color="#D3E7F7" stop-opacity="0"/>
</linearGradient>
<linearGradient id="paint1_linear" x1="106.147" y1="146.891" x2="246.741" y2="268.243" gradientUnits="userSpaceOnUse">
<stop stop-color="white"/>
<stop offset="1" stop-color="#D3E7F7" stop-opacity="0"/>
</linearGradient>
<linearGradient id="paint2_linear" x1="1332.98" y1="-67.4402" x2="1443.55" y2="311.301" gradientUnits="userSpaceOnUse">
<stop stop-color="white"/>
<stop offset="1" stop-color="#D3E7F7" stop-opacity="0"/>
</linearGradient>
<linearGradient id="paint3_linear" x1="1321.66" y1="73.3243" x2="1466.67" y2="242.503" gradientUnits="userSpaceOnUse">
<stop stop-color="white"/>
<stop offset="1" stop-color="#D3E7F7" stop-opacity="0"/>
</linearGradient>
<linearGradient id="paint4_linear" x1="621.252" y1="1494.03" x2="621.252" y2="27.4799" gradientUnits="userSpaceOnUse">
<stop stop-color="#565854"/>
<stop offset="1" stop-color="#A4CDED"/>
</linearGradient>
<linearGradient id="paint5_linear" x1="306.375" y1="352.88" x2="306.375" y2="644.833" gradientUnits="userSpaceOnUse">
<stop stop-color="#010101"/>
<stop offset="1" stop-color="#214B88"/>
</linearGradient>
<linearGradient id="paint6_linear" x1="193.275" y1="826.319" x2="192.836" y2="746.748" gradientUnits="userSpaceOnUse">
<stop stop-color="#898F7A"/>
<stop offset="1" stop-color="#A8AD9B"/>
</linearGradient>
<linearGradient id="paint7_linear" x1="-57.9275" y1="1044.02" x2="-60.3478" y2="925.205" gradientUnits="userSpaceOnUse">
<stop stop-color="#898F7A"/>
<stop offset="1" stop-color="#A8AD9B"/>
</linearGradient>
<linearGradient id="paint8_linear" x1="598.183" y1="228.281" x2="607.082" y2="368.294" gradientUnits="userSpaceOnUse">
<stop stop-color="#8A9DA5"/>
<stop offset="1" stop-color="#010101"/>
</linearGradient>
<linearGradient id="paint9_linear" x1="766.56" y1="371.362" x2="770.11" y2="464.218" gradientUnits="userSpaceOnUse">
<stop stop-color="#8A9DA5"/>
<stop offset="1" stop-color="#010101"/>
</linearGradient>
<linearGradient id="paint10_linear" x1="767.934" y1="684.049" x2="797.912" y2="980.237" gradientUnits="userSpaceOnUse">
<stop stop-color="#8A9DA5"/>
<stop offset="1" stop-color="#74848B"/>
</linearGradient>
<radialGradient id="paint11_radial" cx="0" cy="0" r="1" gradientUnits="userSpaceOnUse" gradientTransform="translate(-12.6768 998.237) rotate(-0.162691) scale(905.119 69.3352)">
<stop stop-color="#010101"/>
<stop offset="1" stop-color="#010101" stop-opacity="0"/>
</radialGradient>
<linearGradient id="paint12_linear" x1="538.526" y1="710.025" x2="-5.14295" y2="943.941" gradientUnits="userSpaceOnUse">
<stop stop-color="#6A903D"/>
<stop offset="1" stop-color="#587937"/>
</linearGradient>
<linearGradient id="paint13_linear" x1="431.822" y1="800.659" x2="59.4343" y2="1005.63" gradientUnits="userSpaceOnUse">
<stop stop-color="#618339"/>
<stop offset="1" stop-color="#506C31"/>
</linearGradient>
<linearGradient id="paint14_linear" x1="391.556" y1="732.773" x2="17.773" y2="938.51" gradientUnits="userSpaceOnUse">
<stop stop-color="#618339"/>
<stop offset="1" stop-color="#506C31"/>
</linearGradient>
<linearGradient id="paint15_linear" x1="442.15" y1="818.072" x2="68.3457" y2="1023.82" gradientUnits="userSpaceOnUse">
<stop stop-color="#618339"/>
<stop offset="1" stop-color="#506C31"/>
</linearGradient>
<linearGradient id="paint16_linear" x1="387.658" y1="723.137" x2="13.866" y2="928.877" gradientUnits="userSpaceOnUse">
<stop stop-color="#618339"/>
<stop offset="1" stop-color="#506C31"/>
</linearGradient>
<linearGradient id="paint17_linear" x1="462.991" y1="854.832" x2="89.2004" y2="1060.57" gradientUnits="userSpaceOnUse">
<stop stop-color="#618339"/>
<stop offset="1" stop-color="#506C31"/>
</linearGradient>
<linearGradient id="paint18_linear" x1="382.417" y1="718.775" x2="7.10568" y2="925.355" gradientUnits="userSpaceOnUse">
<stop stop-color="#618339"/>
<stop offset="1" stop-color="#506C31"/>
</linearGradient>
<linearGradient id="paint19_linear" x1="419.66" y1="783.375" x2="42.932" y2="990.73" gradientUnits="userSpaceOnUse">
<stop stop-color="#618339"/>
<stop offset="1" stop-color="#506C31"/>
</linearGradient>
<linearGradient id="paint20_linear" x1="420.657" y1="777.473" x2="46.8209" y2="983.238" gradientUnits="userSpaceOnUse">
<stop stop-color="#618339"/>
<stop offset="1" stop-color="#506C31"/>
</linearGradient>
<linearGradient id="paint21_linear" x1="353.299" y1="666.246" x2="-20.4796" y2="871.982" gradientUnits="userSpaceOnUse">
<stop stop-color="#618339"/>
<stop offset="1" stop-color="#506C31"/>
</linearGradient>
<linearGradient id="paint22_linear" x1="350.298" y1="662.942" x2="-23.5111" y2="868.693" gradientUnits="userSpaceOnUse">
<stop stop-color="#618339"/>
<stop offset="1" stop-color="#506C31"/>
</linearGradient>
<linearGradient id="paint23_linear" x1="423.818" y1="788.249" x2="49.7065" y2="994.165" gradientUnits="userSpaceOnUse">
<stop stop-color="#618339"/>
<stop offset="1" stop-color="#506C31"/>
</linearGradient>
<linearGradient id="paint24_linear" x1="460.966" y1="853.182" x2="86.1965" y2="1059.46" gradientUnits="userSpaceOnUse">
<stop stop-color="#618339"/>
<stop offset="1" stop-color="#506C31"/>
</linearGradient>
</defs>
</svg>
