<svg width="1663" height="1364" viewBox="0 0 1663 1364" fill="none" xmlns="http://www.w3.org/2000/svg">
<path d="M7.57324 712.24V766.453H-8.60059V1422.63H151.696V766.453H132.535V712.24H7.57324Z" fill="url(#paint0_linear)"/>
<path d="M670.541 79.2344V204.955H636.441V1123.01H595.543V582.272H431.744V871.569H407.844V198.723H257.746V670.291H213.345V871.569H209.945V1123.17H134.845V626.359H131.445V852.718L134.845 1361.99V1355.76H1509.83V1343.14H1513.23V607.509H1424.53V123.322H1366.53V607.509H1339.23V1110.55H1311.93V601.278H1213.04V377.723L1042.44 274.124V462.783H899.138V890.419H820.638V204.955H793.338V79.2344H670.541Z" fill="url(#paint1_linear)"/>
<path d="M896.996 783.75H1145.15V1393.16H896.996V783.75Z" fill="#359CA4"/>
<path d="M899.706 808.309V850.953H913.238V808.309C913.351 808.309 899.706 808.309 899.706 808.309ZM917.411 808.309V850.953H930.943V808.309C930.943 808.309 917.411 808.309 917.411 808.309ZM935.003 808.309V850.953H948.535V808.309H935.003ZM952.595 808.309V850.953H966.127V808.309C966.24 808.309 952.595 808.309 952.595 808.309ZM970.3 808.309V850.953H983.832V808.309H970.3ZM987.892 808.309V850.953H1001.42V808.309H987.892ZM1005.48 808.309V850.953H1019.02V808.309H1005.48ZM1023.19 808.309V850.953H1036.72V808.309H1023.19ZM1040.78 808.309V850.953H1054.31V808.309H1040.78ZM1058.37 808.309V850.953H1071.9V808.309H1058.37ZM1076.08 808.309V850.953H1089.61V808.309H1076.08ZM1093.67 808.309V850.953H1107.2V808.309H1093.67ZM1111.26 808.309V850.953H1124.79V808.309H1111.26ZM1128.97 808.309V850.953H1142.5V808.309H1128.97Z" fill="#74CCCF"/>
<path d="M899.696 808.316V850.96H913.242V808.316H899.696ZM917.339 808.316V850.96H930.885V808.316H917.339ZM934.934 808.316V850.96H948.527V808.316C948.527 808.316 934.934 808.316 934.934 808.316ZM952.577 808.316V850.96H966.122V808.316H952.577ZM970.219 808.316V850.96H983.765V808.316H970.219ZM987.862 808.316V850.96H1001.46V808.316H987.862ZM1005.46 808.316V850.96H1019V808.316H1005.46ZM1023.1 808.316V850.96H1036.64V808.316H1023.1ZM1040.74 808.316V850.96H1054.34V808.316H1040.74ZM1058.34 808.316V850.96H1071.88V808.316H1058.34ZM1075.98 808.316V850.96H1089.53V808.316H1075.98ZM1093.62 808.316V850.96H1107.22V808.316H1093.62ZM1111.27 808.316V850.96H1124.81V808.316H1111.27ZM1128.86 808.316V850.96H1142.41V808.316H1128.86ZM899.696 861.603V904.247H913.242V861.603H899.696ZM917.339 861.603V904.247H930.885V861.603H917.339ZM934.982 861.603V904.247H948.576V861.603C948.527 861.603 934.982 861.603 934.982 861.603ZM952.577 861.603V904.247H966.122V861.603H952.577ZM970.219 861.603V904.247H983.765V861.603H970.219ZM987.862 861.603V904.247H1001.46V861.603H987.862ZM1005.46 861.603V904.247H1019V861.603H1005.46ZM1023.1 861.603V904.247H1036.64V861.603H1023.1ZM1040.74 861.603V904.247H1054.34V861.603H1040.74ZM1058.39 861.603V904.247H1071.93V861.603H1058.39ZM1075.98 861.603V904.247H1089.53V861.603H1075.98ZM1093.62 861.603V904.247H1107.22V861.603H1093.62ZM1111.27 861.603V904.247H1124.81V861.603H1111.27ZM1128.86 861.603V904.247H1142.41V861.603H1128.86ZM899.696 914.963V957.607H913.242V914.963H899.696ZM917.339 914.963V957.607H930.885V914.963H917.339ZM934.982 914.963V957.607H948.576V914.963C948.527 914.963 934.982 914.963 934.982 914.963ZM952.577 914.963V957.607H966.122V914.963H952.577ZM970.219 914.963V957.607H983.765V914.963H970.219ZM987.862 914.963V957.607H1001.46V914.963H987.862ZM1005.5 914.963V957.607H1019.05V914.963H1005.5ZM1023.1 914.963V957.607H1036.64V914.963H1023.1ZM1040.74 914.963V957.607H1054.34V914.963H1040.74ZM1058.39 914.963V957.607H1071.93V914.963H1058.39ZM1075.98 914.963V957.607H1089.53V914.963H1075.98ZM1093.62 914.963V957.607H1107.22V914.963H1093.62ZM1111.27 914.963V957.607H1124.81V914.963H1111.27ZM1128.91 914.963V957.607H1142.45V914.963H1128.91ZM899.696 968.25V1010.97H913.242V968.323H899.696V968.25ZM917.339 968.25V1010.97H930.885V968.323H917.339V968.25ZM934.982 968.25V1010.97H948.576V968.323C948.527 968.25 934.982 968.25 934.982 968.25ZM952.625 968.25V1010.97H966.17V968.323H952.625V968.25ZM970.219 968.25V1010.97H983.765V968.323H970.219V968.25ZM987.862 968.25V1010.97H1001.46V968.323H987.862V968.25ZM1005.5 968.25V1010.97H1019.05V968.323H1005.5V968.25ZM1023.1 968.25V1010.97H1036.64V968.323H1023.1V968.25ZM1040.74 968.25V1010.97H1054.34V968.323H1040.74V968.25ZM1058.39 968.25V1010.97H1071.93V968.323H1058.39V968.25ZM1076.03 968.25V1010.97H1089.57V968.323H1076.03V968.25ZM1093.62 968.25V1010.97H1107.22V968.323H1093.62V968.25ZM1111.27 968.25V1010.97H1124.81V968.323C1124.81 968.25 1111.27 968.25 1111.27 968.25ZM1128.91 968.25V1010.97H1142.45V968.323H1128.91V968.25ZM899.745 1021.61V1064.25H913.29V1021.61H899.745V1021.61ZM917.339 1021.61V1064.25H930.885V1021.61H917.339V1021.61ZM934.982 1021.61V1064.25H948.576V1021.61C948.527 1021.61 934.982 1021.61 934.982 1021.61ZM952.625 1021.61V1064.25H966.17V1021.61H952.625V1021.61ZM970.219 1021.61V1064.25H983.765V1021.61H970.219V1021.61ZM987.862 1021.61V1064.25H1001.46V1021.61H987.862V1021.61ZM1005.5 1021.61V1064.25H1019.05V1021.61H1005.5V1021.61ZM1023.15 1021.61V1064.25H1036.69V1021.61H1023.15V1021.61ZM1040.74 1021.61V1064.25H1054.34V1021.61H1040.74V1021.61ZM1058.39 1021.61V1064.25H1071.93V1021.61H1058.39V1021.61ZM1076.03 1021.61V1064.25H1089.57V1021.61H1076.03V1021.61ZM1093.62 1021.61V1064.25H1107.22V1021.61H1093.62V1021.61ZM1111.27 1021.61V1064.25H1124.81V1021.61C1124.81 1021.61 1111.27 1021.61 1111.27 1021.61ZM1128.91 1021.61V1064.25H1142.45V1021.61H1128.91V1021.61ZM899.745 1074.97V1117.61H913.29V1074.97H899.745ZM917.339 1074.97V1117.61H930.885V1074.97H917.339ZM934.982 1074.97V1117.61H948.576V1074.97C948.527 1074.97 934.982 1074.97 934.982 1074.97ZM952.625 1074.97V1117.61H966.17V1074.97H952.625ZM970.268 1074.97V1117.61H983.813V1074.97H970.268ZM987.862 1074.97V1117.61H1001.46V1074.97H987.862ZM1005.5 1074.97V1117.61H1019.05V1074.97H1005.5ZM1023.15 1074.97V1117.61H1036.69V1074.97H1023.15ZM1040.74 1074.97V1117.61H1054.34V1074.97H1040.74ZM1058.39 1074.97V1117.61H1071.93V1074.97H1058.39ZM1076.03 1074.97V1117.61H1089.57V1074.97H1076.03ZM1093.62 1074.97V1117.61H1107.22V1074.97H1093.62ZM1111.27 1074.97V1117.61H1124.81V1074.97H1111.27ZM1128.91 1074.97V1117.61H1142.45V1074.97H1128.91ZM899.745 1128.26V1170.9H913.29V1128.26H899.745ZM917.387 1128.26V1170.9H930.933V1128.26H917.387ZM934.982 1128.26V1170.9H948.576V1128.26C948.527 1128.26 934.982 1128.26 934.982 1128.26ZM952.625 1128.26V1170.9H966.17V1128.26H952.625ZM970.268 1128.26V1170.9H983.813V1128.26H970.268ZM987.862 1128.26V1170.9H1001.46V1128.26H987.862ZM1005.5 1128.26V1170.9H1019.05V1128.26H1005.5ZM1023.15 1128.26V1170.9H1036.69V1128.26H1023.15ZM1040.74 1128.26V1170.9H1054.34V1128.26H1040.74ZM1058.39 1128.26V1170.9H1071.93V1128.26H1058.39ZM1076.03 1128.26V1170.9H1089.57V1128.26H1076.03ZM1093.62 1128.26V1170.9H1107.22V1128.26H1093.62ZM1111.27 1128.26V1170.9H1124.81V1128.26H1111.27ZM1128.91 1128.26V1170.9H1142.45V1128.26H1128.91ZM899.745 1181.62V1224.26H913.29V1181.62H899.745ZM917.387 1181.62V1224.26H930.933V1181.62H917.387ZM934.982 1181.62V1224.26H948.576V1181.62C948.527 1181.62 934.982 1181.62 934.982 1181.62ZM952.625 1181.62V1224.26H966.17V1181.62H952.625ZM970.268 1181.62V1224.26H983.813V1181.62H970.268ZM987.862 1181.62V1224.26H1001.46V1181.62H987.862ZM1005.5 1181.62V1224.26H1019.05V1181.62H1005.5ZM1023.15 1181.62V1224.26H1036.69V1181.62H1023.15ZM1040.74 1181.62V1224.26H1054.34V1181.62H1040.74ZM1058.39 1181.62V1224.26H1071.93V1181.62H1058.39ZM1076.03 1181.62V1224.26H1089.57V1181.62H1076.03ZM1093.62 1181.62V1224.26H1107.22V1181.62H1093.62ZM1111.27 1181.62V1224.26H1124.81V1181.62H1111.27ZM1128.91 1181.62V1224.26H1142.45V1181.62H1128.91ZM899.745 1234.9V1277.55H913.29V1234.9H899.745ZM917.387 1234.9V1277.55H930.933V1234.9H917.387ZM934.982 1234.9V1277.55H948.576V1234.9C948.527 1234.9 934.982 1234.9 934.982 1234.9ZM952.625 1234.9V1277.55H966.17V1234.9H952.625ZM970.268 1234.9V1277.55H983.813V1234.9H970.268ZM987.862 1234.9V1277.55H1001.46V1234.9H987.862ZM1005.5 1234.9V1277.55H1019.05V1234.9H1005.5ZM1023.15 1234.9V1277.55H1036.69V1234.9H1023.15ZM1040.74 1234.9V1277.55H1054.34V1234.9H1040.74ZM1058.39 1234.9V1277.55H1071.93V1234.9H1058.39ZM1076.03 1234.9V1277.55H1089.57V1234.9H1076.03ZM1093.62 1234.9V1277.55H1107.22V1234.9H1093.62ZM1111.27 1234.9V1277.55H1124.81V1234.9H1111.27ZM1128.91 1234.9V1277.55H1142.45V1234.9H1128.91ZM899.745 1288.26V1393.38H913.29V1288.26H899.745ZM917.387 1288.26V1393.38H930.933V1288.26H917.387ZM934.982 1288.26V1393.38H948.576V1288.26H934.982ZM952.625 1288.26V1393.38H966.17V1288.26H952.625ZM970.268 1288.26V1393.38H983.813V1288.26H970.268ZM987.862 1288.26V1393.38H1001.46V1288.26H987.862ZM1005.5 1288.26V1393.38H1019.05V1288.26H1005.5ZM1023.15 1288.26V1393.38H1036.69V1288.26H1023.15ZM1040.74 1288.26V1393.38H1054.34V1288.26H1040.74ZM1058.39 1288.26V1393.38H1071.93V1288.26H1058.39ZM1076.03 1288.26V1393.38H1089.57V1288.26H1076.03ZM1093.62 1288.26V1393.38H1107.22V1288.26H1093.62ZM1111.27 1288.26V1393.38H1124.81V1288.26H1111.27ZM1128.91 1288.26V1393.38H1142.45V1288.26H1128.91Z" fill="url(#paint2_linear)"/>
<path d="M4.78516 1034.29H233.236V1388.18H4.78516V1034.29Z" fill="url(#paint3_linear)"/>
<path d="M273.327 1163.1H180.951V1691.68H273.327V1163.1Z" fill="url(#paint4_linear)"/>
<path d="M259.935 1180.97H247.744V1225.75H259.935V1180.97Z" fill="#6C7058"/>
<path d="M259.935 1237.02H247.744V1281.8H259.935V1237.02Z" fill="#6C7058"/>
<path d="M259.935 1293.01H247.744V1337.79H259.935V1293.01Z" fill="#6C7058"/>
<path d="M259.935 1349H247.744V1393.79H259.935V1349Z" fill="#6C7058"/>
<path d="M223.024 1048.83H210.834V1093.62H223.024V1048.83Z" fill="#6C7058"/>
<path d="M223.026 1104.83H210.836V1149.61H223.026V1104.83Z" fill="#6C7058"/>
<path d="M204.568 1048.83H192.377V1093.62H204.568V1048.83Z" fill="#6C7058"/>
<path d="M204.568 1104.83H192.377V1149.61H204.568V1104.83Z" fill="#6C7058"/>
<path d="M241.477 1180.97H229.286V1225.75H241.477V1180.97Z" fill="#6C7058"/>
<path d="M241.477 1237.02H229.286V1281.8H241.477V1237.02Z" fill="#6C7058"/>
<path d="M241.477 1293.01H229.286V1337.79H241.477V1293.01Z" fill="#6C7058"/>
<path d="M241.477 1349H229.286V1393.79H241.477V1349Z" fill="#6C7058"/>
<path d="M223.019 1180.97H210.828V1225.75H223.019V1180.97Z" fill="#6C7058"/>
<path d="M223.019 1237.02H210.828V1281.8H223.019V1237.02Z" fill="#6C7058"/>
<path d="M223.019 1293.01H210.828V1337.79H223.019V1293.01Z" fill="#6C7058"/>
<path d="M223.019 1349H210.828V1393.79H223.019V1349Z" fill="#6C7058"/>
<path d="M204.561 1180.97H192.37V1225.75H204.561V1180.97Z" fill="#6C7058"/>
<path d="M204.561 1237.02H192.37V1281.8H204.561V1237.02Z" fill="#6C7058"/>
<path d="M204.561 1293.01H192.37V1337.79H204.561V1293.01Z" fill="#6C7058"/>
<path d="M204.561 1349H192.37V1393.79H204.561V1349Z" fill="#6C7058"/>
<path d="M94.6709 341H142.061V674.744H94.6709V341Z" fill="url(#paint5_linear)"/>
<path d="M102.227 408.204H114.417V452.988H102.227V408.204Z" fill="#6C7058"/>
<path d="M102.227 464.198H114.417V508.982H102.227V464.198Z" fill="#6C7058"/>
<path d="M102.227 520.192H114.417V564.976H102.227V520.192Z" fill="#6C7058"/>
<path d="M102.227 576.186H114.417V620.97H102.227V576.186Z" fill="#6C7058"/>
<path d="M120.685 408.204H132.875V452.988H120.685V408.204Z" fill="#6C7058"/>
<path d="M120.685 464.198H132.875V508.982H120.685V464.198Z" fill="#6C7058"/>
<path d="M120.685 520.192H132.875V564.976H120.685V520.192Z" fill="#6C7058"/>
<path d="M120.685 576.186H132.875V620.97H120.685V576.186Z" fill="#6C7058"/>
<path d="M70.4004 609.816H162.776V1322.09H70.4004V609.816Z" fill="url(#paint6_linear)"/>
<path d="M83.7061 643.39H95.8971V688.174H83.7061V643.39Z" fill="#6C7058"/>
<path d="M83.7061 699.384H95.8971V744.168H83.7061V699.384Z" fill="#6C7058"/>
<path d="M83.7061 755.378H95.8971V800.162H83.7061V755.378Z" fill="#6C7058"/>
<path d="M83.7061 811.427H95.8971V856.212H83.7061V811.427Z" fill="#6C7058"/>
<path d="M83.7061 867.421H95.8971V912.205H83.7061V867.421Z" fill="#6C7058"/>
<path d="M83.7061 923.416H95.8971V968.2H83.7061V923.416Z" fill="#6C7058"/>
<path d="M83.7061 979.409H95.8971V1024.19H83.7061V979.409Z" fill="#6C7058"/>
<path d="M83.7061 1035.4H95.8971V1080.19H83.7061V1035.4Z" fill="#6C7058"/>
<path d="M83.7061 1091.4H95.8971V1136.18H83.7061V1091.4Z" fill="#6C7058"/>
<path d="M83.7061 1147.39H95.8971V1192.18H83.7061V1147.39Z" fill="#6C7058"/>
<path d="M102.165 643.39H114.356V688.174H102.165V643.39Z" fill="#6C7058"/>
<path d="M102.165 699.384H114.356V744.168H102.165V699.384Z" fill="#6C7058"/>
<path d="M102.165 755.378H114.356V800.162H102.165V755.378Z" fill="#6C7058"/>
<path d="M102.165 811.427H114.356V856.212H102.165V811.427Z" fill="#6C7058"/>
<path d="M102.165 867.421H114.356V912.205H102.165V867.421Z" fill="#6C7058"/>
<path d="M102.165 923.416H114.356V968.2H102.165V923.416Z" fill="#6C7058"/>
<path d="M102.165 979.409H114.356V1024.19H102.165V979.409Z" fill="#6C7058"/>
<path d="M102.165 1035.4H114.356V1080.19H102.165V1035.4Z" fill="#6C7058"/>
<path d="M102.165 1091.4H114.356V1136.18H102.165V1091.4Z" fill="#6C7058"/>
<path d="M102.165 1147.39H114.356V1192.18H102.165V1147.39Z" fill="#6C7058"/>
<path d="M120.709 643.39H132.9V688.174H120.709V643.39Z" fill="#6C7058"/>
<path d="M120.709 699.384H132.9V744.168H120.709V699.384Z" fill="#6C7058"/>
<path d="M120.709 755.378H132.9V800.162H120.709V755.378Z" fill="#6C7058"/>
<path d="M120.709 811.427H132.9V856.212H120.709V811.427Z" fill="#6C7058"/>
<path d="M120.709 867.421H132.9V912.205H120.709V867.421Z" fill="#6C7058"/>
<path d="M120.709 923.416H132.9V968.2H120.709V923.416Z" fill="#6C7058"/>
<path d="M120.709 979.409H132.9V1024.19H120.709V979.409Z" fill="#6C7058"/>
<path d="M120.709 1035.4H132.9V1080.19H120.709V1035.4Z" fill="#6C7058"/>
<path d="M120.709 1091.4H132.9V1136.18H120.709V1091.4Z" fill="#6C7058"/>
<path d="M120.709 1147.39H132.9V1192.18H120.709V1147.39Z" fill="#6C7058"/>
<path d="M139.167 643.39H151.358V688.174H139.167V643.39Z" fill="#6C7058"/>
<path d="M139.167 699.384H151.358V744.168H139.167V699.384Z" fill="#6C7058"/>
<path d="M139.167 755.378H151.358V800.162H139.167V755.378Z" fill="#6C7058"/>
<path d="M139.167 811.427H151.358V856.212H139.167V811.427Z" fill="#6C7058"/>
<path d="M139.167 867.421H151.358V912.205H139.167V867.421Z" fill="#6C7058"/>
<path d="M139.167 923.416H151.358V968.2H139.167V923.416Z" fill="#6C7058"/>
<path d="M139.167 979.409H151.358V1024.19H139.167V979.409Z" fill="#6C7058"/>
<path d="M139.167 1035.4H151.358V1080.19H139.167V1035.4Z" fill="#6C7058"/>
<path d="M139.167 1091.4H151.358V1136.18H139.167V1091.4Z" fill="#6C7058"/>
<path d="M139.167 1147.39H151.358V1192.18H139.167V1147.39Z" fill="#6C7058"/>
<path d="M53.29 853.936H182.153V1693.9H53.29V853.936Z" fill="#BBC0B1"/>
<path d="M66.7686 903.215H78.9594V948.055H66.7686V903.215Z" fill="#6C7058"/>
<path d="M66.7686 903.215H78.9594V948.055H66.7686V903.215Z" fill="#6C7058"/>
<path d="M66.7686 959.265H78.9594V1004.05H66.7686V959.265Z" fill="#6C7058"/>
<path d="M66.7686 1015.26H78.9594V1060.04H66.7686V1015.26Z" fill="#6C7058"/>
<path d="M66.7686 1071.25H78.9594V1116.04H66.7686V1071.25Z" fill="#6C7058"/>
<path d="M66.7686 1127.25H78.9594V1172.03H66.7686V1127.25Z" fill="#6C7058"/>
<path d="M66.7686 1183.24H78.9594V1228.03H66.7686V1183.24Z" fill="#6C7058"/>
<path d="M66.7686 1239.24H78.9594V1284.02H66.7686V1239.24Z" fill="#6C7058"/>
<path d="M66.7686 1295.23H78.9594V1340.01H66.7686V1295.23Z" fill="#6C7058"/>
<path d="M66.7686 1351.22H78.9594V1396.01H66.7686V1351.22Z" fill="#6C7058"/>
<path d="M85.2266 903.215H97.4174V948.055H85.2266V903.215Z" fill="#6C7058"/>
<path d="M85.2266 959.265H97.4174V1004.05H85.2266V959.265Z" fill="#6C7058"/>
<path d="M85.2266 1015.26H97.4174V1060.04H85.2266V1015.26Z" fill="#6C7058"/>
<path d="M85.2266 1071.25H97.4174V1116.04H85.2266V1071.25Z" fill="#6C7058"/>
<path d="M85.2266 1127.25H97.4174V1172.03H85.2266V1127.25Z" fill="#6C7058"/>
<path d="M85.2266 1183.24H97.4174V1228.03H85.2266V1183.24Z" fill="#6C7058"/>
<path d="M85.2266 1239.24H97.4174V1284.02H85.2266V1239.24Z" fill="#6C7058"/>
<path d="M85.2266 1295.23H97.4174V1340.01H85.2266V1295.23Z" fill="#6C7058"/>
<path d="M85.2266 1351.22H97.4174V1396.01H85.2266V1351.22Z" fill="#6C7058"/>
<path d="M103.771 903.215H115.961V948.055H103.771V903.215Z" fill="#6C7058"/>
<path d="M103.771 959.265H115.961V1004.05H103.771V959.265Z" fill="#6C7058"/>
<path d="M103.771 1015.26H115.961V1060.04H103.771V1015.26Z" fill="#6C7058"/>
<path d="M103.771 1071.25H115.961V1116.04H103.771V1071.25Z" fill="#6C7058"/>
<path d="M103.771 1127.25H115.961V1172.03H103.771V1127.25Z" fill="#6C7058"/>
<path d="M103.771 1183.24H115.961V1228.03H103.771V1183.24Z" fill="#6C7058"/>
<path d="M103.771 1239.24H115.961V1284.02H103.771V1239.24Z" fill="#6C7058"/>
<path d="M103.771 1295.23H115.961V1340.01H103.771V1295.23Z" fill="#6C7058"/>
<path d="M103.771 1351.22H115.961V1396.01H103.771V1351.22Z" fill="#6C7058"/>
<path d="M122.229 903.215H134.419V948.055H122.229V903.215Z" fill="#6C7058"/>
<path d="M122.229 959.265H134.419V1004.05H122.229V959.265Z" fill="#6C7058"/>
<path d="M122.229 1015.26H134.419V1060.04H122.229V1015.26Z" fill="#6C7058"/>
<path d="M122.229 1071.25H134.419V1116.04H122.229V1071.25Z" fill="#6C7058"/>
<path d="M122.229 1127.25H134.419V1172.03H122.229V1127.25Z" fill="#6C7058"/>
<path d="M122.229 1183.24H134.419V1228.03H122.229V1183.24Z" fill="#6C7058"/>
<path d="M122.229 1239.24H134.419V1284.02H122.229V1239.24Z" fill="#6C7058"/>
<path d="M122.229 1295.23H134.419V1340.01H122.229V1295.23Z" fill="#6C7058"/>
<path d="M122.229 1351.22H134.419V1396.01H122.229V1351.22Z" fill="#6C7058"/>
<path d="M140.688 903.215H152.878V948.055H140.688V903.215Z" fill="#6C7058"/>
<path d="M140.688 959.265H152.878V1004.05H140.688V959.265Z" fill="#6C7058"/>
<path d="M140.688 1015.26H152.878V1060.04H140.688V1015.26Z" fill="#6C7058"/>
<path d="M140.688 1071.25H152.878V1116.04H140.688V1071.25Z" fill="#6C7058"/>
<path d="M140.688 1127.25H152.878V1172.03H140.688V1127.25Z" fill="#6C7058"/>
<path d="M140.688 1183.24H152.878V1228.03H140.688V1183.24Z" fill="#6C7058"/>
<path d="M140.688 1239.24H152.878V1284.02H140.688V1239.24Z" fill="#6C7058"/>
<path d="M140.688 1295.23H152.878V1340.01H140.688V1295.23Z" fill="#6C7058"/>
<path d="M140.688 1351.22H152.878V1396.01H140.688V1351.22Z" fill="#6C7058"/>
<path d="M159.146 903.215H171.336V948.055H159.146V903.215Z" fill="#6C7058"/>
<path d="M159.146 959.265H171.336V1004.05H159.146V959.265Z" fill="#6C7058"/>
<path d="M159.146 1015.26H171.336V1060.04H159.146V1015.26Z" fill="#6C7058"/>
<path d="M159.146 1071.25H171.336V1116.04H159.146V1071.25Z" fill="#6C7058"/>
<path d="M159.146 1127.25H171.336V1172.03H159.146V1127.25Z" fill="#6C7058"/>
<path d="M159.146 1183.24H171.336V1228.03H159.146V1183.24Z" fill="#6C7058"/>
<path d="M159.146 1239.24H171.336V1284.02H159.146V1239.24Z" fill="#6C7058"/>
<path d="M159.146 1295.23H171.336V1340.01H159.146V1295.23Z" fill="#6C7058"/>
<path d="M159.146 1351.22H171.336V1396.01H159.146V1351.22Z" fill="#6C7058"/>
<path d="M-39 1163.1H53.3761V1691.68H-39V1163.1Z" fill="url(#paint7_linear)"/>
<path d="M11.3008 1048.83H23.4917V1093.62H11.3008V1048.83Z" fill="#6C7058"/>
<path d="M11.3008 1104.83H23.4917V1149.61H11.3008V1104.83Z" fill="#6C7058"/>
<path d="M29.7598 1048.83H41.9506V1093.62H29.7598V1048.83Z" fill="#6C7058"/>
<path d="M29.7598 1104.83H41.9506V1149.61H29.7598V1104.83Z" fill="#6C7058"/>
<path d="M-7.14941 1180.97H5.04139V1225.75H-7.14941V1180.97Z" fill="#6C7058"/>
<path d="M-7.14941 1237.02H5.04139V1281.8H-7.14941V1237.02Z" fill="#6C7058"/>
<path d="M-7.14941 1293.01H5.04139V1337.79H-7.14941V1293.01Z" fill="#6C7058"/>
<path d="M-7.14941 1349H5.04139V1393.79H-7.14941V1349Z" fill="#6C7058"/>
<path d="M11.3086 1180.97H23.4995V1225.75H11.3086V1180.97Z" fill="#6C7058"/>
<path d="M11.3086 1237.02H23.4995V1281.8H11.3086V1237.02Z" fill="#6C7058"/>
<path d="M11.3086 1293.01H23.4995V1337.79H11.3086V1293.01Z" fill="#6C7058"/>
<path d="M11.3086 1349H23.4995V1393.79H11.3086V1349Z" fill="#6C7058"/>
<path d="M29.7666 1180.97H41.9576V1225.75H29.7666V1180.97Z" fill="#6C7058"/>
<path d="M29.7666 1237.02H41.9576V1281.8H29.7666V1237.02Z" fill="#6C7058"/>
<path d="M29.7666 1293.01H41.9576V1337.79H29.7666V1293.01Z" fill="#6C7058"/>
<path d="M29.7666 1349H41.9576V1393.79H29.7666V1349Z" fill="#6C7058"/>
<path d="M1282.86 202.514H1396.5V299.267H1282.86V202.514Z" fill="url(#paint8_linear)"/>
<path d="M1262.68 291.363H1416.57V1393.59H1262.68V291.363Z" fill="#8A9DA5"/>
<path d="M1365.82 456.728H1372.72V1391.37H1365.82V456.728Z" fill="#565854"/>
<path d="M1385.58 456.728H1392.48V1391.37H1385.58V456.728Z" fill="#565854"/>
<path d="M1346.06 456.728H1352.96V1391.37H1346.06V456.728Z" fill="#565854"/>
<path d="M1326.3 456.728H1333.2V1391.37H1326.3V456.728Z" fill="#565854"/>
<path d="M1306.54 456.728H1313.44V1391.37H1306.54V456.728V456.728Z" fill="#565854"/>
<path d="M1286.79 456.728H1293.69V1391.37H1286.79V456.728Z" fill="#565854"/>
<path d="M1328.13 131.689H1333.04V206.151H1328.13V131.689Z" fill="#010101"/>
<path d="M1349.77 3.15918H1354.68V203.937H1349.77V3.15918V3.15918Z" fill="#010101"/>
<path d="M1492.07 433H1645.8V511.693H1492.07V433V433Z" fill="url(#paint9_linear)"/>
<path d="M1476 497.42H1663.06V1393.91H1476V497.42Z" fill="url(#paint10_linear)"/>
<path d="M1487.22 534.967H1646.57V558.883H1487.22V534.967Z" fill="#565854"/>
<path d="M1487.22 589.744H1646.57V613.66H1487.22V589.744Z" fill="#565854"/>
<path d="M1487.22 918.66H1646.57V942.577H1487.22V918.66Z" fill="#565854"/>
<path d="M1487.22 973.438H1646.57V997.354H1487.22V973.438Z" fill="#565854"/>
<path d="M1487.22 1028.21H1646.57V1052.13H1487.22V1028.21Z" fill="#565854"/>
<path d="M1487.22 1082.99H1646.57V1106.91H1487.22V1082.99Z" fill="#565854"/>
<path d="M1487.22 1137.9H1646.57V1161.81H1487.22V1137.9Z" fill="#565854"/>
<path d="M1487.22 1192.67H1646.57V1216.59H1487.22V1192.67Z" fill="#565854"/>
<path d="M1487.22 1247.45H1646.57V1271.37H1487.22V1247.45Z" fill="#565854"/>
<path d="M1487.22 1302.23H1646.57V1326.14H1487.22V1302.23Z" fill="#565854"/>
<path d="M1489.26 1357.13H1648.52V1381.05H1489.18V1357.13H1489.26Z" fill="#565854"/>
<path d="M1487.22 644.649H1646.57V668.566H1487.22V644.649Z" fill="#565854"/>
<path d="M1487.22 699.425H1646.57V723.342H1487.22V699.425Z" fill="#565854"/>
<path d="M1487.22 754.202H1646.57V778.119H1487.22V754.202Z" fill="#565854"/>
<path d="M1487.22 808.979H1646.57V832.895H1487.22V808.979Z" fill="#565854"/>
<path d="M1487.22 863.884H1646.57V887.801H1487.22V863.884Z" fill="#565854"/>
<path d="M278.46 476.402H392.587V555.65H278.46V476.402Z" fill="url(#paint11_linear)"/>
<path d="M258.833 623.805H281.368V700.655H258.833V623.805Z" fill="#EEEEED" stroke="#3566A5"/>
<path d="M273.438 628.302H278.923V648.789L273.438 628.302Z" fill="white"/>
<path d="M279.98 688.062V698.156H260.749L279.98 688.062Z" fill="#D4D7D0"/>
<path d="M258.833 623.805H281.368V700.655H258.833V623.805Z" fill="#EEEEED" stroke="#3566A5" stroke-width="0.64148"/>
<path d="M273.438 628.302H278.923V648.789L273.438 628.302Z" fill="white"/>
<path d="M279.98 688.062V698.156H260.749L279.98 688.062Z" fill="#D4D7D0"/>
<path d="M258.833 700.665H281.368V777.514H258.833V700.665Z" fill="#EEEEED" stroke="#3566A5" stroke-width="0.64148"/>
<path d="M273.438 705.162H278.923V725.648L273.438 705.162Z" fill="white"/>
<path d="M279.98 764.922V775.016H260.749L279.98 764.922Z" fill="#D4D7D0"/>
<path d="M258.833 777.524H281.368V854.374H258.833V777.524Z" fill="#EEEEED" stroke="#3566A5" stroke-width="0.64148"/>
<path d="M273.438 782.022H278.923V802.508L273.438 782.022Z" fill="white"/>
<path d="M279.98 841.782V851.876H260.749L279.98 841.782Z" fill="#D4D7D0"/>
<path d="M258.833 854.385H281.368V931.234H258.833V854.385Z" fill="#EEEEED" stroke="#3566A5" stroke-width="0.64148"/>
<path d="M273.438 858.981H278.923V879.468L273.438 858.981Z" fill="white"/>
<path d="M279.98 918.643V928.736H260.749L279.98 918.643Z" fill="#D4D7D0"/>
<path d="M258.833 931.244H281.368V1008.09H258.833V931.244Z" fill="#EEEEED" stroke="#3566A5" stroke-width="0.64148"/>
<path d="M273.438 935.842H278.923V956.328L273.438 935.842Z" fill="white"/>
<path d="M279.98 995.602V1005.7H260.749L279.98 995.602Z" fill="#D4D7D0"/>
<path d="M258.833 1008.1H281.368V1084.95H258.833V1008.1Z" fill="#EEEEED" stroke="#3566A5" stroke-width="0.64148"/>
<path d="M273.438 1012.7H278.923V1033.19L273.438 1012.7Z" fill="white"/>
<path d="M279.98 1072.46V1082.56H260.749L279.98 1072.46Z" fill="#D4D7D0"/>
<path d="M258.833 1084.96H281.368V1161.81H258.833V1084.96Z" fill="#EEEEED" stroke="#3566A5" stroke-width="0.64148"/>
<path d="M273.438 1089.56H278.923V1110.05L273.438 1089.56Z" fill="white"/>
<path d="M279.98 1149.32V1159.41H260.749L279.98 1149.32Z" fill="#D4D7D0"/>
<path d="M258.833 1161.82H281.368V1238.67H258.833V1161.82Z" fill="#EEEEED" stroke="#3566A5" stroke-width="0.64148"/>
<path d="M273.438 1166.42H278.923V1186.91L273.438 1166.42Z" fill="white"/>
<path d="M279.98 1226.18V1236.17H260.749L279.98 1226.18Z" fill="#D4D7D0"/>
<path d="M258.833 1238.68H281.368V1315.53H258.833V1238.68Z" fill="#EEEEED" stroke="#3566A5" stroke-width="0.64148"/>
<path d="M273.438 1243.28H278.923V1263.77L273.438 1243.28Z" fill="white"/>
<path d="M279.98 1303.04V1313.13H260.749L279.98 1303.04Z" fill="#D4D7D0"/>
<path d="M258.833 1315.54H281.368V1392.39H258.833V1315.54Z" fill="#EEEEED" stroke="#3566A5" stroke-width="0.64148"/>
<path d="M273.438 1320.14H278.923V1340.62L273.438 1320.14Z" fill="white"/>
<path d="M281.353 623.805H303.887V700.655H281.353V623.805Z" fill="#EEEEED" stroke="#3566A5" stroke-width="0.64148"/>
<path d="M295.957 628.302H301.442V648.789L295.957 628.302Z" fill="white"/>
<path d="M302.5 688.062V698.156H283.27L302.5 688.062Z" fill="#D4D7D0"/>
<path d="M281.353 700.665H303.887V777.514H281.353V700.665Z" fill="#EEEEED" stroke="#3566A5" stroke-width="0.64148"/>
<path d="M295.957 705.162H301.442V725.648L295.957 705.162Z" fill="white"/>
<path d="M302.5 764.922V775.016H283.27L302.5 764.922Z" fill="#D4D7D0"/>
<path d="M281.353 777.524H303.887V854.374H281.353V777.524Z" fill="#EEEEED" stroke="#3566A5" stroke-width="0.64148"/>
<path d="M295.957 782.022H301.442V802.508L295.957 782.022Z" fill="white"/>
<path d="M302.5 841.782V851.876H283.27L302.5 841.782Z" fill="#D4D7D0"/>
<path d="M281.353 854.385H303.887V931.234H281.353V854.385Z" fill="#EEEEED" stroke="#3566A5" stroke-width="0.64148"/>
<path d="M295.957 858.981H301.442V879.468L295.957 858.981Z" fill="white"/>
<path d="M302.5 918.643V928.736H283.27L302.5 918.643Z" fill="#D4D7D0"/>
<path d="M281.353 931.244H303.887V1008.09H281.353V931.244Z" fill="#EEEEED" stroke="#3566A5" stroke-width="0.64148"/>
<path d="M295.957 935.842H301.442V956.328L295.957 935.842Z" fill="white"/>
<path d="M302.5 995.602V1005.7H283.27L302.5 995.602Z" fill="#D4D7D0"/>
<path d="M281.353 1008.1H303.887V1084.95H281.353V1008.1Z" fill="#EEEEED" stroke="#3566A5" stroke-width="0.64148"/>
<path d="M295.957 1012.7H301.442V1033.19L295.957 1012.7Z" fill="white"/>
<path d="M302.5 1072.46V1082.56H283.27L302.5 1072.46Z" fill="#D4D7D0"/>
<path d="M281.353 1084.96H303.887V1161.81H281.353V1084.96Z" fill="#EEEEED" stroke="#3566A5" stroke-width="0.64148"/>
<path d="M295.957 1089.56H301.442V1110.05L295.957 1089.56Z" fill="white"/>
<path d="M302.5 1149.32V1159.41H283.27L302.5 1149.32Z" fill="#D4D7D0"/>
<path d="M281.353 1161.82H303.887V1238.67H281.353V1161.82Z" fill="#EEEEED" stroke="#3566A5" stroke-width="0.64148"/>
<path d="M295.957 1166.42H301.442V1186.91L295.957 1166.42Z" fill="white"/>
<path d="M302.5 1226.18V1236.17H283.27L302.5 1226.18Z" fill="#D4D7D0"/>
<path d="M281.353 1238.68H303.887V1315.53H281.353V1238.68Z" fill="#EEEEED" stroke="#3566A5" stroke-width="0.64148"/>
<path d="M295.957 1243.28H301.442V1263.77L295.957 1243.28Z" fill="white"/>
<path d="M302.5 1303.04V1313.13H283.27L302.5 1303.04Z" fill="#D4D7D0"/>
<path d="M281.353 1315.54H303.887V1392.39H281.353V1315.54Z" fill="#EEEEED" stroke="#3566A5" stroke-width="0.64148"/>
<path d="M295.957 1320.14H301.442V1340.62L295.957 1320.14Z" fill="white"/>
<path d="M303.873 623.805H326.408V700.655H303.873V623.805Z" fill="#EEEEED" stroke="#3566A5" stroke-width="0.64148"/>
<path d="M318.478 628.302H323.963V648.789L318.478 628.302Z" fill="white"/>
<path d="M325.02 688.062V698.156H305.789L325.02 688.062Z" fill="#D4D7D0"/>
<path d="M303.873 700.665H326.408V777.514H303.873V700.665Z" fill="#EEEEED" stroke="#3566A5" stroke-width="0.64148"/>
<path d="M318.478 705.162H323.963V725.648L318.478 705.162Z" fill="white"/>
<path d="M325.02 764.922V775.016H305.789L325.02 764.922Z" fill="#D4D7D0"/>
<path d="M303.873 777.524H326.408V854.374H303.873V777.524Z" fill="#EEEEED" stroke="#3566A5" stroke-width="0.64148"/>
<path d="M318.478 782.022H323.963V802.508L318.478 782.022Z" fill="white"/>
<path d="M325.02 841.782V851.876H305.789L325.02 841.782Z" fill="#D4D7D0"/>
<path d="M303.873 854.385H326.408V931.234H303.873V854.385Z" fill="#EEEEED" stroke="#3566A5" stroke-width="0.64148"/>
<path d="M318.478 858.981H323.963V879.468L318.478 858.981Z" fill="white"/>
<path d="M325.02 918.643V928.736H305.789L325.02 918.643Z" fill="#D4D7D0"/>
<path d="M303.873 931.244H326.408V1008.09H303.873V931.244Z" fill="#EEEEED" stroke="#3566A5" stroke-width="0.64148"/>
<path d="M318.478 935.842H323.963V956.328L318.478 935.842Z" fill="white"/>
<path d="M325.02 995.602V1005.7H305.789L325.02 995.602Z" fill="#D4D7D0"/>
<path d="M303.873 1008.1H326.408V1084.95H303.873V1008.1Z" fill="#EEEEED" stroke="#3566A5" stroke-width="0.64148"/>
<path d="M318.478 1012.7H323.963V1033.19L318.478 1012.7Z" fill="white"/>
<path d="M325.02 1072.46V1082.56H305.789L325.02 1072.46Z" fill="#D4D7D0"/>
<path d="M303.873 1084.96H326.408V1161.81H303.873V1084.96Z" fill="#EEEEED" stroke="#3566A5" stroke-width="0.64148"/>
<path d="M318.478 1089.56H323.963V1110.05L318.478 1089.56Z" fill="white"/>
<path d="M325.02 1149.32V1159.41H305.789L325.02 1149.32Z" fill="#D4D7D0"/>
<path d="M303.873 1161.82H326.408V1238.67H303.873V1161.82Z" fill="#EEEEED" stroke="#3566A5" stroke-width="0.64148"/>
<path d="M318.478 1166.42H323.963V1186.91L318.478 1166.42Z" fill="white"/>
<path d="M325.02 1226.18V1236.17H305.789L325.02 1226.18Z" fill="#D4D7D0"/>
<path d="M303.873 1238.68H326.408V1315.53H303.873V1238.68Z" fill="#EEEEED" stroke="#3566A5" stroke-width="0.64148"/>
<path d="M318.478 1243.28H323.963V1263.77L318.478 1243.28Z" fill="white"/>
<path d="M325.02 1303.04V1313.13H305.789L325.02 1303.04Z" fill="#D4D7D0"/>
<path d="M303.873 1315.54H326.408V1392.39H303.873V1315.54Z" fill="#EEEEED" stroke="#3566A5" stroke-width="0.64148"/>
<path d="M318.478 1320.14H323.963V1340.62L318.478 1320.14Z" fill="white"/>
<path d="M326.393 623.805H348.927V700.655H326.393V623.805Z" fill="#EEEEED" stroke="#3566A5" stroke-width="0.64148"/>
<path d="M340.931 628.302H346.416V648.789L340.931 628.302Z" fill="white"/>
<path d="M347.539 688.062V698.156H328.309L347.539 688.062Z" fill="#D4D7D0"/>
<path d="M326.393 700.665H348.927V777.514H326.393V700.665Z" fill="#EEEEED" stroke="#3566A5" stroke-width="0.64148"/>
<path d="M340.931 705.162H346.416V725.648L340.931 705.162Z" fill="white"/>
<path d="M347.539 764.922V775.016H328.309L347.539 764.922Z" fill="#D4D7D0"/>
<path d="M326.393 777.524H348.927V854.374H326.393V777.524Z" fill="#EEEEED" stroke="#3566A5" stroke-width="0.64148"/>
<path d="M340.931 782.022H346.416V802.508L340.931 782.022Z" fill="white"/>
<path d="M347.539 841.782V851.876H328.309L347.539 841.782Z" fill="#D4D7D0"/>
<path d="M326.393 854.385H348.927V931.234H326.393V854.385Z" fill="#EEEEED" stroke="#3566A5" stroke-width="0.64148"/>
<path d="M340.931 858.981H346.416V879.468L340.931 858.981Z" fill="white"/>
<path d="M347.539 918.643V928.736H328.309L347.539 918.643Z" fill="#D4D7D0"/>
<path d="M326.393 931.244H348.927V1008.09H326.393V931.244Z" fill="#EEEEED" stroke="#3566A5" stroke-width="0.64148"/>
<path d="M340.931 935.842H346.416V956.328L340.931 935.842Z" fill="white"/>
<path d="M347.539 995.602V1005.7H328.309L347.539 995.602Z" fill="#D4D7D0"/>
<path d="M326.393 1008.1H348.927V1084.95H326.393V1008.1Z" fill="#EEEEED" stroke="#3566A5" stroke-width="0.64148"/>
<path d="M340.931 1012.7H346.416V1033.19L340.931 1012.7Z" fill="white"/>
<path d="M347.539 1072.46V1082.56H328.309L347.539 1072.46Z" fill="#D4D7D0"/>
<path d="M326.393 1084.96H348.927V1161.81H326.393V1084.96Z" fill="#EEEEED" stroke="#3566A5" stroke-width="0.64148"/>
<path d="M340.931 1089.56H346.416V1110.05L340.931 1089.56Z" fill="white"/>
<path d="M347.539 1149.32V1159.41H328.309L347.539 1149.32Z" fill="#D4D7D0"/>
<path d="M326.393 1161.82H348.927V1238.67H326.393V1161.82Z" fill="#EEEEED" stroke="#3566A5" stroke-width="0.64148"/>
<path d="M340.931 1166.42H346.416V1186.91L340.931 1166.42Z" fill="white"/>
<path d="M347.539 1226.18V1236.17H328.309L347.539 1226.18Z" fill="#D4D7D0"/>
<path d="M326.393 1238.68H348.927V1315.53H326.393V1238.68Z" fill="#EEEEED" stroke="#3566A5" stroke-width="0.64148"/>
<path d="M340.931 1243.28H346.416V1263.77L340.931 1243.28Z" fill="white"/>
<path d="M347.539 1303.04V1313.13H328.309L347.539 1303.04Z" fill="#D4D7D0"/>
<path d="M326.393 1315.54H348.927V1392.39H326.393V1315.54Z" fill="#EEEEED" stroke="#3566A5" stroke-width="0.64148"/>
<path d="M340.931 1320.14H346.416V1340.62L340.931 1320.14Z" fill="white"/>
<path d="M348.911 623.805H371.446V700.655H348.911V623.805Z" fill="#EEEEED" stroke="#3566A5" stroke-width="0.64148"/>
<path d="M363.451 628.302H368.936V648.789L363.451 628.302Z" fill="white"/>
<path d="M370.06 688.062V698.156H350.829L370.06 688.062Z" fill="#D4D7D0"/>
<path d="M348.911 700.665H371.446V777.514H348.911V700.665Z" fill="#EEEEED" stroke="#3566A5" stroke-width="0.64148"/>
<path d="M363.451 705.162H368.936V725.648L363.451 705.162Z" fill="white"/>
<path d="M370.06 764.922V775.016H350.829L370.06 764.922Z" fill="#D4D7D0"/>
<path d="M348.911 777.524H371.446V854.374H348.911V777.524Z" fill="#EEEEED" stroke="#3566A5" stroke-width="0.64148"/>
<path d="M363.451 782.022H368.936V802.508L363.451 782.022Z" fill="white"/>
<path d="M370.06 841.782V851.876H350.829L370.06 841.782Z" fill="#D4D7D0"/>
<path d="M348.911 854.385H371.446V931.234H348.911V854.385Z" fill="#EEEEED" stroke="#3566A5" stroke-width="0.64148"/>
<path d="M363.451 858.981H368.936V879.468L363.451 858.981Z" fill="white"/>
<path d="M370.06 918.643V928.736H350.829L370.06 918.643Z" fill="#D4D7D0"/>
<path d="M348.911 931.244H371.446V1008.09H348.911V931.244Z" fill="#EEEEED" stroke="#3566A5" stroke-width="0.64148"/>
<path d="M363.451 935.842H368.936V956.328L363.451 935.842Z" fill="white"/>
<path d="M370.06 995.602V1005.7H350.829L370.06 995.602Z" fill="#D4D7D0"/>
<path d="M348.911 1008.1H371.446V1084.95H348.911V1008.1Z" fill="#EEEEED" stroke="#3566A5" stroke-width="0.64148"/>
<path d="M363.451 1012.7H368.936V1033.19L363.451 1012.7Z" fill="white"/>
<path d="M370.06 1072.46V1082.56H350.829L370.06 1072.46Z" fill="#D4D7D0"/>
<path d="M348.911 1084.96H371.446V1161.81H348.911V1084.96Z" fill="#EEEEED" stroke="#3566A5" stroke-width="0.64148"/>
<path d="M363.451 1089.56H368.936V1110.05L363.451 1089.56Z" fill="white"/>
<path d="M370.06 1149.32V1159.41H350.829L370.06 1149.32Z" fill="#D4D7D0"/>
<path d="M348.911 1161.82H371.446V1238.67H348.911V1161.82Z" fill="#EEEEED" stroke="#3566A5" stroke-width="0.64148"/>
<path d="M363.451 1166.42H368.936V1186.91L363.451 1166.42Z" fill="white"/>
<path d="M370.06 1226.18V1236.17H350.829L370.06 1226.18Z" fill="#D4D7D0"/>
<path d="M348.911 1238.68H371.446V1315.53H348.911V1238.68Z" fill="#EEEEED" stroke="#3566A5" stroke-width="0.64148"/>
<path d="M363.451 1243.28H368.936V1263.77L363.451 1243.28Z" fill="white"/>
<path d="M370.06 1303.04V1313.13H350.829L370.06 1303.04Z" fill="#D4D7D0"/>
<path d="M348.911 1315.54H371.446V1392.39H348.911V1315.54Z" fill="#EEEEED" stroke="#3566A5" stroke-width="0.64148"/>
<path d="M363.451 1320.14H368.936V1340.62L363.451 1320.14Z" fill="white"/>
<path d="M371.432 623.805H393.966V700.655H371.432V623.805Z" fill="#EEEEED" stroke="#3566A5" stroke-width="0.64148"/>
<path d="M385.97 628.302H391.455V648.789L385.97 628.302Z" fill="white"/>
<path d="M392.579 688.062V698.156H373.349L392.579 688.062Z" fill="#D4D7D0"/>
<path d="M371.432 700.665H393.966V777.514H371.432V700.665Z" fill="#EEEEED" stroke="#3566A5" stroke-width="0.64148"/>
<path d="M385.97 705.162H391.455V725.648L385.97 705.162Z" fill="white"/>
<path d="M392.579 764.922V775.016H373.349L392.579 764.922Z" fill="#D4D7D0"/>
<path d="M371.432 777.524H393.966V854.374H371.432V777.524Z" fill="#EEEEED" stroke="#3566A5" stroke-width="0.64148"/>
<path d="M385.97 782.022H391.455V802.508L385.97 782.022Z" fill="white"/>
<path d="M392.579 841.782V851.876H373.349L392.579 841.782Z" fill="#D4D7D0"/>
<path d="M371.432 854.385H393.966V931.234H371.432V854.385Z" fill="#EEEEED" stroke="#3566A5" stroke-width="0.64148"/>
<path d="M385.97 858.981H391.455V879.468L385.97 858.981Z" fill="white"/>
<path d="M392.579 918.643V928.736H373.349L392.579 918.643Z" fill="#D4D7D0"/>
<path d="M371.432 931.244H393.966V1008.09H371.432V931.244Z" fill="#EEEEED" stroke="#3566A5" stroke-width="0.64148"/>
<path d="M385.97 935.842H391.455V956.328L385.97 935.842Z" fill="white"/>
<path d="M392.579 995.602V1005.7H373.349L392.579 995.602Z" fill="#D4D7D0"/>
<path d="M371.432 1008.1H393.966V1084.95H371.432V1008.1Z" fill="#EEEEED" stroke="#3566A5" stroke-width="0.64148"/>
<path d="M385.97 1012.7H391.455V1033.19L385.97 1012.7Z" fill="white"/>
<path d="M392.579 1072.46V1082.56H373.349L392.579 1072.46Z" fill="#D4D7D0"/>
<path d="M371.432 1084.96H393.966V1161.81H371.432V1084.96Z" fill="#EEEEED" stroke="#3566A5" stroke-width="0.64148"/>
<path d="M385.97 1089.56H391.455V1110.05L385.97 1089.56Z" fill="white"/>
<path d="M392.579 1149.32V1159.41H373.349L392.579 1149.32Z" fill="#D4D7D0"/>
<path d="M371.432 1161.82H393.966V1238.67H371.432V1161.82Z" fill="#EEEEED" stroke="#3566A5" stroke-width="0.64148"/>
<path d="M385.97 1166.42H391.455V1186.91L385.97 1166.42Z" fill="white"/>
<path d="M392.579 1226.18V1236.17H373.349L392.579 1226.18Z" fill="#D4D7D0"/>
<path d="M371.432 1238.68H393.966V1315.53H371.432V1238.68Z" fill="#EEEEED" stroke="#3566A5" stroke-width="0.64148"/>
<path d="M385.97 1243.28H391.455V1263.77L385.97 1243.28Z" fill="white"/>
<path d="M392.579 1303.04V1313.13H373.349L392.579 1303.04Z" fill="#D4D7D0"/>
<path d="M371.432 1315.54H393.966V1392.39H371.432V1315.54Z" fill="#EEEEED" stroke="#3566A5" stroke-width="0.64148"/>
<path d="M385.97 1320.14H391.455V1340.62L385.97 1320.14Z" fill="white"/>
<path d="M393.951 623.805H416.486V700.655H393.951V623.805Z" fill="#EEEEED" stroke="#3566A5" stroke-width="0.64148"/>
<path d="M408.49 628.302H413.975V648.789L408.49 628.302Z" fill="white"/>
<path d="M415.1 688.062V698.156H395.869L415.1 688.062Z" fill="#D4D7D0"/>
<path d="M393.951 700.665H416.486V777.514H393.951V700.665Z" fill="#EEEEED" stroke="#3566A5" stroke-width="0.64148"/>
<path d="M408.49 705.162H413.975V725.648L408.49 705.162Z" fill="white"/>
<path d="M415.1 764.922V775.016H395.869L415.1 764.922Z" fill="#D4D7D0"/>
<path d="M393.951 777.524H416.486V854.374H393.951V777.524Z" fill="#EEEEED" stroke="#3566A5" stroke-width="0.64148"/>
<path d="M408.49 782.022H413.975V802.508L408.49 782.022Z" fill="white"/>
<path d="M415.1 841.782V851.876H395.869L415.1 841.782Z" fill="#D4D7D0"/>
<path d="M393.951 854.385H416.486V931.234H393.951V854.385Z" fill="#EEEEED" stroke="#3566A5" stroke-width="0.64148"/>
<path d="M408.49 858.981H413.975V879.468L408.49 858.981Z" fill="white"/>
<path d="M415.1 918.643V928.736H395.869L415.1 918.643Z" fill="#D4D7D0"/>
<path d="M393.951 931.244H416.486V1008.09H393.951V931.244Z" fill="#EEEEED" stroke="#3566A5" stroke-width="0.64148"/>
<path d="M408.49 935.842H413.975V956.328L408.49 935.842Z" fill="white"/>
<path d="M415.1 995.602V1005.7H395.869L415.1 995.602Z" fill="#D4D7D0"/>
<path d="M393.951 1008.1H416.486V1084.95H393.951V1008.1Z" fill="#EEEEED" stroke="#3566A5" stroke-width="0.64148"/>
<path d="M408.49 1012.7H413.975V1033.19L408.49 1012.7Z" fill="white"/>
<path d="M415.1 1072.46V1082.56H395.869L415.1 1072.46Z" fill="#D4D7D0"/>
<path d="M393.951 1084.96H416.486V1161.81H393.951V1084.96Z" fill="#EEEEED" stroke="#3566A5" stroke-width="0.64148"/>
<path d="M408.49 1089.56H413.975V1110.05L408.49 1089.56Z" fill="white"/>
<path d="M415.1 1149.32V1159.41H395.869L415.1 1149.32Z" fill="#D4D7D0"/>
<path d="M393.951 1161.82H416.486V1238.67H393.951V1161.82Z" fill="#EEEEED" stroke="#3566A5" stroke-width="0.64148"/>
<path d="M408.49 1166.42H413.975V1186.91L408.49 1166.42Z" fill="white"/>
<path d="M415.1 1226.18V1236.17H395.869L415.1 1226.18Z" fill="#D4D7D0"/>
<path d="M393.951 1238.68H416.486V1315.53H393.951V1238.68Z" fill="#EEEEED" stroke="#3566A5" stroke-width="0.64148"/>
<path d="M408.49 1243.28H413.975V1263.77L408.49 1243.28Z" fill="white"/>
<path d="M415.1 1303.04V1313.13H395.869L415.1 1303.04Z" fill="#D4D7D0"/>
<path d="M393.951 1315.54H416.486V1392.39H393.951V1315.54Z" fill="#EEEEED" stroke="#3566A5" stroke-width="0.64148"/>
<path d="M408.49 1320.14H413.975V1340.62L408.49 1320.14Z" fill="white"/>
<path d="M258.767 544.957H416.708V624.205H258.767V544.957Z" fill="url(#paint12_linear)"/>
<path d="M443 468H645.817V927.583H443V468Z" fill="url(#paint13_linear)"/>
<path d="M458.045 485.396H630.764V496.478H458.045V485.396Z" fill="#565854"/>
<path d="M458.044 510.777H630.763V521.858H458.044V510.777Z" fill="#565854"/>
<path d="M458.044 663.177H630.763V674.258H458.044V663.177Z" fill="#565854"/>
<path d="M458.044 688.557H630.763V699.638H458.044V688.557Z" fill="#565854"/>
<path d="M458.044 713.937H630.763V725.018H458.044V713.937Z" fill="#565854"/>
<path d="M458.044 739.317H630.763V750.399H458.044V739.317Z" fill="#565854"/>
<path d="M458.044 764.697H630.763V775.779H458.044V764.697Z" fill="#565854"/>
<path d="M458.044 790.137H630.763V801.219H458.044V790.137Z" fill="#565854"/>
<path d="M458.044 815.517H630.763V826.598H458.044V815.517Z" fill="#565854"/>
<path d="M458.044 840.897H630.763V851.979H458.044V840.897Z" fill="#565854"/>
<path d="M458.044 866.277H630.763V877.358H458.044V866.277Z" fill="#565854"/>
<path d="M458.044 536.217H630.763V547.298H458.044V536.217Z" fill="#565854"/>
<path d="M458.044 561.597H630.763V572.678H458.044V561.597Z" fill="#565854"/>
<path d="M458.044 586.977H630.763V598.058H458.044V586.977Z" fill="#565854"/>
<path d="M458.044 612.357H630.763V623.438H458.044V612.357Z" fill="#565854"/>
<path d="M458.044 637.737H630.763V648.818H458.044V637.737Z" fill="#565854"/>
<path d="M483.031 468.716H486.718V884.748H483.031V468.716Z" fill="#8A9DA5"/>
<path d="M602.109 474.196H605.796V890.227H602.109V474.196Z" fill="#8A9DA5"/>
<path d="M522.755 471.277H526.442V887.308H522.755V471.277Z" fill="#8A9DA5"/>
<path d="M562.386 469.549H566.072V885.58H562.386V469.549Z" fill="#8A9DA5"/>
<path d="M619.188 891.419H630.247V926.272H619.188V891.419Z" fill="#565854"/>
<path d="M538.911 891.419H549.971V926.272H538.911V891.419Z" fill="#565854"/>
<path d="M525.547 891.419H536.607V926.272H525.547V891.419Z" fill="#565854"/>
<path d="M512.182 891.419H523.242V926.272H512.182V891.419Z" fill="#565854"/>
<path d="M498.726 891.419H509.786V926.272H498.726V891.419Z" fill="#565854"/>
<path d="M485.361 891.419H496.421V926.272H485.361V891.419Z" fill="#565854"/>
<path d="M471.998 891.419H483.058V926.272H471.998V891.419Z" fill="#565854"/>
<path d="M458.633 891.419H469.693V926.272H458.633V891.419Z" fill="#565854"/>
<path d="M445.27 891.419H456.33V926.272H445.27V891.419Z" fill="#565854"/>
<path d="M632.551 891.419H643.611V926.272H632.551V891.419Z" fill="#565854"/>
<path d="M605.822 891.419H616.882V926.272H605.822V891.419Z" fill="#565854"/>
<path d="M592.366 891.419H603.426V926.272H592.366V891.419Z" fill="#565854"/>
<path d="M579.003 891.419H590.063V926.272H579.003V891.419Z" fill="#565854"/>
<path d="M565.639 891.419H576.699V926.272H565.639V891.419Z" fill="#565854"/>
<path d="M552.275 891.419H563.335V926.272H552.275V891.419Z" fill="#565854"/>
<path d="M147.516 99.155C104.244 102.355 89.8195 168.873 121.05 196.646C131.107 220.533 96.3038 246.477 78.3066 226.133C47.6056 214.475 10.2879 230.933 -3.73929 261.906C-38.0133 242.705 -79.301 276.422 -81.1536 314.366C-87.2409 352.768 -59.8482 399.628 -19.7515 396.885C5.39158 398.942 19.1541 356.654 45.7529 380.998C73.9396 391.399 100.274 350.368 122.373 375.512C146.458 388.427 178.217 385.341 198.067 365.569C225.857 383.17 263.042 349.454 286.333 380.427C328.547 409.914 394.183 398.371 420.385 351.397C443.014 348.311 455.718 388.542 483.64 379.056C506.004 385.913 526.78 352.768 539.881 358.483C565.951 385.684 615.707 368.655 622.721 330.939C633.705 294.708 603.401 249.22 565.818 255.849C533.397 275.621 524.531 212.418 489.727 220.647C480.993 208.989 502.828 182.359 488.801 164.301C479.935 136.3 446.587 119.842 421.708 135.385C409.931 148.758 397.889 179.274 379.759 153.786C353.425 133.785 316.902 151.158 293.346 145.672C266.351 119.156 224.666 108.984 189.863 123.728C181.526 108.527 164.852 97.5549 147.516 99.155Z" fill="url(#paint14_linear)"/>
<path d="M207.438 181.094C181.389 183.038 172.927 227.972 191.968 247.067C198.182 263.303 177.29 280.682 166.315 266.848C147.671 258.73 125.192 269.706 116.994 290.63C96.2338 277.367 71.3748 300.006 70.4492 325.846C67.0112 351.915 83.6721 383.815 108.002 382.215C123.209 383.701 131.274 355.117 147.406 371.81C164.464 379.013 180.199 351.343 193.686 368.494C208.232 377.412 227.405 375.469 239.438 362.205C256.363 374.325 278.577 351.686 292.858 372.725C318.511 392.963 358.047 385.531 373.65 353.859C387.27 351.915 395.203 379.242 411.996 372.953C425.484 377.756 437.913 355.345 445.847 359.347C461.715 377.984 491.73 366.665 495.697 341.053C502.176 316.585 483.532 285.485 460.921 289.829C441.484 303.093 435.798 260.101 414.773 265.475C409.484 257.472 422.575 239.521 413.98 227.286C408.426 208.192 388.195 196.872 373.386 207.277C366.245 216.31 359.237 236.891 348.13 219.511C332.13 205.791 310.18 217.339 295.899 213.566C279.503 195.386 254.247 188.297 233.355 198.13C228.066 187.611 217.884 180.065 207.438 181.094Z" fill="url(#paint15_linear)"/>
<path d="M707.565 518.41C268.815 570.975 -115.347 1378.72 -131 1387H1739C1587.69 1070.02 1346.55 441.856 707.565 518.41Z" fill="#4E7436"/>
<path opacity="0.1" d="M803 585.435C843.317 585.435 876 577.75 876 568.27C876 558.79 843.317 551.104 803 551.104C762.683 551.104 730 558.79 730 568.27C730 577.75 762.683 585.435 803 585.435Z" fill="#010101"/>
<path d="M857.673 571.764L854.404 573.663L854.252 573.814L847.636 573.966L833.264 568.498L818.436 564.472L814.102 549.054L815.927 546.7L816.079 546.624L816.155 544.269L832.352 544.953L832.199 549.434L848.168 560.675L855.544 565.156L857.673 571.764Z" fill="#534E5D"/>
<path opacity="0.2" d="M857.674 571.764L854.404 573.662L853.415 566.599L848.092 567.966L823.683 552.548V547.915L815.927 546.699L816.079 546.623L816.155 544.269L832.352 544.952L832.2 549.434L848.168 560.674L855.544 565.156L857.674 571.764Z" fill="#010101"/>
<path opacity="0.2" d="M838.815 553.686L830.755 555.585L831.668 556.573L839.88 554.522L838.815 553.686ZM835.622 551.332L834.785 550.724L825.66 552.471L826.725 553.535L835.926 551.636L835.622 551.332ZM842.389 556.345L835.318 558.396L836.154 559.307L843.454 557.104L842.389 556.345ZM848.853 561.054L843.15 563.181L843.834 563.94L849.842 561.586L848.853 561.054ZM845.735 558.775L839.424 560.826L840.184 561.662L846.648 559.459L845.735 558.775Z" fill="#010101"/>
<path d="M849.765 560.446L843.454 562.801L844.138 563.56L850.298 561.206L849.765 560.446ZM846.648 558.244L839.728 560.522L840.488 561.358L847.256 559.079L846.648 558.244ZM843.226 555.813L835.621 557.94L836.458 558.851L843.91 556.649L843.226 555.813ZM839.5 553.231L831.135 555.206L832.047 556.193L840.26 554.142L839.5 553.231ZM826.116 552.016L827.181 553.079L836.306 551.256L835.469 550.269L826.116 552.016Z" fill="#231F20"/>
<path opacity="0.1" d="M818.665 564.548L833.265 568.498L847.637 573.966V569.105L835.242 561.51L825.205 561.13L818.665 564.548Z" fill="#010101"/>
<path d="M794.028 549.054L789.693 564.472L774.865 568.498L760.493 573.966L753.878 573.815L753.726 573.663L750.38 571.764L752.585 565.156L759.885 560.675L775.93 549.434L775.778 545.408L775.702 544.953L781.861 544.725L791.823 544.269H791.975V544.345L792.051 546.624L792.127 546.7L794.028 549.054Z" fill="#534E5D"/>
<path opacity="0.2" d="M768.173 554.522L776.386 556.573L777.298 555.586L769.238 553.687L768.173 554.522ZM772.204 551.636L781.405 553.535L782.469 552.472L773.344 550.725L772.508 551.332L772.204 551.636ZM764.676 557.105L771.976 559.307L772.812 558.396L765.74 556.345L764.676 557.105ZM758.288 561.662L764.295 564.016L764.98 563.257L759.277 561.13L758.288 561.662ZM761.482 559.535L767.945 561.738L768.706 560.902L762.394 558.852L761.482 559.535Z" fill="#010101"/>
<path d="M757.756 561.206L763.915 563.561L764.6 562.801L758.288 560.447L757.756 561.206ZM760.798 559.08L767.565 561.358L768.326 560.523L761.406 558.244L760.798 559.08ZM764.143 556.725L771.595 558.928L772.432 558.016L764.828 555.89L764.143 556.725ZM767.793 554.143L776.006 556.193L776.918 555.206L768.554 553.231L767.793 554.143ZM772.66 550.269L771.824 551.256L780.949 553.079L782.013 552.016L772.66 550.269Z" fill="#231F20"/>
<path opacity="0.1" d="M789.465 564.548L774.865 568.498L760.493 573.966V569.105L772.888 561.51L782.925 561.13L789.465 564.548Z" fill="#010101"/>
<path opacity="0.2" d="M794.029 549.054L789.694 564.472L774.866 568.498L760.494 573.966L753.879 573.814L753.727 573.662L750.381 571.764L752.586 565.156L754.031 568.27H760.646L774.638 559.535L785.056 555.662L786.729 550.953L775.931 549.434L775.779 545.408L781.862 544.724L790.607 543.737L791.824 544.269L791.976 544.345L792.052 546.623L792.128 546.699L794.029 549.054Z" fill="#010101"/>
<path d="M784.065 478.646H828.55L814.558 367.983L790.757 372.464L784.065 478.646Z" fill="#534E5D"/>
<path opacity="0.5" d="M784.065 478.646H828.55L814.558 367.983L790.757 372.464L784.065 478.646Z" fill="#010101"/>
<path d="M832.656 538.878L831.515 548.144L813.95 547.688V546.929L814.254 536.144L816.231 536.599L815.471 490.192L814.862 454.419L806.194 377.707L803.456 377.555H803.076L800.262 377.707L792.43 447.127L791.67 454.419L791.441 467.786L791.061 487.23L790.985 493.078L790.225 534.852V536.599L792.202 536.144L792.506 547.688L774.94 548.144L773.8 538.878L776.689 537.966V537.814L777.754 487.762V485.863L778.438 455.254L780.339 362.82L780.415 361.225L780.491 356.212L795.928 354.617L802.467 353.934V353.782L803.228 353.858L803.988 353.782V353.934L825.964 356.212L828.398 472.343L829.766 536.675V537.814V537.966L832.656 538.878Z" fill="#76A8DA"/>
<path opacity="0.2" d="M816.231 536.599L823.911 534.016L820.946 490.723L815.471 490.192H815.395L814.862 454.418L806.194 377.706L803.456 377.554H803.076L800.262 377.706L792.43 447.127L791.67 454.418L791.441 467.786L791.061 487.229L790.985 493.078L790.225 536.599L776.689 537.966L783.913 533.029L785.586 489.128L777.754 487.761V485.862L778.438 455.253L780.339 362.819L780.415 361.224L780.492 356.211L795.928 354.616L802.468 353.933V353.781L803.228 353.857L803.988 353.781V353.933L825.964 356.211L828.322 472.495L828.398 472.343L829.766 537.814L816.231 536.599Z" fill="#010101"/>
<path opacity="0.2" d="M792.506 547.687L774.94 548.142L786.879 545.028L785.51 537.129L776.689 537.965L775.625 538.041L776.689 537.813L790.225 534.851V536.598L792.202 536.142L792.506 547.687Z" fill="#010101"/>
<path opacity="0.2" d="M832.655 538.876L831.515 548.142L813.949 547.687V546.927L826.572 544.8L827.18 537.813L816.23 536.597L829.766 536.673V537.813V537.965L832.655 538.876Z" fill="#010101"/>
<path opacity="0.2" d="M778.515 490.57L777.679 535.99L783.23 533.635L782.773 490.57H778.515Z" fill="white"/>
<path opacity="0.2" d="M816.384 494.064L817.524 532.876L822.467 533.104L820.946 494.064H816.384Z" fill="white"/>
<path opacity="0.2" d="M826.193 367.831L825.964 356.134L803.988 353.856V353.704L803.228 353.78L802.468 353.704V353.856L797.981 354.311L795.928 354.615L780.492 356.21L780.415 361.299V362.894L780.339 367.907L778.514 455.252L777.906 485.861L777.83 487.76H786.651C786.879 485.405 787.031 482.975 787.183 480.62C788.096 469 788.78 457.379 789.388 445.758C790.073 434.062 790.757 422.365 791.67 410.668C792.658 399.047 793.951 387.503 795.32 375.958C795.624 373.224 795.928 370.565 796.232 367.831L800.871 377.933L806.194 377.629L811.745 385.072C811.745 385.072 817.448 430.947 819.957 453.885C821.174 465.126 822.391 476.367 823.303 487.684H828.702L826.193 367.831Z" fill="#010101"/>
<path d="M811.745 253.978L808.78 263.548L804.673 267.498L801.936 267.65L800.187 265.903L797.754 263.548L797.449 262.561L797.373 262.409L795.776 257.168L794.864 254.434L794.712 253.978L795.092 253.902L796.537 253.75H809.92L811.745 253.978Z" fill="#F0A88F"/>
<path opacity="0.2" d="M811.748 253.978L808.783 263.548L804.677 267.498L801.939 267.65H801.559L800.19 265.903L797.453 262.561L797.224 262.333L797.377 262.409L803.232 264.308L807.718 262.257L808.783 258.232L803.08 260.055L795.78 257.168L794.867 254.434L795.095 253.902L795.171 253.75H809.923L811.748 253.978Z" fill="#7C1315"/>
<path d="M803.609 282.233L811.821 274.334L805.814 265.979H803.228H800.643L794.636 274.334L802.848 282.233V282.992L803.228 282.613L803.609 282.992V282.233Z" fill="#F1F7E6"/>
<path opacity="0.3" d="M811.821 274.334L805.814 265.979H804.521H803.228H801.936H800.643L794.636 274.334L797.525 277.068C798.742 275.397 799.959 273.802 801.175 272.207C801.86 271.296 802.544 270.384 803.228 269.473L808.095 275.777L811.821 274.334Z" fill="#010101"/>
<path d="M846.8 276.233L836.839 307.449L836.534 308.436L826.345 345.425L826.573 354.464L826.649 356.818H779.807L779.883 354.464L780.111 345.957V345.425L772.203 316.639L769.922 308.436L769.618 307.449L767.793 301.677L759.656 276.233L764.979 274.334L788.324 266.055L791.214 265.068L793.191 264.384L800.643 275.549L803.228 279.499L806.422 274.638L813.266 264.384L818.132 266.055L841.477 274.334L846.8 276.233Z" fill="#EBB81F"/>
<path opacity="0.2" d="M779.883 354.464L779.807 356.818L793.951 357.274L791.442 267.194L793.191 264.384L791.214 265.068L788.324 266.055L764.979 274.334L759.656 276.233L767.793 301.677L769.618 307.449L769.922 308.436L772.203 316.639L780.111 345.425V345.957L779.883 354.464Z" fill="#752F20"/>
<path d="M764.979 274.334L759.656 276.233L769.694 307.449L769.922 308.436L771.671 300.006L768.097 279.802L764.979 274.334ZM841.477 274.334L838.359 279.726L834.785 299.93L836.534 308.36L836.763 307.373L846.8 276.157L841.477 274.334ZM803.228 286.866L815.395 273.043L818.132 266.131L813.342 264.384L803.304 279.499L793.267 264.384L788.476 266.131L791.214 273.043L803.228 286.866ZM803.38 356.21H803.152L779.959 354.464L779.579 362.742L803.304 363.426L827.029 362.742L826.649 354.464L803.38 356.21Z" fill="#B32550"/>
<path opacity="0.2" d="M846.8 276.232L836.839 307.449L836.534 308.436L826.345 345.425L826.573 354.463L826.649 356.818H810.452L803.076 356.21V331.905L803.38 305.474L803.228 279.498L806.422 274.637L813.266 264.384L818.132 266.055L841.477 274.334L846.8 276.232Z" fill="#752F20"/>
<path opacity="0.2" d="M798.057 278.663L791.213 265.067L793.19 264.384L800.642 275.549L798.057 278.663Z" fill="#010101"/>
<path opacity="0.2" d="M846.799 276.232L836.838 307.449L836.534 308.436L826.344 345.425L826.572 354.463L826.648 356.818H779.807L779.883 354.463L780.111 345.957L803.303 353.172L819.272 344.438L825.812 312.841L803.38 306.689L779.883 311.474L772.202 316.639L769.921 308.436L769.617 307.449L767.792 301.676L779.655 309.575L803.38 305.474L828.397 308.512L833.264 282.081L814.025 272.359L810.071 277.296L806.421 274.637L813.265 264.384L818.132 266.055L841.476 274.334L846.799 276.232Z" fill="#752F20"/>
<path d="M814.33 264.384L809.235 262.333L803.228 265.979L797.221 262.333L792.126 264.384L797.449 274.789L803.228 266.131L809.007 274.789L814.33 264.384Z" fill="#F1F7E6"/>
<path opacity="0.1" d="M814.329 264.384L809.234 262.333L803.227 265.979L797.22 262.333L801.326 266.434L797.448 274.789L803.227 266.131L809.006 274.789L814.329 264.384Z" fill="#010101"/>
<path opacity="0.5" d="M796.537 263.168L800.111 266.51L797.602 273.27L797.754 266.586L796.537 263.168Z" fill="white"/>
<path d="M844.899 328.564L836.458 341.02L834.709 343.602L847.18 364.413L872.73 330.918L850.146 278.739L843.986 273.194L830.375 269.169L825.356 267.726L816.383 265.067L814.406 363.274L824.976 485.557L830.831 485.633H833.112L841.933 485.709L828.626 362.362L837.066 309.651L848.853 324.766L849.461 325.526L849.233 325.677L844.899 328.564ZM789.616 265.067L780.643 267.726L775.625 269.169L762.013 273.194L755.854 278.739L733.27 330.918L758.82 364.337L758.896 364.413L771.366 343.602L761.177 328.564L756.614 325.526L769.009 309.651L775.092 347.476L777.526 362.438L775.853 377.705L763.99 485.633L772.811 485.557H775.092L780.948 485.481L791.517 363.198L789.616 265.067Z" fill="#534E5D"/>
<path opacity="0.2" d="M849.233 325.677L849.462 325.526L848.929 324.766L837.067 309.651L828.626 362.362L842.009 485.633L833.189 485.557H830.907L825.052 485.481L814.482 363.274L816.383 265.067L825.356 267.65L830.375 269.169L843.987 273.194L850.146 278.739L872.73 330.842L847.18 364.413L834.709 343.602L836.458 341.02L844.899 328.564L849.233 325.677Z" fill="#010101"/>
<path opacity="0.2" d="M785.738 350.742L780.719 267.65L775.7 269.093L781.86 349.527L775.092 347.4L777.525 362.363L775.852 377.629L781.784 381.958L772.963 485.557H775.244L786.65 366.008L785.738 350.742ZM822.998 366.008L830.374 269.169L825.356 267.726L819.424 366.008L830.907 485.557H833.188L822.998 366.008Z" fill="#010101"/>
<path opacity="0.2" d="M872.73 330.842L847.18 364.413L834.709 343.602L836.458 341.02L844.138 345.577L862.92 332.437L862.616 323.855L849.233 325.677L849.461 325.526L848.929 324.766L859.498 318.158L847.94 289.22L842.465 292.182L837.066 309.651L837.675 290.815L843.986 273.194L850.145 278.739L872.73 330.842Z" fill="#010101"/>
<path opacity="0.2" d="M771.289 343.602L758.818 364.413V364.338L764.217 344.514L756.689 329.475L743.382 328.412L763.533 304.487L764.902 284.663L768.932 309.652L756.537 325.526L761.1 328.564L771.289 343.602Z" fill="#010101"/>
<path opacity="0.1" d="M846.647 295.752L857.749 316.031L853.871 319.297L841.933 304.259L846.647 295.752Z" fill="white"/>
<path opacity="0.1" d="M756.08 281.169L758.589 289.524L738.134 330.235H743.001L757.905 361.451L734.408 330.69L756.08 281.169Z" fill="white"/>
<path opacity="0.1" d="M786.878 266.283L781.251 268.182L786.954 361.375L786.878 266.283Z" fill="white"/>
<path opacity="0.1" d="M816.991 266.283L822.542 267.954L816.154 337.222L816.991 266.283Z" fill="white"/>
<path opacity="0.1" d="M859.802 325.602L850.221 326.589L846.343 328.64L838.435 340.64L851.59 328.488L859.802 325.602Z" fill="white"/>
<path opacity="0.1" d="M775.548 395.857L771.062 484.266H765.511L775.548 395.857Z" fill="white"/>
<path d="M779.503 350.591V374.288L770.226 373.681L763.231 369.807L760.417 368.82L760.949 366.769L766.348 366.541L773.8 367.756V365.933L769.922 360.693L770.454 352.414L767.261 350.363L769.542 346.642L770.607 344.591L771.139 345.122L774.104 348.388L779.503 350.591Z" fill="#FBC7B4"/>
<path opacity="0.1" d="M774.105 348.388L772.66 346.717L771.139 345.047L770.911 344.819L770.683 344.591L769.466 346.566L769.542 346.642L767.337 350.363L769.39 351.654C770.15 350.667 770.911 349.68 771.671 348.616L773.724 350.667L777.07 352.718L774.409 361.528L776.538 370.946L773.8 367.68L766.348 366.465L760.949 366.769L760.417 368.82L763.231 369.807L770.15 373.681L779.427 374.288V350.667L774.105 348.388Z" fill="#7C1315"/>
<path opacity="0.2" d="M776.462 371.021L768.097 367.831L760.949 366.768L766.348 366.616L773.8 367.831V367.527L776.462 371.021Z" fill="#010101"/>
<path d="M826.497 350.591V374.288L835.774 373.68L842.694 369.807L845.584 368.819L845.051 366.769L839.652 366.541L832.2 367.756V365.933L836.002 360.692L835.546 352.414L838.816 350.287L836.535 346.565L835.318 344.591L834.862 345.122L831.896 348.388L826.497 350.591Z" fill="#FBC7B4"/>
<path opacity="0.1" d="M845.051 366.768L839.652 366.54L832.2 367.755L829.463 371.021L831.592 361.603L828.93 352.792L832.276 350.742L834.862 348.159C835.546 349.299 836.154 350.438 836.839 351.501L838.74 350.21L836.458 346.488L835.242 344.514L834.785 345.045L833.721 346.261L831.82 348.387L826.421 350.59V374.211L835.698 373.603L842.618 369.73L845.431 368.742L845.051 366.768Z" fill="#7C1315"/>
<path opacity="0.2" d="M829.463 371.021L837.827 367.831L845.051 366.768L839.652 366.616L832.2 367.831V367.527L829.463 371.021Z" fill="#010101"/>
<path d="M845.431 184.406V164.734L843.302 164.126V184.406H845.431Z" fill="#FFDE11"/>
<path d="M845.431 184.482V164.734L843.302 164.126V184.482H845.431Z" fill="#FFDE11"/>
<path opacity="0.3" d="M843.302 179.469V184.482H845.431V179.013C844.747 179.165 843.986 179.317 843.302 179.469Z" fill="#DF5E26"/>
<path opacity="0.3" d="M845.431 168.836V164.734L843.302 164.126V169.671C843.986 169.367 844.747 169.063 845.431 168.836Z" fill="#DF5E26"/>
<path opacity="0.3" d="M845.431 182.052V164.735L844.139 164.355V182.052H845.431Z" fill="#DF5E26"/>
<path d="M844.519 186.761L848.777 185.394L848.549 181.14L844.443 179.925L840.413 181.14L840.108 185.394L844.367 186.761L844.443 186.837L844.519 186.761Z" fill="#FFDE11"/>
<path opacity="0.3" d="M848.777 185.394V185.318L848.549 181.14L844.443 179.925L844.215 184.102L840.108 185.394L844.139 186.685L844.367 186.761L844.443 186.837L844.519 186.761L848.777 185.394Z" fill="#DF5E26"/>
<path opacity="0.3" d="M848.776 185.394V185.318L844.214 184.103L840.107 185.394L844.138 186.685L844.366 186.761L844.442 186.837L844.518 186.761L848.776 185.394Z" fill="#DF5E26"/>
<path d="M849.842 198.912L847.713 199.748L844.291 199.672L840.869 199.748L838.74 198.912L840.109 189.95L841.63 185.773L844.291 185.241L846.953 185.773L848.474 189.95L849.842 198.912Z" fill="#FFDE11"/>
<path opacity="0.3" d="M848.472 189.95L846.952 185.773L844.366 185.241V199.672L847.712 199.748L849.841 198.912L848.472 189.95Z" fill="#DF5E26"/>
<path opacity="0.2" d="M849.841 198.913L847.712 199.748L844.29 199.672L840.868 199.748L838.739 198.913L844.442 197.698L849.841 198.913Z" fill="#DF5E26"/>
<path d="M832.048 166.405L831.288 172.937L828.322 197.698L778.515 197.09L775.169 181.976L773.952 176.659L832.048 166.405Z" fill="#534E5D"/>
<path opacity="0.2" d="M832.048 166.405L773.952 176.659L775.169 181.976L803.38 177.418V197.394L828.322 197.698L828.854 192.989L831.288 172.937L832.048 166.405Z" fill="#010101"/>
<path opacity="0.2" d="M825.584 170.507L831.668 169.291L832.048 166.405L803.532 171.418L773.876 176.887L774.788 180.456L803.228 174.608L803.532 197.394L826.117 197.622L825.584 170.507Z" fill="#010101"/>
<path d="M760.645 179.241L846.496 165.342V162L760.341 176.507L760.645 179.241Z" fill="#534E5D"/>
<path opacity="0.2" d="M760.646 179.241L846.497 165.342V162L760.646 179.241Z" fill="#010101"/>
<path opacity="0.2" d="M776.31 182.887L785.663 181.368L779.199 195.723L776.31 182.887Z" fill="white"/>
<path d="M836.611 223.37L832.428 220.939L828.398 221.851L826.725 225.572L828.322 232.104L831.82 233.168L835.09 231.724L836.991 223.522L836.611 223.37ZM778.059 221.851L774.028 220.939L769.542 223.522L771.443 231.649V231.724L774.713 233.168L777.983 232.18L778.211 232.104L778.287 231.649L779.732 225.572L778.059 221.851Z" fill="#F0A88F"/>
<path opacity="0.2" d="M774.028 221.015L769.542 223.598L774.333 222.382L777.374 224.661L776.842 226.863L773.42 226.028L776.234 228.307L775.017 231.649L771.443 231.573V231.649L774.713 233.092L777.983 232.104L778.287 231.573L779.732 225.496L778.059 221.775L774.028 221.015ZM829.083 227.699L833.037 225.496L829.539 225.344L831.364 222.306L836.687 223.37L832.505 220.939L828.474 221.851L826.801 225.572L828.398 232.104L831.896 233.168L835.166 231.724L831.592 231.876L829.083 227.699Z" fill="#7C1315"/>
<path d="M837.601 202.407L826.955 226.484L824.826 225.117L803.382 211.521H803.078L782.091 224.737L779.429 226.484L768.859 202.407L784.524 193.672L785.208 193.293L791.824 187.368L792.508 186.761L803.002 173.013L803.23 172.785L803.458 173.013L813.952 186.761L821.252 193.293L837.601 202.407Z" fill="#DF5E26"/>
<path opacity="0.2" d="M837.6 202.408L826.954 226.485L824.825 225.118L818.057 207.876L794.256 202.104L782.09 224.738L779.428 226.485L768.858 202.408L779.732 206.813L786.424 199.749L791.823 187.369L796.157 194.813L802.925 195.952L809.008 193.673L803.457 173.014L813.951 186.762L821.251 193.293L837.6 202.408Z" fill="#231F20"/>
<path d="M829.616 235.826L819.654 253.143L803.153 257.016L802.925 257.092L802.697 257.016L786.272 253.143L776.234 235.826L787.336 200.508L802.849 202.559L802.925 202.634L818.514 200.508L829.616 235.826Z" fill="#FBC7B4"/>
<path opacity="0.05" d="M789.161 214.863L783.914 224.888L788.172 228.154L799.883 227.015L801.48 222.154L796.613 213.799L789.161 214.863ZM818.513 200.508L803 197.773L802.62 223.293L804.521 227.015L807.107 235.522H798.59L803.685 239.623L812.125 242.509C810.377 243.497 807.487 244.712 803.077 245.244L803.229 256.94L819.73 252.991L829.767 235.674L818.513 200.508ZM810.072 227.167L819.73 228.154L823.608 225.116L827.106 235.977L820.11 238.636L810.072 227.167Z" fill="#7C1315"/>
<path opacity="0.05" d="M823.609 225.116L819.73 228.154L810.073 227.167L820.035 238.712L827.03 236.054L823.609 225.116ZM818.514 200.508L803.001 202.559H802.925L802.621 223.294L804.522 227.015L807.108 235.522L803.001 236.585L803.61 239.547L812.05 242.434C810.301 243.421 807.412 244.636 803.001 245.168L803.153 256.864L819.654 252.915L829.692 235.598L818.514 200.508Z" fill="#7C1315"/>
<path opacity="0.1" d="M796.613 213.875L789.161 214.863L783.914 224.889L789.313 222.762L794.94 222.078L801.48 222.23L796.613 213.875ZM816.688 214.863L809.236 213.875L804.369 222.23L810.909 222.078L816.536 222.762L821.935 224.889L816.688 214.863ZM803.077 248.206L805.434 246.459H800.567L803.077 248.206Z" fill="#7C1315"/>
<path d="M807.107 235.598L804.37 236.661L803.838 236.889H801.784L798.515 235.598L799.275 227.775L801.252 221.775H804.37L806.271 227.775L807.031 235.522L807.107 235.598Z" fill="#E88876"/>
<path opacity="0.1" d="M807.03 235.522L804.369 236.661L803.836 236.889H803.228H802.848V221.775H804.369L806.27 227.775L807.03 235.522Z" fill="#231F20"/>
<path opacity="0.2" d="M802.622 225.496L802.546 236.661H801.937L798.972 235.446L801.329 235.294L802.622 225.496Z" fill="white"/>
<path opacity="0.2" d="M795.321 211.749L789.39 214.027L792.051 207.04L795.321 211.749Z" fill="white"/>
<path opacity="0.2" d="M787.717 203.546L780.721 236.889L791.138 251.168L802.469 256.257L787.184 252.611L777.299 236.129L787.717 203.546Z" fill="white"/>
<path d="M791.899 240.991C791.899 240.915 791.899 240.915 791.899 240.991C791.899 240.915 791.899 240.915 791.899 240.991ZM810.378 243.269C805.815 244.788 800.568 244.788 796.006 243.269C793.04 242.282 792.051 241.218 791.899 240.991C794.409 244.408 802.469 245.244 803.154 245.32C803.914 245.244 811.898 244.408 814.408 240.991C814.408 241.142 813.419 242.206 810.378 243.269ZM814.56 240.991C814.56 240.915 814.56 240.915 814.56 240.991C814.56 240.915 814.56 240.915 814.56 240.991Z" fill="#C0543F"/>
<path d="M789.466 214.863L790.226 215.698L796.918 213.875L796.614 212.052L789.466 214.863ZM809.921 211.977L809.617 213.799L816.308 215.622L817.069 214.787L809.921 211.977Z" fill="#692D12"/>
<path d="M792.051 220.028C790.911 220.028 789.998 220.711 789.998 221.623C789.998 222.534 790.911 223.218 792.051 223.218C793.192 223.218 794.104 222.534 794.104 221.623C794.104 220.787 793.192 220.028 792.051 220.028ZM814.407 220.028C813.267 220.028 812.354 220.711 812.354 221.623C812.354 222.534 813.267 223.218 814.407 223.218C815.548 223.218 816.461 222.534 816.461 221.623C816.461 220.787 815.548 220.028 814.407 220.028Z" fill="#424143"/>
<path d="M790.379 222.079C790.84 222.079 791.215 221.773 791.215 221.395C791.215 221.017 790.84 220.711 790.379 220.711C789.917 220.711 789.542 221.017 789.542 221.395C789.542 221.773 789.917 222.079 790.379 222.079Z" fill="white"/>
<path d="M812.81 222.079C813.272 222.079 813.647 221.773 813.647 221.395C813.647 221.017 813.272 220.711 812.81 220.711C812.348 220.711 811.974 221.017 811.974 221.395C811.974 221.773 812.348 222.079 812.81 222.079Z" fill="white"/>
<path opacity="0.2" d="M803.533 173.621L803.305 195.571L796.842 194.28L803.533 173.621Z" fill="white"/>
<path d="M1440.33 183.006C1409.19 182.505 1381.75 213.834 1372.76 251.069C1360.93 261.579 1348.25 270.787 1336.51 254.872C1316.54 245.864 1292.41 256.674 1280.96 279.595C1257.11 264.181 1223.52 294.109 1231.09 329.041C1235.82 354.965 1260.52 369.679 1279.35 359.769C1292.51 391.198 1328.85 401.408 1350.23 378.086C1365.85 391.599 1386.01 408.414 1404.74 394.201C1422.06 384.192 1440.71 399.406 1457.83 389.897C1472.6 377.886 1487.08 374.383 1502.6 384.492C1521.33 387.595 1541.21 375.584 1550.67 354.465C1563.83 379.588 1596.29 378.086 1608.59 352.563C1619.76 358.969 1629.79 377.986 1645.31 370.079C1673.7 360.971 1681.74 307.021 1659.12 283.899C1646.06 268.285 1623.26 270.487 1613.32 290.205C1604.14 295.71 1600.45 270.187 1587.86 272.989C1572.82 266.283 1589.95 240.259 1578.02 226.646C1569.88 205.126 1547.45 195.317 1531.56 208.93C1519.44 217.238 1516.22 263.48 1501.37 234.253C1492.85 211.933 1478.65 194.116 1459.82 187.01C1453.67 184.307 1446.95 182.906 1440.33 183.006Z" fill="url(#paint16_linear)"/>
<path d="M1444.87 251.669C1424.14 251.369 1405.97 272.088 1400.01 296.911C1392.16 303.918 1383.73 310.024 1375.97 299.414C1362.72 293.408 1346.64 300.615 1339.07 315.829C1323.26 305.619 1300.93 325.538 1305.94 348.659C1309.07 365.875 1325.44 375.684 1337.93 369.078C1346.64 389.997 1370.86 396.704 1385.06 381.189C1395.47 390.198 1408.81 401.308 1421.21 391.899C1432.66 385.293 1445.15 395.302 1456.51 389.097C1466.35 381.089 1475.91 378.787 1486.22 385.493C1498.62 387.595 1511.87 379.588 1518.21 365.575C1526.92 382.29 1548.49 381.289 1556.63 364.374C1564.01 368.578 1570.73 381.289 1581.05 375.985C1599.88 369.979 1605.27 334.046 1590.23 318.732C1581.62 308.322 1566.38 309.823 1559.85 322.935C1553.79 326.539 1551.33 309.623 1542.91 311.525C1532.88 307.021 1544.33 289.805 1536.38 280.696C1530.99 266.383 1516.13 259.877 1505.53 268.885C1497.49 274.391 1495.31 305.119 1485.47 285.701C1479.79 270.887 1470.32 259.076 1457.93 254.272C1453.76 252.57 1449.32 251.669 1444.87 251.669Z" fill="url(#paint17_linear)"/>
<path d="M219.327 575.006C188.191 574.505 160.747 605.834 151.757 643.069C139.927 653.579 127.246 662.787 115.512 646.872C95.5435 637.864 71.4114 648.674 59.9605 671.595C36.1124 656.181 2.51683 686.109 10.0877 721.041C14.8194 746.965 39.5193 761.679 58.3517 751.769C71.506 783.198 107.846 793.408 129.234 770.086C144.849 783.599 165.006 800.414 183.744 786.201C201.062 776.192 219.705 791.406 236.834 781.897C251.597 769.886 266.076 766.383 281.597 776.492C300.334 779.595 320.208 767.584 329.671 746.465C342.826 771.588 375.286 770.086 387.588 744.563C398.755 750.969 408.787 769.986 424.307 762.079C452.697 752.971 460.742 699.021 438.124 675.899C425.064 660.285 402.257 662.487 392.32 682.205C383.14 687.71 379.45 662.187 366.863 664.989C351.816 658.283 368.945 632.259 357.021 618.646C348.883 597.126 326.454 587.317 310.555 600.93C298.442 609.238 295.224 655.48 280.366 626.253C271.849 603.933 257.654 586.116 238.821 579.01C232.67 576.307 225.951 574.906 219.327 575.006Z" fill="url(#paint18_linear)"/>
<path d="M223.868 643.669C203.143 643.369 184.973 664.088 179.011 688.911C171.156 695.918 162.733 702.024 154.973 691.414C141.724 685.408 125.636 692.615 118.065 707.829C102.261 697.619 79.9274 717.538 84.9431 740.659C88.0661 757.875 104.438 767.684 116.93 761.078C125.636 781.997 149.863 788.704 164.058 773.189C174.468 782.198 187.812 793.308 200.209 783.899C211.66 777.293 224.152 787.302 235.508 781.097C245.35 773.089 254.908 770.787 265.224 777.493C277.621 779.595 290.87 771.588 297.21 757.575C305.917 774.29 327.494 773.289 335.632 756.374C343.014 760.578 349.733 773.289 360.048 767.985C378.881 761.979 384.275 726.046 369.228 710.732C360.616 700.322 345.38 701.823 338.85 714.935C332.793 718.539 330.333 701.623 321.91 703.525C311.879 699.021 323.33 681.805 315.38 672.696C309.986 658.383 295.128 651.877 284.529 660.885C276.485 666.391 274.309 697.119 264.466 677.701C258.788 662.887 249.325 651.076 236.928 646.272C232.764 644.57 228.316 643.669 223.868 643.669Z" fill="url(#paint19_linear)"/>
<defs>
<linearGradient id="paint0_linear" x1="69.3202" y1="775.009" x2="79.5814" y2="1422.44" gradientUnits="userSpaceOnUse">
<stop stop-color="#9ABDD8"/>
<stop offset="1" stop-color="#778A96"/>
</linearGradient>
<linearGradient id="paint1_linear" x1="1363.86" y1="2198.35" x2="1363.86" y2="-84.2296" gradientUnits="userSpaceOnUse">
<stop stop-color="#565854"/>
<stop offset="1" stop-color="#A4CDED"/>
</linearGradient>
<linearGradient id="paint2_linear" x1="1021.09" y1="422.233" x2="1021.09" y2="876.639" gradientUnits="userSpaceOnUse">
<stop stop-color="#010101"/>
<stop offset="1" stop-color="#214B88"/>
</linearGradient>
<linearGradient id="paint3_linear" x1="390.738" y1="1459.68" x2="389.761" y2="1335.84" gradientUnits="userSpaceOnUse">
<stop stop-color="#898F7A"/>
<stop offset="1" stop-color="#A8AD9B"/>
</linearGradient>
<linearGradient id="paint4_linear" x1="117.282" y1="1798.52" x2="111.899" y2="1613.67" gradientUnits="userSpaceOnUse">
<stop stop-color="#898F7A"/>
<stop offset="1" stop-color="#A8AD9B"/>
</linearGradient>
<linearGradient id="paint5_linear" x1="174.529" y1="741.632" x2="169.501" y2="624.663" gradientUnits="userSpaceOnUse">
<stop stop-color="#898F7A"/>
<stop offset="1" stop-color="#A8AD9B"/>
</linearGradient>
<linearGradient id="paint6_linear" x1="226.302" y1="1465.94" x2="216.537" y2="1217.08" gradientUnits="userSpaceOnUse">
<stop stop-color="#898F7A"/>
<stop offset="1" stop-color="#A8AD9B"/>
</linearGradient>
<linearGradient id="paint7_linear" x1="116.936" y1="1798.52" x2="111.553" y2="1613.67" gradientUnits="userSpaceOnUse">
<stop stop-color="#898F7A"/>
<stop offset="1" stop-color="#A8AD9B"/>
</linearGradient>
<linearGradient id="paint8_linear" x1="1338.74" y1="228.304" x2="1358.47" y2="445.313" gradientUnits="userSpaceOnUse">
<stop stop-color="#8A9DA5"/>
<stop offset="1" stop-color="#010101"/>
</linearGradient>
<linearGradient id="paint9_linear" x1="1567.68" y1="453.953" x2="1575.57" y2="598.258" gradientUnits="userSpaceOnUse">
<stop stop-color="#8A9DA5"/>
<stop offset="1" stop-color="#010101"/>
</linearGradient>
<linearGradient id="paint10_linear" x1="1569.18" y1="940.629" x2="1635.19" y2="1396.8" gradientUnits="userSpaceOnUse">
<stop stop-color="#8A9DA5"/>
<stop offset="1" stop-color="#74848B"/>
</linearGradient>
<linearGradient id="paint11_linear" x1="333.863" y1="497.414" x2="345.371" y2="582.494" gradientUnits="userSpaceOnUse">
<stop stop-color="#729FCF"/>
<stop offset="1" stop-color="#010101"/>
</linearGradient>
<linearGradient id="paint12_linear" x1="335.485" y1="565.988" x2="343.876" y2="651.804" gradientUnits="userSpaceOnUse">
<stop stop-color="#729FCF"/>
<stop offset="1" stop-color="#010101"/>
</linearGradient>
<linearGradient id="paint13_linear" x1="544.004" y1="695.171" x2="551.538" y2="805.267" gradientUnits="userSpaceOnUse">
<stop stop-color="#8A9DA5"/>
<stop offset="1" stop-color="#74848B"/>
</linearGradient>
<linearGradient id="paint14_linear" x1="244.776" y1="152.619" x2="273.555" y2="394.615" gradientUnits="userSpaceOnUse">
<stop stop-color="white"/>
<stop offset="1" stop-color="white" stop-opacity="0"/>
</linearGradient>
<linearGradient id="paint15_linear" x1="246.865" y1="211.495" x2="291.558" y2="377.179" gradientUnits="userSpaceOnUse">
<stop stop-color="white"/>
<stop offset="1" stop-color="#D3E7F7" stop-opacity="0"/>
</linearGradient>
<linearGradient id="paint16_linear" x1="1398.11" y1="115.56" x2="1508.69" y2="494.301" gradientUnits="userSpaceOnUse">
<stop stop-color="white"/>
<stop offset="1" stop-color="#D3E7F7" stop-opacity="0"/>
</linearGradient>
<linearGradient id="paint17_linear" x1="1386.8" y1="256.324" x2="1531.8" y2="425.503" gradientUnits="userSpaceOnUse">
<stop stop-color="white"/>
<stop offset="1" stop-color="#D3E7F7" stop-opacity="0"/>
</linearGradient>
<linearGradient id="paint18_linear" x1="177.114" y1="507.56" x2="287.689" y2="886.301" gradientUnits="userSpaceOnUse">
<stop stop-color="white"/>
<stop offset="1" stop-color="#D3E7F7" stop-opacity="0"/>
</linearGradient>
<linearGradient id="paint19_linear" x1="165.802" y1="648.324" x2="310.804" y2="817.503" gradientUnits="userSpaceOnUse">
<stop stop-color="white"/>
<stop offset="1" stop-color="#D3E7F7" stop-opacity="0"/>
</linearGradient>
</defs>
</svg>
