<svg width="1677" height="621" viewBox="0 0 1677 621" fill="none" xmlns="http://www.w3.org/2000/svg">
<path d="M200.248 296.666V318.24H186.63V579.294H321.574V318.24H305.48V296.666H200.248H200.248Z" fill="url(#paint0_linear)"/>
<path d="M735.616 124.561C711.027 127.522 692.288 147.013 688.698 167.801C680.333 174.626 671.191 180.821 660.52 173.551C643.928 170.8 625.96 179.084 619.045 192.477C598.864 186.743 575.147 206.162 584.349 223.952C590.479 237.271 611.26 242.565 625.15 235.324C638.388 250.715 667.972 252.359 682.68 237.724C696.215 243.3 713.618 250.175 727.06 240.65C739.762 233.558 755.868 239.678 768.47 232.884C779.018 224.975 790.033 221.599 803.253 225.388C818.267 225.109 832.832 216.667 838.368 204.42C851.014 216.44 876.443 212.294 883.803 197.44C893.185 199.685 902.866 208.79 914.362 202.953C935.886 195.191 937.256 165.597 917.301 155.659C905.603 148.666 887.81 152.209 881.821 163.748C875.121 167.621 869.83 154.448 860.207 157.22C847.725 155.185 858.847 139.555 848.187 133.555C839.779 122.943 821.254 120.042 809.995 128.913C801.193 134.582 802.927 159.564 788.588 145.515C779.851 134.485 766.971 126.489 751.55 124.65C746.288 123.9 740.889 123.848 735.616 124.559V124.561Z" fill="url(#paint1_linear)"/>
<path d="M745.665 160.698C729.331 162.665 716.885 175.611 714.499 189.421C708.943 193.954 702.871 198.069 695.782 193.24C684.76 191.413 672.826 196.915 668.232 205.812C654.827 202.003 639.073 214.902 645.184 226.718C649.256 235.565 663.06 239.082 672.286 234.272C681.079 244.496 700.731 245.588 710.501 235.867C719.492 239.57 731.051 244.137 739.982 237.81C748.419 233.099 759.117 237.164 767.487 232.652C774.494 227.398 781.811 225.155 790.593 227.673C800.566 227.487 810.24 221.879 813.917 213.744C822.317 221.729 839.209 218.974 844.097 209.107C850.329 210.599 856.759 216.647 864.396 212.769C878.693 207.614 879.603 187.956 866.348 181.355C858.578 176.71 846.758 179.064 842.78 186.729C838.329 189.301 834.815 180.551 828.423 182.392C820.132 181.04 827.519 170.658 820.438 166.672C814.854 159.624 802.548 157.696 795.069 163.589C789.222 167.355 790.374 183.949 780.849 174.617C775.045 167.291 766.49 161.979 756.246 160.758C752.75 160.26 749.164 160.225 745.662 160.697L745.665 160.698Z" fill="url(#paint2_linear)"/>
<path d="M878.599 65.2449V115.279H849.888V480.529H815.434V265.382H677.619V380.46H657.521V112.777H531.191V300.406H493.866V380.46H490.995V480.529H427.83V282.894H424.958V372.955L427.83 575.594V573.092H1584.9V568.089H1587.77V275.388H1513.12V82.7568H1464.31V275.388H1441.34V475.525H1418.37V272.887H1335.11V183.998L1191.55 142.798V217.849H1070.97V387.965H1004.93V115.279H981.961V65.2449H878.599V65.2449Z" fill="url(#paint3_linear)"/>
<path d="M948.729 325.096H1157.56V567.55H948.729V325.096V325.096Z" fill="#349BA4"/>
<path d="M951.064 334.864V351.838H962.463V334.864H951.064ZM965.905 334.864V351.838H977.304V334.864H965.905ZM980.726 334.864V351.838H992.145V334.864H980.726ZM995.566 334.864V351.838H1006.96V334.864H995.566ZM1010.41 334.864V351.838H1021.81V334.864H1010.41ZM1025.23 334.864V351.838H1036.65V334.864H1025.23ZM1040.07 334.864V351.838H1051.47V334.864H1040.07ZM1054.91 334.864V351.838H1066.31V334.864H1054.91ZM1069.73 334.864V351.838H1081.15V334.864H1069.73ZM1084.57 334.864V351.838H1095.97V334.864H1084.57ZM1099.41 334.864V351.838H1110.81V334.864H1099.41ZM1114.23 334.864V351.838H1125.65V334.864H1114.23ZM1129.07 334.864V351.838H1140.47V334.864H1129.07ZM1143.91 334.864V351.838H1155.31V334.864H1143.91Z" fill="#72CCCF"/>
<path d="M951.023 334.858V351.832H962.422V334.858H951.023ZM965.864 334.858V351.832H977.263V334.858H965.864ZM980.684 334.858V351.832H992.103V334.858H980.684V334.858ZM995.525 334.858V351.832H1006.92V334.858H995.525V334.858ZM1010.37 334.858V351.832H1021.77V334.858H1010.37ZM1025.19 334.858V351.832H1036.61V334.858H1025.19ZM1040.03 334.858V351.832H1051.43V334.858H1040.03ZM1054.87 334.858V351.832H1066.27V334.858H1054.87ZM1069.69 334.858V351.832H1081.11V334.858H1069.69ZM1084.53 334.858V351.832H1095.93V334.858H1084.53ZM1099.37 334.858V351.832H1110.77V334.858H1099.37ZM1114.19 334.858V351.832H1125.61V334.858H1114.19ZM1129.03 334.858V351.832H1140.43V334.858H1129.03ZM1143.87 334.858V351.832H1155.27V334.858H1143.87ZM951.026 356.076V373.049H962.424V356.076H951.026ZM965.867 356.076V373.049H977.266V356.076H965.867ZM980.687 356.076V373.049H992.106V356.076H980.687V356.076ZM995.528 356.076V373.049H1006.93V356.076H995.528V356.076ZM1010.37 356.076V373.049H1021.77V356.076H1010.37ZM1025.19 356.076V373.049H1036.61V356.076H1025.19ZM1040.03 356.076V373.049H1051.43V356.076H1040.03ZM1054.87 356.076V373.049H1066.27V356.076H1054.87ZM1069.69 356.076V373.049H1081.11V356.076H1069.69ZM1084.53 356.076V373.049H1095.93V356.076H1084.53ZM1099.37 356.076V373.049H1110.77V356.076H1099.37ZM1114.19 356.076V373.049H1125.61V356.076H1114.19ZM1129.03 356.076V373.049H1140.43V356.076H1129.03ZM1143.88 356.076V373.049H1155.27V356.076H1143.88ZM951.028 377.293V394.266H962.427V377.293H951.028ZM965.87 377.293V394.266H977.268V377.293H965.87ZM980.689 377.293V394.266H992.109V377.293H980.689V377.293ZM995.531 377.293V394.266H1006.93V377.293H995.531V377.293ZM1010.37 377.293V394.266H1021.77V377.293H1010.37ZM1025.19 377.293V394.266H1036.61V377.293H1025.19ZM1040.03 377.293V394.266H1051.43V377.293H1040.03ZM1054.87 377.293V394.266H1066.27V377.293H1054.87ZM1069.69 377.293V394.266H1081.11V377.293H1069.69ZM1084.54 377.293V394.266H1095.93V377.293H1084.54ZM1099.38 377.293V394.266H1110.78V377.293H1099.38ZM1114.2 377.293V394.266H1125.62V377.293H1114.2ZM1129.04 377.293V394.266H1140.44V377.293H1129.04ZM1143.88 377.293V394.266H1155.28V377.293H1143.88ZM951.031 398.51V415.483H962.43V398.51H951.031ZM965.872 398.51V415.483H977.271V398.51H965.872ZM980.692 398.51V415.483H992.112V398.51H980.692V398.51ZM995.533 398.51V415.483H1006.93V398.51H995.533V398.51ZM1010.37 398.51V415.483H1021.77V398.51H1010.37ZM1025.19 398.51V415.483H1036.61V398.51H1025.19ZM1040.04 398.51V415.483H1051.43V398.51H1040.04ZM1054.88 398.51V415.483H1066.28V398.51H1054.88ZM1069.7 398.51V415.483H1081.12V398.51H1069.7ZM1084.54 398.51V415.483H1095.94V398.51H1084.54ZM1099.38 398.51V415.483H1110.78V398.51H1099.38ZM1114.2 398.51V415.483H1125.62V398.51H1114.2ZM1129.04 398.51V415.483H1140.44V398.51H1129.04ZM1143.88 398.51V415.483H1155.28V398.51H1143.88ZM951.034 419.727V436.701H962.432V419.727H951.034ZM965.875 419.727V436.701H977.274V419.727H965.875ZM980.695 419.727V436.701H992.114V419.727H980.695V419.727ZM995.536 419.727V436.701H1006.93V419.727H995.536V419.727ZM1010.38 419.727V436.701H1021.78V419.727H1010.38ZM1025.2 419.727V436.701H1036.62V419.727H1025.2ZM1040.04 419.727V436.701H1051.44V419.727H1040.04ZM1054.88 419.727V436.701H1066.28V419.727H1054.88ZM1069.7 419.727V436.701H1081.12V419.727H1069.7ZM1084.54 419.727V436.701H1095.94V419.727H1084.54ZM1099.38 419.727V436.701H1110.78V419.727H1099.38ZM1114.2 419.727V436.701H1125.62V419.727H1114.2ZM1129.04 419.727V436.701H1140.44V419.727H1129.04ZM1143.88 419.727V436.701H1155.28V419.727H1143.88ZM951.036 440.944V457.918H962.435V440.944H951.036ZM965.878 440.944V457.918H977.276V440.944H965.878ZM980.697 440.944V457.918H992.117V440.944H980.697V440.944ZM995.539 440.944V457.918H1006.94V440.944H995.539V440.944ZM1010.38 440.944V457.918H1021.78V440.944H1010.38ZM1025.2 440.944V457.918H1036.62V440.944H1025.2ZM1040.04 440.944V457.918H1051.44V440.944H1040.04ZM1054.88 440.944V457.918H1066.28V440.944H1054.88ZM1069.7 440.944V457.918H1081.12V440.944H1069.7ZM1084.54 440.944V457.918H1095.94V440.944H1084.54ZM1099.38 440.944V457.918H1110.78V440.944H1099.38ZM1114.2 440.944V457.918H1125.62V440.944H1114.2ZM1129.05 440.944V457.918H1140.44V440.944H1129.05ZM1143.89 440.944V457.918H1155.29V440.944H1143.89ZM951.039 462.161V479.135H962.438V462.161H951.039ZM965.88 462.161V479.135H977.279V462.161H965.88ZM980.7 462.161V479.135H992.12V462.161H980.7V462.161ZM995.541 462.161V479.135H1006.94V462.161H995.541V462.161ZM1010.38 462.161V479.135H1021.78V462.161H1010.38ZM1025.2 462.161V479.135H1036.62V462.161H1025.2ZM1040.04 462.161V479.135H1051.44V462.161H1040.04ZM1054.88 462.161V479.135H1066.28V462.161H1054.88ZM1069.7 462.161V479.135H1081.12V462.161H1069.7ZM1084.55 462.161V479.135H1095.94V462.161H1084.55ZM1099.39 462.161V479.135H1110.79V462.161H1099.39ZM1114.21 462.161V479.135H1125.63V462.161H1114.21ZM1129.05 462.161V479.135H1140.45V462.161H1129.05ZM1143.89 462.161V479.135H1155.29V462.161H1143.89ZM951.042 483.378V500.352H962.44V483.378H951.042ZM965.883 483.378V500.352H977.282V483.378H965.883ZM980.703 483.378V500.352H992.122V483.378H980.703V483.378ZM995.544 483.378V500.352H1006.94V483.378H995.544V483.378ZM1010.39 483.378V500.352H1021.78V483.378H1010.39ZM1025.21 483.378V500.352H1036.62V483.378H1025.21ZM1040.05 483.378V500.352H1051.45V483.378H1040.05ZM1054.89 483.378V500.352H1066.29V483.378H1054.89ZM1069.71 483.378V500.352H1081.13V483.378H1069.71ZM1084.55 483.378V500.352H1095.95V483.378H1084.55ZM1099.39 483.378V500.352H1110.79V483.378H1099.39ZM1114.21 483.378V500.352H1125.63V483.378H1114.21ZM1129.05 483.378V500.352H1140.45V483.378H1129.05ZM1143.89 483.378V500.352H1155.29V483.378H1143.89ZM951.044 504.595V521.569H962.443V504.595H951.044ZM965.886 504.595V521.569H977.284V504.595H965.886ZM980.705 504.595V521.569H992.125V504.595H980.705V504.595ZM995.547 504.595V521.569H1006.95V504.595H995.547V504.595ZM1010.39 504.595V521.569H1021.79V504.595H1010.39ZM1025.21 504.595V521.569H1036.63V504.595H1025.21ZM1040.05 504.595V521.569H1051.45V504.595H1040.05ZM1054.89 504.595V521.569H1066.29V504.595H1054.89ZM1069.71 504.595V521.569H1081.13V504.595H1069.71ZM1084.55 504.595V521.569H1095.95V504.595H1084.55ZM1099.39 504.595V521.569H1110.79V504.595H1099.39ZM1114.21 504.595V521.569H1125.63V504.595H1114.21ZM1129.05 504.595V521.569H1140.45V504.595H1129.05ZM1143.89 504.595V521.569H1155.29V504.595H1143.89ZM951.047 525.813V567.625H962.446V525.813H951.047ZM965.888 525.813V567.625H977.287V525.813H965.888ZM980.708 525.813V567.625H992.128V525.813H980.708V525.813ZM995.549 525.813V567.625H1006.95V525.813H995.549V525.813ZM1010.39 525.813V567.625H1021.79V525.813H1010.39ZM1025.21 525.813V567.625H1036.63V525.813H1025.21ZM1040.05 525.813V567.625H1051.45V525.813H1040.05ZM1054.89 525.813V567.625H1066.29V525.813H1054.89ZM1069.71 525.813V567.625H1081.13V525.813H1069.71ZM1084.55 525.813V567.625H1095.95V525.813H1084.55ZM1099.4 525.813V567.625H1110.79V525.813H1099.4ZM1114.22 525.813V567.625H1125.63V525.813H1114.22ZM1129.06 525.813V567.625H1140.46V525.813H1129.06ZM1143.9 525.813V567.625H1155.3V525.813H1143.9Z" fill="url(#paint4_linear)"/>
<path d="M-12.9581 584.37L439.85 554.198L940.354 560.072L940.39 566.623L1215.33 563.654L1555.23 569.144L1578.45 560.539L1677 569.284V621H-7.21332L-13 584.37H-12.9581Z" fill="#50653B"/>
<path d="M1195.37 0.160484C1167.05 1.9038 1157.54 37.9388 1178.02 53.0504C1184.57 66.008 1161.85 80.0714 1150.03 69.0426C1129.93 62.7328 1105.43 71.6478 1096.27 88.4271C1073.84 78.0011 1046.76 96.3046 1045.55 116.885C1041.6 137.74 1059.46 163.092 1085.77 161.637C1102.25 162.731 1111.22 139.82 1128.67 153.021C1147.11 158.637 1164.36 136.38 1178.9 150.038C1194.64 157.06 1215.46 155.359 1228.52 144.643C1246.71 154.188 1271.05 135.914 1286.33 152.681C1313.98 168.651 1357 162.424 1374.17 136.951C1388.97 135.267 1397.28 157.124 1415.64 151.961C1430.3 155.673 1443.91 137.724 1452.52 140.812C1469.64 155.56 1502.19 146.328 1506.8 125.852C1513.98 106.231 1494.12 81.5076 1469.5 85.1576C1448.31 95.8683 1442.46 61.579 1419.65 66.0783C1413.91 59.7543 1428.26 45.2928 1419.03 35.5174C1413.22 20.3182 1391.38 11.4334 1375.1 19.8654C1367.34 27.1465 1359.53 43.6754 1347.64 29.8625C1330.42 19.0161 1306.48 28.4068 1291.05 25.4927C1273.34 11.0903 1246.02 5.6141 1223.3 13.6003C1217.65 5.25473 1206.69 -0.687015 1195.37 0.162316L1195.37 0.160484Z" fill="url(#paint5_linear)"/>
<path d="M1234.5 44.6283C1217.4 45.6776 1211.87 70.0682 1224.34 80.4103C1228.38 89.2277 1214.74 98.6577 1207.52 91.1229C1195.34 86.75 1180.58 92.6803 1175.15 104.014C1161.53 96.8394 1145.27 109.124 1144.67 123.074C1142.41 137.196 1153.36 154.471 1169.26 153.608C1179.23 154.427 1184.51 138.933 1195.13 147.967C1206.31 151.862 1216.6 136.85 1225.47 146.18C1235.03 151.015 1247.61 149.959 1255.43 142.754C1266.49 149.312 1281.09 137.035 1290.42 148.475C1307.24 159.435 1333.2 155.414 1343.42 138.221C1352.35 137.149 1357.51 152.008 1368.58 148.594C1377.46 151.18 1385.58 139.072 1390.8 141.207C1401.24 151.288 1420.85 145.18 1423.51 131.317C1427.73 118.047 1415.58 101.189 1400.72 103.548C1387.97 110.712 1384.23 87.4321 1370.47 90.3767C1366.96 86.0616 1375.54 76.3221 1369.91 69.6513C1366.3 59.3173 1353.04 53.19 1343.26 58.8316C1338.61 63.7325 1333.99 74.9038 1326.72 65.4818C1316.25 58.0461 1301.84 64.3016 1292.49 62.2532C1281.7 52.4037 1265.15 48.5626 1251.47 53.8715C1248 48.1859 1241.34 44.1051 1234.5 44.6281L1234.5 44.6283Z" fill="url(#paint6_linear)"/>
<path d="M624.77 305.181H817.047V445.984H624.77V305.181Z" fill="url(#paint7_linear)"/>
<path d="M850.76 356.423H773.029V566.736H850.76V356.423Z" fill="url(#paint8_linear)"/>
<path d="M839.514 363.552H829.286V381.375H839.514V363.552Z" fill="#6B6F57"/>
<path d="M839.514 385.831H829.286V403.654H839.514V385.831Z" fill="#6B6F57"/>
<path d="M839.514 408.11H829.286V425.933H839.514V408.11Z" fill="#6B6F57"/>
<path d="M839.514 430.39H829.286V448.213H839.514V430.39Z" fill="#6B6F57"/>
<path d="M839.514 452.669H829.286V470.492H839.514V452.669Z" fill="#6B6F57"/>
<path d="M839.514 474.948H829.286V492.771H839.514V474.948V474.948Z" fill="#6B6F57"/>
<path d="M839.514 497.227H829.286V515.05H839.514V497.227Z" fill="#6B6F57"/>
<path d="M808.42 310.974H798.192V328.797H808.42V310.974Z" fill="#6B6F57"/>
<path d="M808.42 333.252H798.192V351.076H808.42V333.252Z" fill="#6B6F57"/>
<path d="M792.867 310.974H782.64V328.797H792.867V310.974Z" fill="#6B6F57"/>
<path d="M792.867 333.252H782.64V351.076H792.867V333.252Z" fill="#6B6F57"/>
<path d="M823.961 363.552H813.734V381.375H823.961V363.552Z" fill="#6B6F57"/>
<path d="M823.961 385.831H813.734V403.654H823.961V385.831Z" fill="#6B6F57"/>
<path d="M823.961 408.11H813.734V425.933H823.961V408.11Z" fill="#6B6F57"/>
<path d="M823.961 430.39H813.734V448.213H823.961V430.39Z" fill="#6B6F57"/>
<path d="M823.961 452.669H813.734V470.492H823.961V452.669Z" fill="#6B6F57"/>
<path d="M823.961 474.948H813.734V492.771H823.961V474.948V474.948Z" fill="#6B6F57"/>
<path d="M823.961 497.227H813.734V515.05H823.961V497.227Z" fill="#6B6F57"/>
<path d="M808.409 363.552H798.182V381.375H808.409V363.552Z" fill="#6B6F57"/>
<path d="M808.409 385.831H798.182V403.654H808.409V385.831Z" fill="#6B6F57"/>
<path d="M808.409 408.11H798.182V425.933H808.409V408.11Z" fill="#6B6F57"/>
<path d="M808.409 430.39H798.182V448.213H808.409V430.39Z" fill="#6B6F57"/>
<path d="M808.409 452.669H798.182V470.492H808.409V452.669Z" fill="#6B6F57"/>
<path d="M808.409 474.948H798.182V492.771H808.409V474.948V474.948Z" fill="#6B6F57"/>
<path d="M808.409 497.227H798.182V515.05H808.409V497.227Z" fill="#6B6F57"/>
<path d="M792.856 363.552H782.629V381.375H792.856V363.552Z" fill="#6B6F57"/>
<path d="M792.856 385.831H782.629V403.654H792.856V385.831Z" fill="#6B6F57"/>
<path d="M792.856 408.11H782.629V425.933H792.856V408.11Z" fill="#6B6F57"/>
<path d="M792.856 430.39H782.629V448.213H792.856V430.39Z" fill="#6B6F57"/>
<path d="M792.856 452.669H782.629V470.492H792.856V452.669Z" fill="#6B6F57"/>
<path d="M792.856 474.948H782.629V492.771H792.856V474.948V474.948Z" fill="#6B6F57"/>
<path d="M792.856 497.227H782.629V515.05H792.856V497.227Z" fill="#6B6F57"/>
<path d="M700.402 29.3674H740.291V162.15H700.402V29.3674Z" fill="url(#paint9_linear)"/>
<path d="M706.743 56.1023H716.971V73.9255H706.743V56.1023Z" fill="#6B6F57"/>
<path d="M706.743 78.3811H716.971V96.2043H706.743V78.3811Z" fill="#6B6F57"/>
<path d="M706.743 100.66H716.971V118.483H706.743V100.66Z" fill="#6B6F57"/>
<path d="M706.743 122.939H716.971V140.762H706.743V122.939Z" fill="#6B6F57"/>
<path d="M722.296 56.1023H732.524V73.9255H722.296V56.1023Z" fill="#6B6F57"/>
<path d="M722.296 78.3811H732.524V96.2043H722.296V78.3811Z" fill="#6B6F57"/>
<path d="M722.296 100.66H732.524V118.483H722.296V100.66Z" fill="#6B6F57"/>
<path d="M722.296 122.939H732.524V140.762H722.296V122.939Z" fill="#6B6F57"/>
<path d="M679.957 136.307H757.687V419.695H679.957V136.307Z" fill="url(#paint10_linear)"/>
<path d="M691.203 149.674H701.43V167.497H691.203V149.674Z" fill="#6B6F57"/>
<path d="M691.203 171.953H701.43V189.776H691.203V171.953Z" fill="#6B6F57"/>
<path d="M691.203 194.232H701.43V212.055H691.203V194.232Z" fill="#6B6F57"/>
<path d="M691.203 216.511H701.43V234.334H691.203V216.511Z" fill="#6B6F57"/>
<path d="M691.203 238.79H701.43V256.613H691.203V238.79Z" fill="#6B6F57"/>
<path d="M691.203 261.069H701.43V278.892H691.203V261.069Z" fill="#6B6F57"/>
<path d="M691.203 283.349H701.43V301.172H691.203V283.349Z" fill="#6B6F57"/>
<path d="M691.203 305.628H701.43V323.451H691.203V305.628Z" fill="#6B6F57"/>
<path d="M691.203 327.907H701.43V345.73H691.203V327.907V327.907Z" fill="#6B6F57"/>
<path d="M691.203 350.186H701.43V368.009H691.203V350.186V350.186Z" fill="#6B6F57"/>
<path d="M706.755 149.674H716.983V167.497H706.755V149.674Z" fill="#6B6F57"/>
<path d="M706.755 171.953H716.983V189.776H706.755V171.953Z" fill="#6B6F57"/>
<path d="M706.755 194.232H716.983V212.055H706.755V194.232Z" fill="#6B6F57"/>
<path d="M706.755 216.511H716.983V234.334H706.755V216.511Z" fill="#6B6F57"/>
<path d="M706.755 238.79H716.983V256.613H706.755V238.79Z" fill="#6B6F57"/>
<path d="M706.755 261.069H716.983V278.892H706.755V261.069Z" fill="#6B6F57"/>
<path d="M706.755 283.349H716.983V301.172H706.755V283.349Z" fill="#6B6F57"/>
<path d="M706.755 305.628H716.983V323.451H706.755V305.628Z" fill="#6B6F57"/>
<path d="M706.755 327.907H716.983V345.73H706.755V327.907V327.907Z" fill="#6B6F57"/>
<path d="M706.755 350.186H716.983V368.009H706.755V350.186V350.186Z" fill="#6B6F57"/>
<path d="M722.308 149.674H732.535V167.497H722.308V149.674Z" fill="#6B6F57"/>
<path d="M722.308 171.953H732.535V189.776H722.308V171.953Z" fill="#6B6F57"/>
<path d="M722.308 194.232H732.535V212.055H722.308V194.232Z" fill="#6B6F57"/>
<path d="M722.308 216.511H732.535V234.334H722.308V216.511Z" fill="#6B6F57"/>
<path d="M722.308 238.79H732.535V256.613H722.308V238.79Z" fill="#6B6F57"/>
<path d="M722.308 261.069H732.535V278.892H722.308V261.069Z" fill="#6B6F57"/>
<path d="M722.308 283.349H732.535V301.172H722.308V283.349Z" fill="#6B6F57"/>
<path d="M722.308 305.628H732.535V323.451H722.308V305.628Z" fill="#6B6F57"/>
<path d="M722.308 327.907H732.535V345.73H722.308V327.907V327.907Z" fill="#6B6F57"/>
<path d="M722.308 350.186H732.535V368.009H722.308V350.186V350.186Z" fill="#6B6F57"/>
<path d="M737.86 149.674H748.088V167.497H737.86V149.674Z" fill="#6B6F57"/>
<path d="M737.86 171.953H748.088V189.776H737.86V171.953Z" fill="#6B6F57"/>
<path d="M737.86 194.232H748.088V212.055H737.86V194.232Z" fill="#6B6F57"/>
<path d="M737.86 216.511H748.088V234.334H737.86V216.511Z" fill="#6B6F57"/>
<path d="M737.86 238.79H748.088V256.613H737.86V238.79Z" fill="#6B6F57"/>
<path d="M737.86 261.069H748.088V278.892H737.86V261.069Z" fill="#6B6F57"/>
<path d="M737.86 283.349H748.088V301.172H737.86V283.349Z" fill="#6B6F57"/>
<path d="M737.86 305.628H748.088V323.451H737.86V305.628Z" fill="#6B6F57"/>
<path d="M737.86 327.907H748.088V345.73H737.86V327.907V327.907Z" fill="#6B6F57"/>
<path d="M737.86 350.186H748.088V368.009H737.86V350.186V350.186Z" fill="#6B6F57"/>
<path d="M665.565 233.443H773.979V567.628H665.565V233.443Z" fill="#BBC0B1"/>
<path d="M676.93 253.048H687.158V270.872H676.93V253.048Z" fill="#6B6F57"/>
<path d="M676.93 253.048H687.158V270.872H676.93V253.048Z" fill="#6B6F57"/>
<path d="M676.93 275.328H687.158V293.151H676.93V275.328Z" fill="#6B6F57"/>
<path d="M676.93 297.606H687.158V315.43H676.93V297.606Z" fill="#6B6F57"/>
<path d="M676.93 319.885H687.158V337.708H676.93V319.885Z" fill="#6B6F57"/>
<path d="M676.93 342.165H687.158V359.988H676.93V342.165Z" fill="#6B6F57"/>
<path d="M676.93 364.443H687.158V382.267H676.93V364.443Z" fill="#6B6F57"/>
<path d="M676.93 386.723H687.158V404.546H676.93V386.723Z" fill="#6B6F57"/>
<path d="M676.93 409.001H687.158V426.825H676.93V409.001Z" fill="#6B6F57"/>
<path d="M676.93 431.281H687.158V449.104H676.93V431.281Z" fill="#6B6F57"/>
<path d="M676.93 453.56H687.158V471.383H676.93V453.56Z" fill="#6B6F57"/>
<path d="M676.93 475.839H687.158V493.662H676.93V475.839V475.839Z" fill="#6B6F57"/>
<path d="M676.93 498.118H687.158V515.941H676.93V498.118Z" fill="#6B6F57"/>
<path d="M692.483 253.048H702.711V270.872H692.483V253.048Z" fill="#6B6F57"/>
<path d="M692.483 275.328H702.711V293.151H692.483V275.328Z" fill="#6B6F57"/>
<path d="M692.483 297.606H702.711V315.43H692.483V297.606Z" fill="#6B6F57"/>
<path d="M692.483 319.885H702.711V337.708H692.483V319.885Z" fill="#6B6F57"/>
<path d="M692.483 342.165H702.711V359.988H692.483V342.165Z" fill="#6B6F57"/>
<path d="M692.483 364.443H702.711V382.267H692.483V364.443Z" fill="#6B6F57"/>
<path d="M692.483 386.723H702.711V404.546H692.483V386.723Z" fill="#6B6F57"/>
<path d="M692.483 409.001H702.711V426.825H692.483V409.001Z" fill="#6B6F57"/>
<path d="M692.483 431.281H702.711V449.104H692.483V431.281Z" fill="#6B6F57"/>
<path d="M692.483 453.56H702.711V471.383H692.483V453.56Z" fill="#6B6F57"/>
<path d="M692.483 475.839H702.711V493.662H692.483V475.839V475.839Z" fill="#6B6F57"/>
<path d="M692.483 498.118H702.711V515.941H692.483V498.118Z" fill="#6B6F57"/>
<path d="M708.036 253.048H718.263V270.872H708.036V253.048Z" fill="#6B6F57"/>
<path d="M708.036 275.328H718.263V293.151H708.036V275.328Z" fill="#6B6F57"/>
<path d="M708.036 297.606H718.263V315.43H708.036V297.606Z" fill="#6B6F57"/>
<path d="M708.036 319.885H718.263V337.708H708.036V319.885Z" fill="#6B6F57"/>
<path d="M708.036 342.165H718.263V359.988H708.036V342.165Z" fill="#6B6F57"/>
<path d="M708.036 364.443H718.263V382.267H708.036V364.443Z" fill="#6B6F57"/>
<path d="M708.036 386.723H718.263V404.546H708.036V386.723Z" fill="#6B6F57"/>
<path d="M708.036 409.001H718.263V426.825H708.036V409.001Z" fill="#6B6F57"/>
<path d="M708.036 431.281H718.263V449.104H708.036V431.281Z" fill="#6B6F57"/>
<path d="M708.036 453.56H718.263V471.383H708.036V453.56Z" fill="#6B6F57"/>
<path d="M708.036 475.839H718.263V493.662H708.036V475.839V475.839Z" fill="#6B6F57"/>
<path d="M708.036 498.118H718.263V515.941H708.036V498.118Z" fill="#6B6F57"/>
<path d="M723.588 253.048H733.816V270.872H723.588V253.048Z" fill="#6B6F57"/>
<path d="M723.588 275.328H733.816V293.151H723.588V275.328Z" fill="#6B6F57"/>
<path d="M723.588 297.606H733.816V315.43H723.588V297.606Z" fill="#6B6F57"/>
<path d="M723.588 319.885H733.816V337.708H723.588V319.885Z" fill="#6B6F57"/>
<path d="M723.588 342.165H733.816V359.988H723.588V342.165Z" fill="#6B6F57"/>
<path d="M723.588 364.443H733.816V382.267H723.588V364.443Z" fill="#6B6F57"/>
<path d="M723.588 386.723H733.816V404.546H723.588V386.723Z" fill="#6B6F57"/>
<path d="M723.588 409.001H733.816V426.825H723.588V409.001Z" fill="#6B6F57"/>
<path d="M723.588 431.281H733.816V449.104H723.588V431.281Z" fill="#6B6F57"/>
<path d="M723.588 453.56H733.816V471.383H723.588V453.56Z" fill="#6B6F57"/>
<path d="M723.588 475.839H733.816V493.662H723.588V475.839V475.839Z" fill="#6B6F57"/>
<path d="M723.588 498.118H733.816V515.941H723.588V498.118Z" fill="#6B6F57"/>
<path d="M739.141 253.048H749.368V270.872H739.141V253.048Z" fill="#6B6F57"/>
<path d="M739.141 275.328H749.368V293.151H739.141V275.328Z" fill="#6B6F57"/>
<path d="M739.141 297.606H749.368V315.43H739.141V297.606Z" fill="#6B6F57"/>
<path d="M739.141 319.885H749.368V337.708H739.141V319.885Z" fill="#6B6F57"/>
<path d="M739.141 342.165H749.368V359.988H739.141V342.165Z" fill="#6B6F57"/>
<path d="M739.141 364.443H749.368V382.267H739.141V364.443Z" fill="#6B6F57"/>
<path d="M739.141 386.723H749.368V404.546H739.141V386.723Z" fill="#6B6F57"/>
<path d="M739.141 409.001H749.368V426.825H739.141V409.001Z" fill="#6B6F57"/>
<path d="M739.141 431.281H749.368V449.104H739.141V431.281Z" fill="#6B6F57"/>
<path d="M739.141 453.56H749.368V471.383H739.141V453.56Z" fill="#6B6F57"/>
<path d="M739.141 475.839H749.368V493.662H739.141V475.839V475.839Z" fill="#6B6F57"/>
<path d="M739.141 498.118H749.368V515.941H739.141V498.118Z" fill="#6B6F57"/>
<path d="M754.693 253.048H764.92V270.872H754.693V253.048Z" fill="#6B6F57"/>
<path d="M754.693 275.328H764.92V293.151H754.693V275.328Z" fill="#6B6F57"/>
<path d="M754.693 297.606H764.92V315.43H754.693V297.606Z" fill="#6B6F57"/>
<path d="M754.693 319.885H764.92V337.708H754.693V319.885Z" fill="#6B6F57"/>
<path d="M754.693 342.165H764.92V359.988H754.693V342.165Z" fill="#6B6F57"/>
<path d="M754.693 364.443H764.92V382.267H754.693V364.443Z" fill="#6B6F57"/>
<path d="M754.693 386.723H764.92V404.546H754.693V386.723Z" fill="#6B6F57"/>
<path d="M754.693 409.001H764.92V426.825H754.693V409.001Z" fill="#6B6F57"/>
<path d="M754.693 431.281H764.92V449.104H754.693V431.281Z" fill="#6B6F57"/>
<path d="M754.693 453.56H764.92V471.383H754.693V453.56Z" fill="#6B6F57"/>
<path d="M754.693 475.839H764.92V493.662H754.693V475.839V475.839Z" fill="#6B6F57"/>
<path d="M754.693 498.118H764.92V515.941H754.693V498.118Z" fill="#6B6F57"/>
<path d="M587.922 356.423H665.652V566.736H587.922V356.423Z" fill="url(#paint11_linear)"/>
<path d="M599.167 363.552H609.395V381.375H599.167V363.552Z" fill="#6B6F57"/>
<path d="M599.167 385.831H609.395V403.654H599.167V385.831Z" fill="#6B6F57"/>
<path d="M599.167 408.11H609.395V425.934H599.167V408.11Z" fill="#6B6F57"/>
<path d="M599.167 430.39H609.395V448.213H599.167V430.39Z" fill="#6B6F57"/>
<path d="M599.167 452.669H609.395V470.492H599.167V452.669Z" fill="#6B6F57"/>
<path d="M599.167 474.948H609.395V492.771H599.167V474.948V474.948Z" fill="#6B6F57"/>
<path d="M599.167 497.227H609.395V515.05H599.167V497.227Z" fill="#6B6F57"/>
<path d="M630.262 310.974H640.49V328.797H630.262V310.974Z" fill="#6B6F57"/>
<path d="M630.262 333.252H640.49V351.076H630.262V333.252Z" fill="#6B6F57"/>
<path d="M645.814 310.974H656.042V328.797H645.814V310.974Z" fill="#6B6F57"/>
<path d="M645.814 333.252H656.042V351.076H645.814V333.252Z" fill="#6B6F57"/>
<path d="M614.72 363.552H624.948V381.375H614.72V363.552Z" fill="#6B6F57"/>
<path d="M614.72 385.831H624.948V403.654H614.72V385.831Z" fill="#6B6F57"/>
<path d="M614.72 408.11H624.948V425.934H614.72V408.11Z" fill="#6B6F57"/>
<path d="M614.72 430.39H624.948V448.213H614.72V430.39Z" fill="#6B6F57"/>
<path d="M614.72 452.669H624.948V470.492H614.72V452.669Z" fill="#6B6F57"/>
<path d="M614.72 474.948H624.948V492.771H614.72V474.948V474.948Z" fill="#6B6F57"/>
<path d="M614.72 497.227H624.948V515.05H614.72V497.227Z" fill="#6B6F57"/>
<path d="M630.273 363.552H640.501V381.375H630.273V363.552Z" fill="#6B6F57"/>
<path d="M630.273 385.831H640.501V403.654H630.273V385.831Z" fill="#6B6F57"/>
<path d="M630.273 408.11H640.501V425.934H630.273V408.11Z" fill="#6B6F57"/>
<path d="M630.273 430.39H640.501V448.213H630.273V430.39Z" fill="#6B6F57"/>
<path d="M630.273 452.669H640.501V470.492H630.273V452.669Z" fill="#6B6F57"/>
<path d="M630.273 474.948H640.501V492.771H630.273V474.948V474.948Z" fill="#6B6F57"/>
<path d="M630.273 497.227H640.501V515.05H630.273V497.227Z" fill="#6B6F57"/>
<path d="M645.825 363.552H656.053V381.375H645.825V363.552Z" fill="#6B6F57"/>
<path d="M645.825 385.831H656.053V403.654H645.825V385.831Z" fill="#6B6F57"/>
<path d="M645.825 408.11H656.053V425.934H645.825V408.11Z" fill="#6B6F57"/>
<path d="M645.825 430.39H656.053V448.213H645.825V430.39Z" fill="#6B6F57"/>
<path d="M645.825 452.669H656.053V470.492H645.825V452.669Z" fill="#6B6F57"/>
<path d="M645.825 474.948H656.053V492.771H645.825V474.948V474.948Z" fill="#6B6F57"/>
<path d="M645.825 497.227H656.053V515.05H645.825V497.227Z" fill="#6B6F57"/>
<path d="M1273.42 93.8525H1369.07V132.321H1273.42V93.8525Z" fill="url(#paint12_linear)"/>
<path d="M1256.49 129.164H1385.99V567.692H1256.49V129.164Z" fill="#8A9DA5"/>
<path d="M1343.26 194.97H1349.09V566.819H1343.26V194.97Z" fill="#555753"/>
<path d="M1359.88 194.97H1365.71V566.819H1359.88V194.97Z" fill="#555753"/>
<path d="M1326.64 194.97H1332.47V566.819H1326.64V194.97Z" fill="#555753"/>
<path d="M1310.02 194.97H1315.84V566.819H1310.02V194.97Z" fill="#555753"/>
<path d="M1293.39 194.97H1299.22V566.819H1293.39V194.97Z" fill="#555753"/>
<path d="M1276.79 194.97H1282.61V566.819H1276.79V194.97Z" fill="#555753"/>
<path d="M1311.55 65.6917H1315.67V95.3123H1311.55V65.6917Z" fill="black"/>
<path d="M1329.78 14.5295H1333.9V94.4134H1329.78V14.5295Z" fill="black"/>
<path d="M1411.11 184.344H1540.45V215.632H1411.11V184.344Z" fill="url(#paint13_linear)"/>
<path d="M1397.55 210.019H1555.01V566.693H1397.55V210.019Z" fill="url(#paint14_linear)"/>
<path d="M1407.03 224.95H1541.09V234.44H1407.03V224.95Z" fill="#555753"/>
<path d="M1407.03 246.755H1541.09V256.245H1407.03V246.755Z" fill="#555753"/>
<path d="M1407.03 377.584H1541.09V387.075H1407.03V377.584Z" fill="#555753"/>
<path d="M1407.03 399.379H1541.09V408.869H1407.03V399.379Z" fill="#555753"/>
<path d="M1407.03 421.184H1541.09V430.675H1407.03V421.184Z" fill="#555753"/>
<path d="M1407.03 442.989H1541.09V452.479H1407.03V442.989Z" fill="#555753"/>
<path d="M1407.03 464.794H1541.09V474.284H1407.03V464.794Z" fill="#555753"/>
<path d="M1407.03 486.599H1541.09V496.089H1407.03V486.599Z" fill="#555753"/>
<path d="M1407.03 508.404H1541.09V517.894H1407.03V508.404Z" fill="#555753"/>
<path d="M1407.03 530.209H1541.09V539.699H1407.03V530.209Z" fill="#555753"/>
<path d="M1408.7 552.014H1542.76V561.504H1408.7V552.014Z" fill="#555753"/>
<path d="M1407.03 268.56H1541.09V278.05H1407.03V268.56Z" fill="#555753"/>
<path d="M1407.03 290.365H1541.09V299.855H1407.03V290.365Z" fill="#555753"/>
<path d="M1407.03 312.169H1541.09V321.66H1407.03V312.169Z" fill="#555753"/>
<path d="M1407.03 333.975H1541.09V343.465H1407.03V333.975Z" fill="#555753"/>
<path d="M1407.03 355.779H1541.09V365.27H1407.03V355.779Z" fill="#555753"/>
<path d="M428.216 202.798H524.274V234.336H428.216V202.798Z" fill="url(#paint15_linear)"/>
<path d="M411.732 261.459H430.681V292.039H411.732V261.459Z" fill="#EEEEEC" stroke="#3465A4"/>
<path d="M423.98 263.265H428.586V271.424L423.98 263.265Z" fill="white"/>
<path d="M429.505 287.04V291.053H413.304L429.505 287.04Z" fill="#D3D7CF"/>
<path d="M411.732 261.459H430.681V292.039H411.732V261.459Z" fill="#EEEEEC" stroke="#3465A4" stroke-width="0.64148"/>
<path d="M423.98 263.265H428.586V271.424L423.98 263.265Z" fill="white"/>
<path d="M429.505 287.04V291.053H413.304L429.505 287.04Z" fill="#D3D7CF"/>
<path d="M411.732 292.039H430.681V322.618H411.732V292.039Z" fill="#EEEEEC" stroke="#3465A4" stroke-width="0.64148"/>
<path d="M423.98 293.844H428.586V302.004L423.98 293.844Z" fill="white"/>
<path d="M429.505 317.62V321.633H413.304L429.505 317.62Z" fill="#D3D7CF"/>
<path d="M411.732 322.619H430.681V353.198H411.732V322.619Z" fill="#EEEEEC" stroke="#3465A4" stroke-width="0.64148"/>
<path d="M423.98 324.424H428.586V332.583L423.98 324.424Z" fill="white"/>
<path d="M429.505 348.199V352.213H413.304L429.505 348.199Z" fill="#D3D7CF"/>
<path d="M411.732 353.199H430.681V383.778H411.732V353.199Z" fill="#EEEEEC" stroke="#3465A4" stroke-width="0.64148"/>
<path d="M423.98 355.004H428.586V363.164L423.98 355.004Z" fill="white"/>
<path d="M429.505 378.779V382.793H413.304L429.505 378.779Z" fill="#D3D7CF"/>
<path d="M411.732 383.778H430.681V414.358H411.732V383.778Z" fill="#EEEEEC" stroke="#3465A4" stroke-width="0.64148"/>
<path d="M423.98 385.583H428.586V393.743L423.98 385.583Z" fill="white"/>
<path d="M429.505 409.359V413.372H413.304L429.505 409.359Z" fill="#D3D7CF"/>
<path d="M411.732 414.357H430.681V444.937H411.732V414.357Z" fill="#EEEEEC" stroke="#3465A4" stroke-width="0.64148"/>
<path d="M423.98 416.163H428.586V424.323L423.98 416.163Z" fill="white"/>
<path d="M429.505 439.938V443.951H413.304L429.505 439.938Z" fill="#D3D7CF"/>
<path d="M411.732 444.936H430.681V475.516H411.732V444.936Z" fill="#EEEEEC" stroke="#3465A4" stroke-width="0.64148"/>
<path d="M423.98 446.741H428.586V454.901L423.98 446.741Z" fill="white"/>
<path d="M429.505 470.517V474.53H413.304L429.505 470.517Z" fill="#D3D7CF"/>
<path d="M411.732 475.516H430.681V506.095H411.732V475.516Z" fill="#EEEEEC" stroke="#3465A4" stroke-width="0.64148"/>
<path d="M423.98 477.321H428.586V485.48L423.98 477.321Z" fill="white"/>
<path d="M429.505 501.096V505.11H413.304L429.505 501.096Z" fill="#D3D7CF"/>
<path d="M411.732 506.095H430.681V536.675H411.732V506.095Z" fill="#EEEEEC" stroke="#3465A4" stroke-width="0.64148"/>
<path d="M423.98 507.901H428.586V516.06L423.98 507.901Z" fill="white"/>
<path d="M429.505 531.676V535.689H413.304L429.505 531.676Z" fill="#D3D7CF"/>
<path d="M411.732 536.674H430.681V567.254H411.732V536.674Z" fill="#EEEEEC" stroke="#3465A4" stroke-width="0.64148"/>
<path d="M423.98 538.48H428.586V546.64L423.98 538.48Z" fill="white"/>
<path d="M429.505 562.255V566.268H413.304L429.505 562.255Z" fill="#D3D7CF"/>
<path d="M430.681 261.459H449.63V292.039H430.681V261.459Z" fill="#EEEEEC" stroke="#3465A4" stroke-width="0.64148"/>
<path d="M442.929 263.265H447.535V271.424L442.929 263.265Z" fill="white"/>
<path d="M448.454 287.04V291.053H432.253L448.454 287.04Z" fill="#D3D7CF"/>
<path d="M430.681 292.039H449.63V322.618H430.681V292.039Z" fill="#EEEEEC" stroke="#3465A4" stroke-width="0.64148"/>
<path d="M442.929 293.844H447.535V302.004L442.929 293.844Z" fill="white"/>
<path d="M448.454 317.62V321.633H432.253L448.454 317.62Z" fill="#D3D7CF"/>
<path d="M430.681 322.619H449.63V353.198H430.681V322.619Z" fill="#EEEEEC" stroke="#3465A4" stroke-width="0.64148"/>
<path d="M442.929 324.424H447.535V332.583L442.929 324.424Z" fill="white"/>
<path d="M448.454 348.199V352.213H432.253L448.454 348.199Z" fill="#D3D7CF"/>
<path d="M430.681 353.199H449.63V383.778H430.681V353.199Z" fill="#EEEEEC" stroke="#3465A4" stroke-width="0.64148"/>
<path d="M442.929 355.004H447.535V363.164L442.929 355.004Z" fill="white"/>
<path d="M448.454 378.779V382.793H432.253L448.454 378.779Z" fill="#D3D7CF"/>
<path d="M430.681 383.778H449.63V414.358H430.681V383.778Z" fill="#EEEEEC" stroke="#3465A4" stroke-width="0.64148"/>
<path d="M442.929 385.583H447.535V393.743L442.929 385.583Z" fill="white"/>
<path d="M448.454 409.359V413.372H432.253L448.454 409.359Z" fill="#D3D7CF"/>
<path d="M430.681 414.357H449.63V444.937H430.681V414.357Z" fill="#EEEEEC" stroke="#3465A4" stroke-width="0.64148"/>
<path d="M442.929 416.163H447.535V424.323L442.929 416.163Z" fill="white"/>
<path d="M448.454 439.938V443.951H432.253L448.454 439.938Z" fill="#D3D7CF"/>
<path d="M430.681 444.936H449.63V475.516H430.681V444.936Z" fill="#EEEEEC" stroke="#3465A4" stroke-width="0.64148"/>
<path d="M442.929 446.741H447.535V454.901L442.929 446.741Z" fill="white"/>
<path d="M448.454 470.517V474.53H432.253L448.454 470.517Z" fill="#D3D7CF"/>
<path d="M430.681 475.516H449.63V506.095H430.681V475.516Z" fill="#EEEEEC" stroke="#3465A4" stroke-width="0.64148"/>
<path d="M442.929 477.321H447.535V485.48L442.929 477.321Z" fill="white"/>
<path d="M448.454 501.096V505.11H432.253L448.454 501.096Z" fill="#D3D7CF"/>
<path d="M430.681 506.095H449.63V536.675H430.681V506.095Z" fill="#EEEEEC" stroke="#3465A4" stroke-width="0.64148"/>
<path d="M442.929 507.901H447.535V516.06L442.929 507.901Z" fill="white"/>
<path d="M448.454 531.676V535.689H432.253L448.454 531.676Z" fill="#D3D7CF"/>
<path d="M430.681 536.674H449.63V567.254H430.681V536.674Z" fill="#EEEEEC" stroke="#3465A4" stroke-width="0.64148"/>
<path d="M442.929 538.48H447.535V546.64L442.929 538.48Z" fill="white"/>
<path d="M448.454 562.255V566.268H432.253L448.454 562.255Z" fill="#D3D7CF"/>
<path d="M449.631 261.459H468.581V292.039H449.631V261.459Z" fill="#EEEEEC" stroke="#3465A4" stroke-width="0.64148"/>
<path d="M461.879 263.265H466.485V271.424L461.879 263.265Z" fill="white"/>
<path d="M467.404 287.04V291.053H451.203L467.404 287.04Z" fill="#D3D7CF"/>
<path d="M449.631 292.039H468.581V322.618H449.631V292.039Z" fill="#EEEEEC" stroke="#3465A4" stroke-width="0.64148"/>
<path d="M461.879 293.844H466.485V302.004L461.879 293.844Z" fill="white"/>
<path d="M467.404 317.62V321.633H451.203L467.404 317.62Z" fill="#D3D7CF"/>
<path d="M449.631 322.619H468.581V353.198H449.631V322.619Z" fill="#EEEEEC" stroke="#3465A4" stroke-width="0.64148"/>
<path d="M461.879 324.424H466.485V332.583L461.879 324.424Z" fill="white"/>
<path d="M467.404 348.199V352.213H451.203L467.404 348.199Z" fill="#D3D7CF"/>
<path d="M449.631 353.199H468.581V383.778H449.631V353.199Z" fill="#EEEEEC" stroke="#3465A4" stroke-width="0.64148"/>
<path d="M461.879 355.004H466.485V363.164L461.879 355.004Z" fill="white"/>
<path d="M467.404 378.779V382.793H451.203L467.404 378.779Z" fill="#D3D7CF"/>
<path d="M449.631 383.778H468.581V414.358H449.631V383.778Z" fill="#EEEEEC" stroke="#3465A4" stroke-width="0.64148"/>
<path d="M461.879 385.583H466.485V393.743L461.879 385.583Z" fill="white"/>
<path d="M467.404 409.359V413.372H451.203L467.404 409.359Z" fill="#D3D7CF"/>
<path d="M449.631 414.357H468.581V444.937H449.631V414.357Z" fill="#EEEEEC" stroke="#3465A4" stroke-width="0.64148"/>
<path d="M461.879 416.163H466.485V424.323L461.879 416.163Z" fill="white"/>
<path d="M467.404 439.938V443.951H451.203L467.404 439.938Z" fill="#D3D7CF"/>
<path d="M449.631 444.936H468.581V475.516H449.631V444.936Z" fill="#EEEEEC" stroke="#3465A4" stroke-width="0.64148"/>
<path d="M461.879 446.741H466.485V454.901L461.879 446.741Z" fill="white"/>
<path d="M467.404 470.517V474.53H451.203L467.404 470.517Z" fill="#D3D7CF"/>
<path d="M449.631 475.516H468.581V506.095H449.631V475.516Z" fill="#EEEEEC" stroke="#3465A4" stroke-width="0.64148"/>
<path d="M461.879 477.321H466.485V485.48L461.879 477.321Z" fill="white"/>
<path d="M467.404 501.096V505.11H451.203L467.404 501.096Z" fill="#D3D7CF"/>
<path d="M449.631 506.095H468.581V536.675H449.631V506.095Z" fill="#EEEEEC" stroke="#3465A4" stroke-width="0.64148"/>
<path d="M461.879 507.901H466.485V516.06L461.879 507.901Z" fill="white"/>
<path d="M467.404 531.676V535.689H451.203L467.404 531.676Z" fill="#D3D7CF"/>
<path d="M449.631 536.674H468.581V567.254H449.631V536.674Z" fill="#EEEEEC" stroke="#3465A4" stroke-width="0.64148"/>
<path d="M461.879 538.48H466.485V546.64L461.879 538.48Z" fill="white"/>
<path d="M467.404 562.255V566.268H451.203L467.404 562.255Z" fill="#D3D7CF"/>
<path d="M468.581 261.459H487.53V292.039H468.581V261.459Z" fill="#EEEEEC" stroke="#3465A4" stroke-width="0.64148"/>
<path d="M480.829 263.265H485.435V271.424L480.829 263.265Z" fill="white"/>
<path d="M486.354 287.04V291.053H470.153L486.354 287.04Z" fill="#D3D7CF"/>
<path d="M468.581 292.039H487.53V322.618H468.581V292.039Z" fill="#EEEEEC" stroke="#3465A4" stroke-width="0.64148"/>
<path d="M480.829 293.844H485.435V302.004L480.829 293.844Z" fill="white"/>
<path d="M486.354 317.62V321.633H470.153L486.354 317.62Z" fill="#D3D7CF"/>
<path d="M468.581 322.619H487.53V353.198H468.581V322.619Z" fill="#EEEEEC" stroke="#3465A4" stroke-width="0.64148"/>
<path d="M480.829 324.424H485.435V332.583L480.829 324.424Z" fill="white"/>
<path d="M486.354 348.199V352.213H470.153L486.354 348.199Z" fill="#D3D7CF"/>
<path d="M468.581 353.199H487.53V383.778H468.581V353.199Z" fill="#EEEEEC" stroke="#3465A4" stroke-width="0.64148"/>
<path d="M480.829 355.004H485.435V363.164L480.829 355.004Z" fill="white"/>
<path d="M486.354 378.779V382.793H470.153L486.354 378.779Z" fill="#D3D7CF"/>
<path d="M468.581 383.778H487.53V414.358H468.581V383.778Z" fill="#EEEEEC" stroke="#3465A4" stroke-width="0.64148"/>
<path d="M480.829 385.583H485.435V393.743L480.829 385.583Z" fill="white"/>
<path d="M486.354 409.359V413.372H470.153L486.354 409.359Z" fill="#D3D7CF"/>
<path d="M468.581 414.357H487.53V444.937H468.581V414.357Z" fill="#EEEEEC" stroke="#3465A4" stroke-width="0.64148"/>
<path d="M480.829 416.163H485.435V424.323L480.829 416.163Z" fill="white"/>
<path d="M486.354 439.938V443.951H470.153L486.354 439.938Z" fill="#D3D7CF"/>
<path d="M468.581 444.936H487.53V475.516H468.581V444.936Z" fill="#EEEEEC" stroke="#3465A4" stroke-width="0.64148"/>
<path d="M480.829 446.741H485.435V454.901L480.829 446.741Z" fill="white"/>
<path d="M486.354 470.517V474.53H470.153L486.354 470.517Z" fill="#D3D7CF"/>
<path d="M468.581 475.516H487.53V506.095H468.581V475.516Z" fill="#EEEEEC" stroke="#3465A4" stroke-width="0.64148"/>
<path d="M480.829 477.321H485.435V485.48L480.829 477.321Z" fill="white"/>
<path d="M486.354 501.096V505.11H470.153L486.354 501.096Z" fill="#D3D7CF"/>
<path d="M468.581 506.095H487.53V536.675H468.581V506.095Z" fill="#EEEEEC" stroke="#3465A4" stroke-width="0.64148"/>
<path d="M480.829 507.901H485.435V516.06L480.829 507.901Z" fill="white"/>
<path d="M486.354 531.676V535.689H470.153L486.354 531.676Z" fill="#D3D7CF"/>
<path d="M468.581 536.674H487.53V567.254H468.581V536.674Z" fill="#EEEEEC" stroke="#3465A4" stroke-width="0.64148"/>
<path d="M480.829 538.48H485.435V546.64L480.829 538.48Z" fill="white"/>
<path d="M486.354 562.255V566.268H470.153L486.354 562.255Z" fill="#D3D7CF"/>
<path d="M487.53 261.459H506.479V292.039H487.53V261.459Z" fill="#EEEEEC" stroke="#3465A4" stroke-width="0.64148"/>
<path d="M499.777 263.265H504.383V271.424L499.777 263.265Z" fill="white"/>
<path d="M505.303 287.04V291.053H489.102L505.303 287.04Z" fill="#D3D7CF"/>
<path d="M487.53 292.039H506.479V322.618H487.53V292.039Z" fill="#EEEEEC" stroke="#3465A4" stroke-width="0.64148"/>
<path d="M499.777 293.844H504.383V302.004L499.777 293.844Z" fill="white"/>
<path d="M505.303 317.62V321.633H489.102L505.303 317.62Z" fill="#D3D7CF"/>
<path d="M487.53 322.619H506.479V353.198H487.53V322.619Z" fill="#EEEEEC" stroke="#3465A4" stroke-width="0.64148"/>
<path d="M499.777 324.424H504.383V332.583L499.777 324.424Z" fill="white"/>
<path d="M505.303 348.199V352.213H489.102L505.303 348.199Z" fill="#D3D7CF"/>
<path d="M487.53 353.199H506.479V383.778H487.53V353.199Z" fill="#EEEEEC" stroke="#3465A4" stroke-width="0.64148"/>
<path d="M499.777 355.004H504.383V363.164L499.777 355.004Z" fill="white"/>
<path d="M505.303 378.779V382.793H489.102L505.303 378.779Z" fill="#D3D7CF"/>
<path d="M487.53 383.778H506.479V414.358H487.53V383.778Z" fill="#EEEEEC" stroke="#3465A4" stroke-width="0.64148"/>
<path d="M499.777 385.583H504.383V393.743L499.777 385.583Z" fill="white"/>
<path d="M505.303 409.359V413.372H489.102L505.303 409.359Z" fill="#D3D7CF"/>
<path d="M487.53 414.357H506.479V444.937H487.53V414.357Z" fill="#EEEEEC" stroke="#3465A4" stroke-width="0.64148"/>
<path d="M499.777 416.163H504.383V424.323L499.777 416.163Z" fill="white"/>
<path d="M505.303 439.938V443.951H489.102L505.303 439.938Z" fill="#D3D7CF"/>
<path d="M487.53 444.936H506.479V475.516H487.53V444.936Z" fill="#EEEEEC" stroke="#3465A4" stroke-width="0.64148"/>
<path d="M499.777 446.741H504.383V454.901L499.777 446.741Z" fill="white"/>
<path d="M505.303 470.517V474.53H489.102L505.303 470.517Z" fill="#D3D7CF"/>
<path d="M487.53 475.516H506.479V506.095H487.53V475.516Z" fill="#EEEEEC" stroke="#3465A4" stroke-width="0.64148"/>
<path d="M499.777 477.321H504.383V485.48L499.777 477.321Z" fill="white"/>
<path d="M505.303 501.096V505.11H489.102L505.303 501.096Z" fill="#D3D7CF"/>
<path d="M487.53 506.095H506.479V536.675H487.53V506.095Z" fill="#EEEEEC" stroke="#3465A4" stroke-width="0.64148"/>
<path d="M499.777 507.901H504.383V516.06L499.777 507.901Z" fill="white"/>
<path d="M505.303 531.676V535.689H489.102L505.303 531.676Z" fill="#D3D7CF"/>
<path d="M487.53 536.674H506.479V567.254H487.53V536.674Z" fill="#EEEEEC" stroke="#3465A4" stroke-width="0.64148"/>
<path d="M499.777 538.48H504.383V546.64L499.777 538.48Z" fill="white"/>
<path d="M505.303 562.255V566.268H489.102L505.303 562.255Z" fill="#D3D7CF"/>
<path d="M506.479 261.459H525.429V292.039H506.479V261.459Z" fill="#EEEEEC" stroke="#3465A4" stroke-width="0.64148"/>
<path d="M518.728 263.265H523.334V271.424L518.728 263.265Z" fill="white"/>
<path d="M524.253 287.04V291.053H508.052L524.253 287.04Z" fill="#D3D7CF"/>
<path d="M506.479 292.039H525.429V322.618H506.479V292.039Z" fill="#EEEEEC" stroke="#3465A4" stroke-width="0.64148"/>
<path d="M518.728 293.844H523.334V302.004L518.728 293.844Z" fill="white"/>
<path d="M524.253 317.62V321.633H508.052L524.253 317.62Z" fill="#D3D7CF"/>
<path d="M506.479 322.619H525.429V353.198H506.479V322.619Z" fill="#EEEEEC" stroke="#3465A4" stroke-width="0.64148"/>
<path d="M518.728 324.424H523.334V332.583L518.728 324.424Z" fill="white"/>
<path d="M524.253 348.199V352.213H508.052L524.253 348.199Z" fill="#D3D7CF"/>
<path d="M506.479 353.199H525.429V383.778H506.479V353.199Z" fill="#EEEEEC" stroke="#3465A4" stroke-width="0.64148"/>
<path d="M518.728 355.004H523.334V363.164L518.728 355.004Z" fill="white"/>
<path d="M524.253 378.779V382.793H508.052L524.253 378.779Z" fill="#D3D7CF"/>
<path d="M506.479 383.778H525.429V414.358H506.479V383.778Z" fill="#EEEEEC" stroke="#3465A4" stroke-width="0.64148"/>
<path d="M518.728 385.583H523.334V393.743L518.728 385.583Z" fill="white"/>
<path d="M524.253 409.359V413.372H508.052L524.253 409.359Z" fill="#D3D7CF"/>
<path d="M506.479 414.357H525.429V444.937H506.479V414.357Z" fill="#EEEEEC" stroke="#3465A4" stroke-width="0.64148"/>
<path d="M518.728 416.163H523.334V424.323L518.728 416.163Z" fill="white"/>
<path d="M524.253 439.938V443.951H508.052L524.253 439.938Z" fill="#D3D7CF"/>
<path d="M506.479 444.936H525.429V475.516H506.479V444.936Z" fill="#EEEEEC" stroke="#3465A4" stroke-width="0.64148"/>
<path d="M518.728 446.741H523.334V454.901L518.728 446.741Z" fill="white"/>
<path d="M524.253 470.517V474.53H508.052L524.253 470.517Z" fill="#D3D7CF"/>
<path d="M506.479 475.516H525.429V506.095H506.479V475.516Z" fill="#EEEEEC" stroke="#3465A4" stroke-width="0.64148"/>
<path d="M518.728 477.321H523.334V485.48L518.728 477.321Z" fill="white"/>
<path d="M524.253 501.096V505.11H508.052L524.253 501.096Z" fill="#D3D7CF"/>
<path d="M506.479 506.095H525.429V536.675H506.479V506.095Z" fill="#EEEEEC" stroke="#3465A4" stroke-width="0.64148"/>
<path d="M518.728 507.901H523.334V516.06L518.728 507.901Z" fill="white"/>
<path d="M524.253 531.676V535.689H508.052L524.253 531.676Z" fill="#D3D7CF"/>
<path d="M506.479 536.674H525.429V567.254H506.479V536.674Z" fill="#EEEEEC" stroke="#3465A4" stroke-width="0.64148"/>
<path d="M518.728 538.48H523.334V546.64L518.728 538.48Z" fill="white"/>
<path d="M524.253 562.255V566.268H508.052L524.253 562.255Z" fill="#D3D7CF"/>
<path d="M525.429 261.459H544.378V292.039H525.429V261.459Z" fill="#EEEEEC" stroke="#3465A4" stroke-width="0.64148"/>
<path d="M537.677 263.265H542.283V271.424L537.677 263.265Z" fill="white"/>
<path d="M543.203 287.04V291.053H527.001L543.203 287.04Z" fill="#D3D7CF"/>
<path d="M525.429 292.039H544.378V322.618H525.429V292.039Z" fill="#EEEEEC" stroke="#3465A4" stroke-width="0.64148"/>
<path d="M537.677 293.844H542.283V302.004L537.677 293.844Z" fill="white"/>
<path d="M543.203 317.62V321.633H527.001L543.203 317.62Z" fill="#D3D7CF"/>
<path d="M525.429 322.619H544.378V353.198H525.429V322.619Z" fill="#EEEEEC" stroke="#3465A4" stroke-width="0.64148"/>
<path d="M537.677 324.424H542.283V332.583L537.677 324.424Z" fill="white"/>
<path d="M543.203 348.199V352.213H527.001L543.203 348.199Z" fill="#D3D7CF"/>
<path d="M525.429 353.199H544.378V383.778H525.429V353.199Z" fill="#EEEEEC" stroke="#3465A4" stroke-width="0.64148"/>
<path d="M537.677 355.004H542.283V363.164L537.677 355.004Z" fill="white"/>
<path d="M543.203 378.779V382.793H527.001L543.203 378.779Z" fill="#D3D7CF"/>
<path d="M525.429 383.778H544.378V414.358H525.429V383.778Z" fill="#EEEEEC" stroke="#3465A4" stroke-width="0.64148"/>
<path d="M537.677 385.583H542.283V393.743L537.677 385.583Z" fill="white"/>
<path d="M543.203 409.359V413.372H527.001L543.203 409.359Z" fill="#D3D7CF"/>
<path d="M525.429 414.357H544.378V444.937H525.429V414.357Z" fill="#EEEEEC" stroke="#3465A4" stroke-width="0.64148"/>
<path d="M537.677 416.163H542.283V424.323L537.677 416.163Z" fill="white"/>
<path d="M543.203 439.938V443.951H527.001L543.203 439.938Z" fill="#D3D7CF"/>
<path d="M525.429 444.936H544.378V475.516H525.429V444.936Z" fill="#EEEEEC" stroke="#3465A4" stroke-width="0.64148"/>
<path d="M537.677 446.741H542.283V454.901L537.677 446.741Z" fill="white"/>
<path d="M543.203 470.517V474.53H527.001L543.203 470.517Z" fill="#D3D7CF"/>
<path d="M525.429 475.516H544.378V506.095H525.429V475.516Z" fill="#EEEEEC" stroke="#3465A4" stroke-width="0.64148"/>
<path d="M537.677 477.321H542.283V485.48L537.677 477.321Z" fill="white"/>
<path d="M543.203 501.096V505.11H527.001L543.203 501.096Z" fill="#D3D7CF"/>
<path d="M525.429 506.095H544.378V536.675H525.429V506.095Z" fill="#EEEEEC" stroke="#3465A4" stroke-width="0.64148"/>
<path d="M537.677 507.901H542.283V516.06L537.677 507.901Z" fill="white"/>
<path d="M543.203 531.676V535.689H527.001L543.203 531.676Z" fill="#D3D7CF"/>
<path d="M525.429 536.674H544.378V567.254H525.429V536.674Z" fill="#EEEEEC" stroke="#3465A4" stroke-width="0.64148"/>
<path d="M537.677 538.48H542.283V546.64L537.677 538.48Z" fill="white"/>
<path d="M543.203 562.255V566.268H527.001L543.203 562.255Z" fill="#D3D7CF"/>
<path d="M411.64 230.079H544.534V261.617H411.64V230.079Z" fill="url(#paint16_linear)"/>
<path d="M273.192 384.881H443.872V567.731H273.192V384.881Z" fill="url(#paint17_linear)"/>
<path d="M285.879 391.798H431.19V396.195H285.879V391.798Z" fill="#555753"/>
<path d="M285.879 401.901H431.19V406.298H285.879V401.901Z" fill="#555753"/>
<path d="M285.879 462.52H431.19V466.917H285.879V462.52Z" fill="#555753"/>
<path d="M285.879 472.618H431.19V477.015H285.879V472.618Z" fill="#555753"/>
<path d="M285.879 482.721H431.19V487.118H285.879V482.721Z" fill="#555753"/>
<path d="M285.879 492.824H431.19V497.221H285.879V492.824Z" fill="#555753"/>
<path d="M285.879 502.927H431.19V507.324H285.879V502.927Z" fill="#555753"/>
<path d="M285.879 513.03H431.19V517.427H285.879V513.03Z" fill="#555753"/>
<path d="M285.879 523.133H431.19V527.53H285.879V523.133Z" fill="#555753"/>
<path d="M285.879 533.236H431.19V537.633H285.879V533.236Z" fill="#555753"/>
<path d="M285.879 543.339H431.19V547.736H285.879V543.339Z" fill="#555753"/>
<path d="M285.879 412.004H431.19V416.401H285.879V412.004Z" fill="#555753"/>
<path d="M285.879 422.107H431.19V426.504H285.879V422.107Z" fill="#555753"/>
<path d="M285.879 432.21H431.19V436.607H285.879V432.21Z" fill="#555753"/>
<path d="M285.879 442.313H431.19V446.71H285.879V442.313Z" fill="#555753"/>
<path d="M285.879 452.416H431.19V456.813H285.879V452.416Z" fill="#555753"/>
<path d="M306.906 385.154H309.989V550.668H306.906V385.154Z" fill="#8A9DA5"/>
<path d="M407.059 387.348H410.142V552.862H407.059V387.348Z" fill="#8A9DA5"/>
<path d="M340.286 386.169H343.369V551.684H340.286V386.169Z" fill="#8A9DA5"/>
<path d="M373.667 385.492H376.749V551.006H373.667V385.492Z" fill="#8A9DA5"/>
<path d="M421.444 553.332H430.761V567.2H421.444V553.332Z" fill="#555753"/>
<path d="M353.9 553.332H363.217V567.2H353.9V553.332Z" fill="#555753"/>
<path d="M342.637 553.332H351.954V567.2H342.637V553.332Z" fill="#555753"/>
<path d="M331.386 553.332H340.703V567.2H331.386V553.332Z" fill="#555753"/>
<path d="M320.122 553.332H329.439V567.2H320.122V553.332Z" fill="#555753"/>
<path d="M308.858 553.332H318.175V567.2H308.858V553.332Z" fill="#555753"/>
<path d="M297.607 553.332H306.924V567.2H297.607V553.332Z" fill="#555753"/>
<path d="M286.344 553.332H295.661V567.2H286.344V553.332Z" fill="#555753"/>
<path d="M275.093 553.332H284.41V567.2H275.093V553.332Z" fill="#555753"/>
<path d="M432.695 553.332H442.012V567.2H432.695V553.332Z" fill="#555753"/>
<path d="M410.18 553.332H419.497V567.2H410.18V553.332Z" fill="#555753"/>
<path d="M398.929 553.332H408.246V567.2H398.929V553.332Z" fill="#555753"/>
<path d="M387.666 553.332H396.982V567.2H387.666V553.332Z" fill="#555753"/>
<path d="M376.415 553.332H385.732V567.2H376.415V553.332Z" fill="#555753"/>
<path d="M365.151 553.332H374.468V567.2H365.151V553.332Z" fill="#555753"/>
<path d="M196.286 27.1563C167.966 28.8997 158.457 64.9346 178.934 80.0462C185.484 93.0038 162.765 107.067 150.945 96.0384C130.844 89.7286 106.346 98.6436 97.1813 115.423C74.7605 104.997 47.677 123.3 46.4611 143.881C42.5162 164.735 60.3783 190.088 86.6886 188.633C103.168 189.727 112.14 166.816 129.584 180.017C148.025 185.633 165.279 163.376 179.813 177.034C195.558 184.056 216.38 182.355 229.432 171.639C247.629 181.184 271.968 162.91 287.242 179.676C314.9 195.647 357.917 189.42 375.082 163.947C389.886 162.262 398.192 184.119 416.557 178.957C431.216 182.669 444.83 164.72 453.439 167.808C470.555 182.555 503.107 173.324 507.719 152.848C514.9 133.227 495.038 108.503 470.417 112.153C449.221 122.864 443.374 88.5748 420.566 93.0741C414.824 86.7502 429.173 72.2887 419.949 62.5132C414.131 47.3141 392.291 38.4293 376.014 46.8613C368.257 54.1424 360.441 70.6713 348.555 56.8583C331.336 46.0119 307.398 55.4026 291.969 52.4885C274.26 38.0862 246.933 32.6099 224.217 40.5962C218.565 32.2506 207.609 26.3088 196.288 27.1582L196.286 27.1563Z" fill="url(#paint18_linear)"/>
<path d="M235.42 71.6241C218.314 72.6735 212.79 97.0641 225.259 107.406C229.297 116.224 215.653 125.654 208.439 118.119C196.251 113.746 181.499 119.676 176.063 131.01C162.447 123.835 146.19 136.12 145.583 150.069C143.327 164.192 154.28 181.467 170.174 180.604C180.141 181.423 185.423 165.929 196.048 174.963C207.228 178.858 217.519 163.846 226.388 173.176C235.949 178.011 248.522 176.955 256.346 169.75C267.404 176.308 282.001 164.031 291.336 175.471C308.153 186.431 334.114 182.41 344.331 165.217C353.267 164.145 358.423 179.004 369.492 175.59C378.375 178.176 386.492 166.068 391.715 168.203C402.151 178.283 421.768 172.176 424.43 158.313C428.649 145.043 416.491 128.185 401.633 130.544C388.888 137.707 385.143 114.428 371.384 117.373C367.874 113.057 376.458 103.318 370.822 96.6471C367.212 86.3132 353.957 80.1859 344.171 85.8275C339.527 90.7283 334.906 101.9 327.636 92.4776C317.162 85.0419 302.752 91.2974 293.408 89.249C282.615 79.3995 266.064 75.5585 252.383 80.8674C248.916 75.1817 242.256 71.101 235.419 71.624L235.42 71.6241Z" fill="url(#paint19_linear)"/>
<path d="M377.533 482.255C359.146 491.412 347.327 505.651 347.327 521.642C347.327 540.268 363.349 556.518 387.125 565.128C405.512 555.971 417.332 541.733 417.332 525.742C417.332 507.115 401.309 490.865 377.533 482.255Z" fill="#5C8C2E"/>
<path d="M383.159 505.536L394.826 609.377H382.325L383.159 505.536V505.536Z" fill="#8F5902"/>
<path d="M408.96 523.944L387.36 550.065L384.586 547.765L408.96 523.944L408.96 523.944Z" fill="#8F5902"/>
<path d="M360.715 520.611L383.098 540.827L385.973 539.047L360.715 520.611L360.715 520.611Z" fill="#8F5902"/>
<path d="M283.903 480.156C302.29 488.476 314.109 501.413 314.109 515.943C314.109 532.867 298.086 547.632 274.31 555.455C255.923 547.135 244.104 534.198 244.104 519.668C244.104 502.743 260.127 487.978 283.903 480.156Z" fill="#70781D"/>
<path d="M278.277 501.31L266.61 595.659H279.111L278.277 501.31V501.31Z" fill="#8F5902"/>
<path d="M252.476 518.04L274.076 541.773L276.85 539.683L252.476 518.04L252.476 518.04Z" fill="#8F5902"/>
<path d="M300.721 515.005L278.337 533.373L275.462 531.755L300.721 515.004L300.721 515.005Z" fill="#8F5902"/>
<path d="M1295.39 495.154C1313.78 503.474 1322.27 538.196 1322.27 552.726C1322.27 569.65 1309.58 562.63 1285.8 570.453C1267.41 562.133 1253.09 568.076 1253.09 553.546C1253.09 536.622 1271.62 502.976 1295.39 495.154Z" fill="#9CB13C"/>
<path d="M1289.77 516.308L1279.77 591.777H1292.27L1289.77 516.308V516.308Z" fill="#8F5902"/>
<path d="M1263.96 532.99L1285.56 556.723L1288.34 554.634L1263.96 532.99L1263.96 532.99Z" fill="#8F5902"/>
<path d="M1312.2 529.988L1289.82 548.355L1286.94 546.738L1312.2 529.987L1312.2 529.988Z" fill="#8F5902"/>
<path d="M501.905 540.756L491.904 616.226H504.405L501.905 540.756Z" fill="#8F5902"/>
<path d="M507.538 519.625C525.925 527.945 534.411 562.667 534.411 577.196C534.411 594.121 521.722 587.101 497.946 594.923C479.559 586.604 465.239 592.546 465.239 578.017C465.239 561.092 483.762 527.447 507.538 519.625Z" fill="url(#paint20_linear)"/>
<path d="M508.58 483.172C523.834 490.074 530.874 518.88 530.874 530.934C530.874 544.975 520.347 539.151 500.622 545.64C485.368 538.738 473.488 543.669 473.488 531.615C473.488 517.574 488.855 489.662 508.58 483.172V483.172Z" fill="url(#paint21_linear)"/>
<path d="M509.813 453.617C520.995 458.676 526.155 479.791 526.155 488.627C526.155 498.918 518.439 494.65 503.98 499.406C492.799 494.347 484.091 497.961 484.091 489.125C484.091 478.834 495.355 458.374 509.813 453.616V453.617Z" fill="url(#paint22_linear)"/>
<path d="M672.391 509.127C690.778 517.447 699.264 552.169 699.264 566.699C699.264 583.623 686.575 576.604 662.799 584.426C644.412 576.106 630.092 582.049 630.092 567.519C630.092 550.595 648.615 516.95 672.391 509.127Z" fill="#448552"/>
<path d="M666.766 530.28L656.765 605.75H669.266L666.766 530.28V530.28Z" fill="#8F5902"/>
<path d="M640.964 547.011L662.564 570.744L665.338 568.655L640.964 547.011L640.964 547.011Z" fill="#8F5902"/>
<path d="M689.209 543.976L666.826 562.344L663.951 560.727L689.209 543.976L689.209 543.976Z" fill="#8F5902"/>
<path d="M791.831 482.383C762.604 482.383 742.244 498.682 742.244 512.518C742.244 526.355 771.771 530.309 800.998 530.309C820.705 524.783 824.712 544.289 843.918 545.559C860.028 545.559 873.087 538.731 873.087 530.309C874.726 516.034 847.804 519.393 848.085 512.518C848.085 498.682 821.058 482.383 791.831 482.383Z" fill="#D7E0B1"/>
<path d="M797.148 494.728C774.64 494.728 758.96 507.28 758.96 517.936C758.96 528.591 781.7 531.637 804.208 531.637C819.384 527.381 822.47 542.402 837.261 543.38C849.667 543.38 859.724 538.122 859.724 531.637C860.986 520.643 840.254 523.23 840.47 517.936C840.47 507.28 819.656 494.728 797.148 494.728Z" fill="#BFCD82"/>
<path d="M791.414 500.537L803.082 610.913H790.581L791.414 500.537V500.537Z" fill="#8F5902"/>
<path d="M833.884 526.57L794.783 546.518L792.842 538.772L833.884 526.57H833.884Z" fill="#8F5902"/>
<path d="M768.971 518.517L791.771 543.452L794.229 536.952L768.971 518.517L768.971 518.517Z" fill="#8F5902"/>
<path d="M1535.28 494.559C1564.5 494.559 1584.86 507.543 1584.86 518.566C1584.86 529.588 1555.34 532.738 1526.11 532.738C1506.4 528.336 1502.39 543.874 1483.19 544.886C1467.08 544.886 1454.02 539.447 1454.02 532.738C1452.38 521.366 1479.3 524.042 1479.02 518.566C1479.02 507.543 1506.05 494.559 1535.28 494.559Z" fill="#D7E0B1"/>
<path d="M1529.96 504.393C1552.47 504.393 1568.15 514.393 1568.15 522.881C1568.15 531.37 1545.41 533.796 1522.9 533.796C1507.72 530.405 1504.64 542.371 1489.85 543.151C1477.44 543.151 1467.38 538.962 1467.38 533.796C1466.12 525.038 1486.85 527.099 1486.64 522.881C1486.64 514.393 1507.45 504.393 1529.96 504.393Z" fill="#BFCD82"/>
<path d="M1535.69 509.021L1524.02 596.948H1536.53L1535.69 509.021V509.021Z" fill="#8F5902"/>
<path d="M1493.22 529.759L1532.32 545.65L1534.26 539.479L1493.22 529.759H1493.22Z" fill="#8F5902"/>
<path d="M1558.14 523.344L1535.34 543.208L1532.88 538.03L1558.14 523.344L1558.14 523.344Z" fill="#8F5902"/>
<path d="M981.356 527.447L994.73 602.917H978.012L981.356 527.447Z" fill="#8F5902"/>
<path d="M973.822 506.315C949.232 514.635 937.883 549.357 937.883 563.886C937.883 580.811 954.853 573.791 986.65 581.613C1011.24 573.294 1030.39 579.236 1030.39 564.707C1030.39 547.782 1005.62 514.137 973.822 506.315Z" fill="url(#paint23_linear)"/>
<path d="M972.428 469.862C952.028 476.765 942.614 505.57 942.614 517.624C942.614 531.665 956.692 525.841 983.071 532.331C1003.47 525.429 1019.36 530.359 1019.36 518.305C1019.36 504.264 998.807 476.352 972.428 469.862V469.862Z" fill="url(#paint24_linear)"/>
<path d="M970.779 440.307C955.825 445.367 948.924 466.481 948.924 475.317C948.924 485.609 959.244 481.34 978.58 486.097C993.534 481.037 1005.18 484.651 1005.18 475.816C1005.18 465.524 990.114 445.064 970.779 440.307V440.307Z" fill="url(#paint25_linear)"/>
<path d="M163.08 537.453L176.454 612.923H159.736L163.08 537.453Z" fill="#8F5902"/>
<path d="M155.545 516.322C130.955 524.642 119.607 559.363 119.607 573.893C119.607 590.818 136.577 583.798 168.374 591.62C192.964 583.301 212.114 589.243 212.114 574.714C212.114 557.789 187.342 524.144 155.545 516.322Z" fill="url(#paint26_linear)"/>
<path d="M154.152 479.869C133.752 486.771 124.337 515.577 124.337 527.631C124.337 541.672 138.416 535.848 164.795 542.338C185.195 535.435 201.082 540.366 201.082 528.312C201.082 514.271 180.531 486.359 154.152 479.869V479.869Z" fill="url(#paint27_linear)"/>
<path d="M152.503 450.314C137.549 455.374 130.648 476.488 130.648 485.324C130.648 495.616 140.968 491.347 160.303 496.104C175.257 491.044 186.902 494.658 186.902 485.823C186.902 475.531 171.838 455.071 152.503 450.313V450.314Z" fill="url(#paint28_linear)"/>
<path d="M587.053 507.735C608.297 517.347 618.102 557.465 618.102 574.253C618.102 593.807 603.44 585.697 575.97 594.735C554.725 585.122 538.181 591.988 538.181 575.201C538.181 555.646 559.582 516.773 587.053 507.735Z" fill="#9CB13C"/>
<path d="M580.553 532.175L568.999 619.373H583.442L580.553 532.175V532.175Z" fill="#8F5902"/>
<path d="M550.74 551.45L575.696 578.872L578.902 576.457L550.739 551.451L550.74 551.45Z" fill="#8F5902"/>
<path d="M606.472 547.981L580.61 569.203L577.288 567.335L606.471 547.98L606.472 547.981Z" fill="#8F5902"/>
<path d="M1096.45 475.153C1114.84 483.472 1126.66 496.41 1126.66 510.939C1126.66 527.864 1110.63 542.629 1086.86 550.451C1068.47 542.132 1056.65 529.194 1056.65 514.665C1056.65 497.74 1072.68 482.975 1096.45 475.153Z" fill="#70781D"/>
<path d="M1090.83 496.306L1079.16 590.656H1091.66L1090.83 496.306V496.306Z" fill="#8F5902"/>
<path d="M1065.02 513.037L1086.62 536.77L1089.4 534.68L1065.02 513.036L1065.02 513.037Z" fill="#8F5902"/>
<path d="M1113.27 510.001L1090.89 528.37L1088.01 526.752L1113.27 510.001L1113.27 510.001Z" fill="#8F5902"/>
<path d="M1180.53 477.621C1217.44 477.621 1243.16 494.022 1243.16 507.945C1243.16 521.868 1205.86 525.848 1168.95 525.848C1144.05 520.287 1138.99 539.915 1114.73 541.193C1094.38 541.193 1077.89 534.322 1077.89 525.848C1075.81 511.483 1109.82 514.863 1109.47 507.945C1109.47 494.022 1143.61 477.621 1180.53 477.621Z" fill="#D7E0B1"/>
<path d="M1173.81 490.042C1202.24 490.042 1222.05 502.674 1222.05 513.396C1222.05 524.119 1193.32 527.183 1164.89 527.183C1145.72 522.901 1141.82 538.016 1123.14 539C1107.47 539 1094.76 533.709 1094.76 527.183C1093.17 516.12 1119.36 518.724 1119.09 513.396C1119.09 502.674 1145.38 490.042 1173.81 490.042Z" fill="#BFCD82"/>
<path d="M1181.05 495.889L1166.31 606.957H1182.1L1181.05 495.889V495.889Z" fill="#8F5902"/>
<path d="M1127.41 522.084L1176.8 542.158L1179.25 534.363L1127.41 522.084H1127.41Z" fill="#8F5902"/>
<path d="M1209.4 513.981L1180.6 539.073L1177.5 532.532L1209.4 513.98L1209.4 513.981Z" fill="#8F5902"/>
<path d="M885.467 531.636L894.109 580.403H883.307L885.467 531.636Z" fill="#8F5902"/>
<path d="M880.599 517.981C864.71 523.357 857.377 545.794 857.377 555.183C857.377 566.119 868.342 561.583 888.888 566.638C904.778 561.262 917.152 565.102 917.152 555.713C917.152 544.777 901.145 523.036 880.599 517.981Z" fill="url(#paint29_linear)"/>
<path d="M879.699 494.425C866.516 498.885 860.433 517.499 860.433 525.288C860.433 534.361 869.53 530.598 886.576 534.792C899.758 530.331 910.023 533.517 910.023 525.728C910.023 516.655 896.744 498.619 879.699 494.425V494.425Z" fill="url(#paint30_linear)"/>
<path d="M878.633 475.328C868.97 478.597 864.511 492.241 864.511 497.95C864.511 504.601 871.179 501.842 883.674 504.916C893.336 501.647 900.861 503.982 900.861 498.273C900.861 491.622 891.127 478.402 878.633 475.327V475.328Z" fill="url(#paint31_linear)"/>
<path d="M50.2883 322.308C44.1554 322.295 38.3495 325.629 35.2694 330.176C24.7705 326.485 12.5917 327.753 2.86279 332.632V407.94C11.5945 404.055 23.235 411.083 32.259 406.349C39.8453 412.578 51.9278 413.556 61.0795 409.474C69.5275 401.536 79.5654 414.468 90.2848 411.204C100.423 403.531 105.62 416.862 115.198 416.226C130.489 417.072 140.899 402.342 138.606 390.221C137.9 378.26 122.145 367.616 109.114 373.675C103.787 363.923 89.5427 358.735 77.86 362.402C70.9893 368.813 57.7849 360.642 61.592 353.111C73.4928 344.328 67.9644 323.376 51.505 322.362C51.0938 322.331 50.697 322.307 50.2881 322.306L50.2883 322.308Z" fill="url(#paint32_linear)"/>
<defs>
<linearGradient id="paint0_linear" x1="250.996" y1="321.558" x2="253.35" y2="579.366" gradientUnits="userSpaceOnUse">
<stop stop-color="#99BDD8"/>
<stop offset="1" stop-color="#778A96"/>
</linearGradient>
<linearGradient id="paint1_linear" x1="735.999" y1="76.1219" x2="819.111" y2="290.393" gradientUnits="userSpaceOnUse">
<stop stop-color="white"/>
<stop offset="1" stop-color="#D4E7F7" stop-opacity="0"/>
</linearGradient>
<linearGradient id="paint2_linear" x1="692.998" y1="167.539" x2="800.217" y2="279.873" gradientUnits="userSpaceOnUse">
<stop stop-color="white"/>
<stop offset="1" stop-color="#D4E7F7" stop-opacity="0"/>
</linearGradient>
<linearGradient id="paint3_linear" x1="-948.023" y1="900.829" x2="-948.023" y2="-7.30472" gradientUnits="userSpaceOnUse">
<stop stop-color="#555753"/>
<stop offset="1" stop-color="#A4CDED"/>
</linearGradient>
<linearGradient id="paint4_linear" x1="960.427" y1="181.246" x2="960.427" y2="567.626" gradientUnits="userSpaceOnUse">
<stop/>
<stop offset="1" stop-color="#204A87"/>
</linearGradient>
<linearGradient id="paint5_linear" x1="1258.95" y1="29.0144" x2="1291.61" y2="161.987" gradientUnits="userSpaceOnUse">
<stop stop-color="#05A5FF"/>
<stop offset="1" stop-color="white" stop-opacity="0"/>
</linearGradient>
<linearGradient id="paint6_linear" x1="1258.45" y1="61.6556" x2="1284.34" y2="156.921" gradientUnits="userSpaceOnUse">
<stop stop-color="white"/>
<stop offset="1" stop-color="#D4E7F7" stop-opacity="0"/>
</linearGradient>
<linearGradient id="paint7_linear" x1="817.051" y1="475.654" x2="815.578" y2="336.994" gradientUnits="userSpaceOnUse">
<stop stop-color="#898E79"/>
<stop offset="1" stop-color="#A8AD9B"/>
</linearGradient>
<linearGradient id="paint8_linear" x1="773.017" y1="611.048" x2="781.136" y2="404.233" gradientUnits="userSpaceOnUse">
<stop stop-color="#898E79"/>
<stop offset="1" stop-color="#A8AD9B"/>
</linearGradient>
<linearGradient id="paint9_linear" x1="740.289" y1="190.128" x2="732.706" y2="59.2757" gradientUnits="userSpaceOnUse">
<stop stop-color="#898E79"/>
<stop offset="1" stop-color="#A8AD9B"/>
</linearGradient>
<linearGradient id="paint10_linear" x1="757.72" y1="479.403" x2="742.998" y2="201.078" gradientUnits="userSpaceOnUse">
<stop stop-color="#898E79"/>
<stop offset="1" stop-color="#A8AD9B"/>
</linearGradient>
<linearGradient id="paint11_linear" x1="665.664" y1="611.048" x2="657.546" y2="404.233" gradientUnits="userSpaceOnUse">
<stop stop-color="#898E79"/>
<stop offset="1" stop-color="#A8AD9B"/>
</linearGradient>
<linearGradient id="paint12_linear" x1="1315.33" y1="104.206" x2="1319.9" y2="191.557" gradientUnits="userSpaceOnUse">
<stop stop-color="#8A9DA5"/>
<stop offset="1"/>
</linearGradient>
<linearGradient id="paint13_linear" x1="1467.86" y1="192.765" x2="1470.1" y2="263.935" gradientUnits="userSpaceOnUse">
<stop stop-color="#8A9DA5"/>
<stop offset="1"/>
</linearGradient>
<linearGradient id="paint14_linear" x1="1451.7" y1="388.352" x2="1470.41" y2="612.715" gradientUnits="userSpaceOnUse">
<stop stop-color="#8A9DA5"/>
<stop offset="1" stop-color="#74848A"/>
</linearGradient>
<linearGradient id="paint15_linear" x1="470.324" y1="211.289" x2="474.635" y2="266.6" gradientUnits="userSpaceOnUse">
<stop stop-color="#729FCF"/>
<stop offset="1"/>
</linearGradient>
<linearGradient id="paint16_linear" x1="469.903" y1="238.571" x2="473.028" y2="294.042" gradientUnits="userSpaceOnUse">
<stop stop-color="#729FCF"/>
<stop offset="1"/>
</linearGradient>
<linearGradient id="paint17_linear" x1="331.884" y1="476.299" x2="336.444" y2="591.935" gradientUnits="userSpaceOnUse">
<stop stop-color="#8A9DA5"/>
<stop offset="1" stop-color="#74848A"/>
</linearGradient>
<linearGradient id="paint18_linear" x1="259.87" y1="56.0103" x2="292.524" y2="188.982" gradientUnits="userSpaceOnUse">
<stop stop-color="#05A5FF"/>
<stop offset="1" stop-color="white" stop-opacity="0"/>
</linearGradient>
<linearGradient id="paint19_linear" x1="259.365" y1="88.6514" x2="285.259" y2="183.916" gradientUnits="userSpaceOnUse">
<stop stop-color="white"/>
<stop offset="1" stop-color="#D4E7F7" stop-opacity="0"/>
</linearGradient>
<linearGradient id="paint20_linear" x1="486.678" y1="585.923" x2="496.726" y2="519.159" gradientUnits="userSpaceOnUse">
<stop stop-color="#448552"/>
<stop offset="1" stop-color="#8F5902"/>
</linearGradient>
<linearGradient id="paint21_linear" x1="502.18" y1="531.098" x2="525.147" y2="480.569" gradientUnits="userSpaceOnUse">
<stop stop-color="#448552"/>
<stop offset="1" stop-color="#8F5902"/>
</linearGradient>
<linearGradient id="paint22_linear" x1="-37.5264" y1="453.617" x2="-37.5264" y2="525.507" gradientUnits="userSpaceOnUse">
<stop stop-color="#448552"/>
<stop offset="1" stop-color="#8F5902"/>
</linearGradient>
<linearGradient id="paint23_linear" x1="1001.72" y1="572.613" x2="994.131" y2="505.191" gradientUnits="userSpaceOnUse">
<stop stop-color="#448552"/>
<stop offset="1" stop-color="#8F5902"/>
</linearGradient>
<linearGradient id="paint24_linear" x1="980.988" y1="517.789" x2="962.412" y2="463.134" gradientUnits="userSpaceOnUse">
<stop stop-color="#448552"/>
<stop offset="1" stop-color="#8F5902"/>
</linearGradient>
<linearGradient id="paint25_linear" x1="1702.76" y1="440.307" x2="1702.76" y2="512.197" gradientUnits="userSpaceOnUse">
<stop stop-color="#448552"/>
<stop offset="1" stop-color="#8F5902"/>
</linearGradient>
<linearGradient id="paint26_linear" x1="183.442" y1="582.62" x2="175.855" y2="515.198" gradientUnits="userSpaceOnUse">
<stop stop-color="#448552"/>
<stop offset="1" stop-color="#8F5902"/>
</linearGradient>
<linearGradient id="paint27_linear" x1="162.712" y1="527.796" x2="144.135" y2="473.14" gradientUnits="userSpaceOnUse">
<stop stop-color="#448552"/>
<stop offset="1" stop-color="#8F5902"/>
</linearGradient>
<linearGradient id="paint28_linear" x1="884.485" y1="450.314" x2="884.485" y2="522.204" gradientUnits="userSpaceOnUse">
<stop stop-color="#448552"/>
<stop offset="1" stop-color="#8F5902"/>
</linearGradient>
<linearGradient id="paint29_linear" x1="898.625" y1="560.822" x2="893.722" y2="517.255" gradientUnits="userSpaceOnUse">
<stop stop-color="#448552"/>
<stop offset="1" stop-color="#8F5902"/>
</linearGradient>
<linearGradient id="paint30_linear" x1="885.23" y1="525.395" x2="873.226" y2="490.077" gradientUnits="userSpaceOnUse">
<stop stop-color="#448552"/>
<stop offset="1" stop-color="#8F5902"/>
</linearGradient>
<linearGradient id="paint31_linear" x1="1351.62" y1="475.328" x2="1351.62" y2="521.782" gradientUnits="userSpaceOnUse">
<stop stop-color="#448552"/>
<stop offset="1" stop-color="#8F5902"/>
</linearGradient>
<linearGradient id="paint32_linear" x1="14.5634" y1="339.088" x2="5.0963" y2="418" gradientUnits="userSpaceOnUse">
<stop stop-color="white"/>
<stop offset="1" stop-color="white" stop-opacity="0"/>
</linearGradient>
</defs>
</svg>
